%TF.GenerationSoftware,KiCad,Pcbnew,7.0.10-7.0.10~ubuntu22.04.1*%
%TF.CreationDate,2024-10-01T11:43:18-07:00*%
%TF.ProjectId,radial_24mA,72616469-616c-45f3-9234-6d412e6b6963,rev?*%
%TF.SameCoordinates,Original*%
%TF.FileFunction,Legend,Bot*%
%TF.FilePolarity,Positive*%
%FSLAX46Y46*%
G04 Gerber Fmt 4.6, Leading zero omitted, Abs format (unit mm)*
G04 Created by KiCad (PCBNEW 7.0.10-7.0.10~ubuntu22.04.1) date 2024-10-01 11:43:18*
%MOMM*%
%LPD*%
G01*
G04 APERTURE LIST*
%ADD10C,0.120000*%
%ADD11C,0.150000*%
G04 APERTURE END LIST*
D10*
X69202300Y-55500000D02*
X74777600Y-55500000D01*
X74777600Y-64500000D01*
X69202300Y-64500000D01*
X69202300Y-55500000D01*
G36*
X69202300Y-55500000D02*
G01*
X74777600Y-55500000D01*
X74777600Y-64500000D01*
X69202300Y-64500000D01*
X69202300Y-55500000D01*
G37*
D11*
X67771428Y-67649819D02*
X68104761Y-67173628D01*
X68342856Y-67649819D02*
X68342856Y-66649819D01*
X68342856Y-66649819D02*
X67961904Y-66649819D01*
X67961904Y-66649819D02*
X67866666Y-66697438D01*
X67866666Y-66697438D02*
X67819047Y-66745057D01*
X67819047Y-66745057D02*
X67771428Y-66840295D01*
X67771428Y-66840295D02*
X67771428Y-66983152D01*
X67771428Y-66983152D02*
X67819047Y-67078390D01*
X67819047Y-67078390D02*
X67866666Y-67126009D01*
X67866666Y-67126009D02*
X67961904Y-67173628D01*
X67961904Y-67173628D02*
X68342856Y-67173628D01*
X66914285Y-67649819D02*
X66914285Y-67126009D01*
X66914285Y-67126009D02*
X66961904Y-67030771D01*
X66961904Y-67030771D02*
X67057142Y-66983152D01*
X67057142Y-66983152D02*
X67247618Y-66983152D01*
X67247618Y-66983152D02*
X67342856Y-67030771D01*
X66914285Y-67602200D02*
X67009523Y-67649819D01*
X67009523Y-67649819D02*
X67247618Y-67649819D01*
X67247618Y-67649819D02*
X67342856Y-67602200D01*
X67342856Y-67602200D02*
X67390475Y-67506961D01*
X67390475Y-67506961D02*
X67390475Y-67411723D01*
X67390475Y-67411723D02*
X67342856Y-67316485D01*
X67342856Y-67316485D02*
X67247618Y-67268866D01*
X67247618Y-67268866D02*
X67009523Y-67268866D01*
X67009523Y-67268866D02*
X66914285Y-67221247D01*
X66009523Y-67649819D02*
X66009523Y-66649819D01*
X66009523Y-67602200D02*
X66104761Y-67649819D01*
X66104761Y-67649819D02*
X66295237Y-67649819D01*
X66295237Y-67649819D02*
X66390475Y-67602200D01*
X66390475Y-67602200D02*
X66438094Y-67554580D01*
X66438094Y-67554580D02*
X66485713Y-67459342D01*
X66485713Y-67459342D02*
X66485713Y-67173628D01*
X66485713Y-67173628D02*
X66438094Y-67078390D01*
X66438094Y-67078390D02*
X66390475Y-67030771D01*
X66390475Y-67030771D02*
X66295237Y-66983152D01*
X66295237Y-66983152D02*
X66104761Y-66983152D01*
X66104761Y-66983152D02*
X66009523Y-67030771D01*
X65533332Y-67649819D02*
X65533332Y-66983152D01*
X65533332Y-66649819D02*
X65580951Y-66697438D01*
X65580951Y-66697438D02*
X65533332Y-66745057D01*
X65533332Y-66745057D02*
X65485713Y-66697438D01*
X65485713Y-66697438D02*
X65533332Y-66649819D01*
X65533332Y-66649819D02*
X65533332Y-66745057D01*
X64628571Y-67649819D02*
X64628571Y-67126009D01*
X64628571Y-67126009D02*
X64676190Y-67030771D01*
X64676190Y-67030771D02*
X64771428Y-66983152D01*
X64771428Y-66983152D02*
X64961904Y-66983152D01*
X64961904Y-66983152D02*
X65057142Y-67030771D01*
X64628571Y-67602200D02*
X64723809Y-67649819D01*
X64723809Y-67649819D02*
X64961904Y-67649819D01*
X64961904Y-67649819D02*
X65057142Y-67602200D01*
X65057142Y-67602200D02*
X65104761Y-67506961D01*
X65104761Y-67506961D02*
X65104761Y-67411723D01*
X65104761Y-67411723D02*
X65057142Y-67316485D01*
X65057142Y-67316485D02*
X64961904Y-67268866D01*
X64961904Y-67268866D02*
X64723809Y-67268866D01*
X64723809Y-67268866D02*
X64628571Y-67221247D01*
X64009523Y-67649819D02*
X64104761Y-67602200D01*
X64104761Y-67602200D02*
X64152380Y-67506961D01*
X64152380Y-67506961D02*
X64152380Y-66649819D01*
X63580951Y-67602200D02*
X63580951Y-67649819D01*
X63580951Y-67649819D02*
X63628570Y-67745057D01*
X63628570Y-67745057D02*
X63676189Y-67792676D01*
X62390475Y-67649819D02*
X62390475Y-66649819D01*
X61914285Y-67126009D02*
X61152381Y-67126009D01*
X61152381Y-67411723D02*
X61914285Y-67411723D01*
X60723809Y-66745057D02*
X60676190Y-66697438D01*
X60676190Y-66697438D02*
X60580952Y-66649819D01*
X60580952Y-66649819D02*
X60342857Y-66649819D01*
X60342857Y-66649819D02*
X60247619Y-66697438D01*
X60247619Y-66697438D02*
X60200000Y-66745057D01*
X60200000Y-66745057D02*
X60152381Y-66840295D01*
X60152381Y-66840295D02*
X60152381Y-66935533D01*
X60152381Y-66935533D02*
X60200000Y-67078390D01*
X60200000Y-67078390D02*
X60771428Y-67649819D01*
X60771428Y-67649819D02*
X60152381Y-67649819D01*
X59295238Y-66983152D02*
X59295238Y-67649819D01*
X59533333Y-66602200D02*
X59771428Y-67316485D01*
X59771428Y-67316485D02*
X59152381Y-67316485D01*
X58771428Y-67649819D02*
X58771428Y-66983152D01*
X58771428Y-67078390D02*
X58723809Y-67030771D01*
X58723809Y-67030771D02*
X58628571Y-66983152D01*
X58628571Y-66983152D02*
X58485714Y-66983152D01*
X58485714Y-66983152D02*
X58390476Y-67030771D01*
X58390476Y-67030771D02*
X58342857Y-67126009D01*
X58342857Y-67126009D02*
X58342857Y-67649819D01*
X58342857Y-67126009D02*
X58295238Y-67030771D01*
X58295238Y-67030771D02*
X58200000Y-66983152D01*
X58200000Y-66983152D02*
X58057143Y-66983152D01*
X58057143Y-66983152D02*
X57961904Y-67030771D01*
X57961904Y-67030771D02*
X57914285Y-67126009D01*
X57914285Y-67126009D02*
X57914285Y-67649819D01*
X57485714Y-67364104D02*
X57009524Y-67364104D01*
X57580952Y-67649819D02*
X57247619Y-66649819D01*
X57247619Y-66649819D02*
X56914286Y-67649819D01*
X67771427Y-68259819D02*
X67438094Y-69259819D01*
X67438094Y-69259819D02*
X67104761Y-68259819D01*
X66771427Y-69259819D02*
X66771427Y-68593152D01*
X66771427Y-68259819D02*
X66819046Y-68307438D01*
X66819046Y-68307438D02*
X66771427Y-68355057D01*
X66771427Y-68355057D02*
X66723808Y-68307438D01*
X66723808Y-68307438D02*
X66771427Y-68259819D01*
X66771427Y-68259819D02*
X66771427Y-68355057D01*
X66295237Y-68593152D02*
X66295237Y-69259819D01*
X66295237Y-68688390D02*
X66247618Y-68640771D01*
X66247618Y-68640771D02*
X66152380Y-68593152D01*
X66152380Y-68593152D02*
X66009523Y-68593152D01*
X66009523Y-68593152D02*
X65914285Y-68640771D01*
X65914285Y-68640771D02*
X65866666Y-68736009D01*
X65866666Y-68736009D02*
X65866666Y-69259819D01*
X65390475Y-68736009D02*
X64628571Y-68736009D01*
X64628571Y-69021723D02*
X65390475Y-69021723D01*
X64247618Y-68259819D02*
X63628571Y-68259819D01*
X63628571Y-68259819D02*
X63961904Y-68640771D01*
X63961904Y-68640771D02*
X63819047Y-68640771D01*
X63819047Y-68640771D02*
X63723809Y-68688390D01*
X63723809Y-68688390D02*
X63676190Y-68736009D01*
X63676190Y-68736009D02*
X63628571Y-68831247D01*
X63628571Y-68831247D02*
X63628571Y-69069342D01*
X63628571Y-69069342D02*
X63676190Y-69164580D01*
X63676190Y-69164580D02*
X63723809Y-69212200D01*
X63723809Y-69212200D02*
X63819047Y-69259819D01*
X63819047Y-69259819D02*
X64104761Y-69259819D01*
X64104761Y-69259819D02*
X64199999Y-69212200D01*
X64199999Y-69212200D02*
X64247618Y-69164580D01*
X63199999Y-69164580D02*
X63152380Y-69212200D01*
X63152380Y-69212200D02*
X63199999Y-69259819D01*
X63199999Y-69259819D02*
X63247618Y-69212200D01*
X63247618Y-69212200D02*
X63199999Y-69164580D01*
X63199999Y-69164580D02*
X63199999Y-69259819D01*
X62819047Y-68259819D02*
X62200000Y-68259819D01*
X62200000Y-68259819D02*
X62533333Y-68640771D01*
X62533333Y-68640771D02*
X62390476Y-68640771D01*
X62390476Y-68640771D02*
X62295238Y-68688390D01*
X62295238Y-68688390D02*
X62247619Y-68736009D01*
X62247619Y-68736009D02*
X62200000Y-68831247D01*
X62200000Y-68831247D02*
X62200000Y-69069342D01*
X62200000Y-69069342D02*
X62247619Y-69164580D01*
X62247619Y-69164580D02*
X62295238Y-69212200D01*
X62295238Y-69212200D02*
X62390476Y-69259819D01*
X62390476Y-69259819D02*
X62676190Y-69259819D01*
X62676190Y-69259819D02*
X62771428Y-69212200D01*
X62771428Y-69212200D02*
X62819047Y-69164580D01*
X61771428Y-68878866D02*
X61009524Y-68878866D01*
X60057143Y-68259819D02*
X60533333Y-68259819D01*
X60533333Y-68259819D02*
X60580952Y-68736009D01*
X60580952Y-68736009D02*
X60533333Y-68688390D01*
X60533333Y-68688390D02*
X60438095Y-68640771D01*
X60438095Y-68640771D02*
X60200000Y-68640771D01*
X60200000Y-68640771D02*
X60104762Y-68688390D01*
X60104762Y-68688390D02*
X60057143Y-68736009D01*
X60057143Y-68736009D02*
X60009524Y-68831247D01*
X60009524Y-68831247D02*
X60009524Y-69069342D01*
X60009524Y-69069342D02*
X60057143Y-69164580D01*
X60057143Y-69164580D02*
X60104762Y-69212200D01*
X60104762Y-69212200D02*
X60200000Y-69259819D01*
X60200000Y-69259819D02*
X60438095Y-69259819D01*
X60438095Y-69259819D02*
X60533333Y-69212200D01*
X60533333Y-69212200D02*
X60580952Y-69164580D01*
X59580952Y-69164580D02*
X59533333Y-69212200D01*
X59533333Y-69212200D02*
X59580952Y-69259819D01*
X59580952Y-69259819D02*
X59628571Y-69212200D01*
X59628571Y-69212200D02*
X59580952Y-69164580D01*
X59580952Y-69164580D02*
X59580952Y-69259819D01*
X58914286Y-68259819D02*
X58819048Y-68259819D01*
X58819048Y-68259819D02*
X58723810Y-68307438D01*
X58723810Y-68307438D02*
X58676191Y-68355057D01*
X58676191Y-68355057D02*
X58628572Y-68450295D01*
X58628572Y-68450295D02*
X58580953Y-68640771D01*
X58580953Y-68640771D02*
X58580953Y-68878866D01*
X58580953Y-68878866D02*
X58628572Y-69069342D01*
X58628572Y-69069342D02*
X58676191Y-69164580D01*
X58676191Y-69164580D02*
X58723810Y-69212200D01*
X58723810Y-69212200D02*
X58819048Y-69259819D01*
X58819048Y-69259819D02*
X58914286Y-69259819D01*
X58914286Y-69259819D02*
X59009524Y-69212200D01*
X59009524Y-69212200D02*
X59057143Y-69164580D01*
X59057143Y-69164580D02*
X59104762Y-69069342D01*
X59104762Y-69069342D02*
X59152381Y-68878866D01*
X59152381Y-68878866D02*
X59152381Y-68640771D01*
X59152381Y-68640771D02*
X59104762Y-68450295D01*
X59104762Y-68450295D02*
X59057143Y-68355057D01*
X59057143Y-68355057D02*
X59009524Y-68307438D01*
X59009524Y-68307438D02*
X58914286Y-68259819D01*
X58295238Y-68259819D02*
X57961905Y-69259819D01*
X57961905Y-69259819D02*
X57628572Y-68259819D01*
X67533333Y-51344819D02*
X67533333Y-50344819D01*
X66485715Y-51249580D02*
X66533334Y-51297200D01*
X66533334Y-51297200D02*
X66676191Y-51344819D01*
X66676191Y-51344819D02*
X66771429Y-51344819D01*
X66771429Y-51344819D02*
X66914286Y-51297200D01*
X66914286Y-51297200D02*
X67009524Y-51201961D01*
X67009524Y-51201961D02*
X67057143Y-51106723D01*
X67057143Y-51106723D02*
X67104762Y-50916247D01*
X67104762Y-50916247D02*
X67104762Y-50773390D01*
X67104762Y-50773390D02*
X67057143Y-50582914D01*
X67057143Y-50582914D02*
X67009524Y-50487676D01*
X67009524Y-50487676D02*
X66914286Y-50392438D01*
X66914286Y-50392438D02*
X66771429Y-50344819D01*
X66771429Y-50344819D02*
X66676191Y-50344819D01*
X66676191Y-50344819D02*
X66533334Y-50392438D01*
X66533334Y-50392438D02*
X66485715Y-50440057D01*
X65914286Y-51344819D02*
X66009524Y-51297200D01*
X66009524Y-51297200D02*
X66057143Y-51249580D01*
X66057143Y-51249580D02*
X66104762Y-51154342D01*
X66104762Y-51154342D02*
X66104762Y-50868628D01*
X66104762Y-50868628D02*
X66057143Y-50773390D01*
X66057143Y-50773390D02*
X66009524Y-50725771D01*
X66009524Y-50725771D02*
X65914286Y-50678152D01*
X65914286Y-50678152D02*
X65771429Y-50678152D01*
X65771429Y-50678152D02*
X65676191Y-50725771D01*
X65676191Y-50725771D02*
X65628572Y-50773390D01*
X65628572Y-50773390D02*
X65580953Y-50868628D01*
X65580953Y-50868628D02*
X65580953Y-51154342D01*
X65580953Y-51154342D02*
X65628572Y-51249580D01*
X65628572Y-51249580D02*
X65676191Y-51297200D01*
X65676191Y-51297200D02*
X65771429Y-51344819D01*
X65771429Y-51344819D02*
X65914286Y-51344819D01*
X65152381Y-50678152D02*
X65152381Y-51344819D01*
X65152381Y-50773390D02*
X65104762Y-50725771D01*
X65104762Y-50725771D02*
X65009524Y-50678152D01*
X65009524Y-50678152D02*
X64866667Y-50678152D01*
X64866667Y-50678152D02*
X64771429Y-50725771D01*
X64771429Y-50725771D02*
X64723810Y-50821009D01*
X64723810Y-50821009D02*
X64723810Y-51344819D01*
X64390476Y-50678152D02*
X64009524Y-50678152D01*
X64247619Y-50344819D02*
X64247619Y-51201961D01*
X64247619Y-51201961D02*
X64200000Y-51297200D01*
X64200000Y-51297200D02*
X64104762Y-51344819D01*
X64104762Y-51344819D02*
X64009524Y-51344819D01*
X63676190Y-51344819D02*
X63676190Y-50678152D01*
X63676190Y-50868628D02*
X63628571Y-50773390D01*
X63628571Y-50773390D02*
X63580952Y-50725771D01*
X63580952Y-50725771D02*
X63485714Y-50678152D01*
X63485714Y-50678152D02*
X63390476Y-50678152D01*
X62914285Y-51344819D02*
X63009523Y-51297200D01*
X63009523Y-51297200D02*
X63057142Y-51249580D01*
X63057142Y-51249580D02*
X63104761Y-51154342D01*
X63104761Y-51154342D02*
X63104761Y-50868628D01*
X63104761Y-50868628D02*
X63057142Y-50773390D01*
X63057142Y-50773390D02*
X63009523Y-50725771D01*
X63009523Y-50725771D02*
X62914285Y-50678152D01*
X62914285Y-50678152D02*
X62771428Y-50678152D01*
X62771428Y-50678152D02*
X62676190Y-50725771D01*
X62676190Y-50725771D02*
X62628571Y-50773390D01*
X62628571Y-50773390D02*
X62580952Y-50868628D01*
X62580952Y-50868628D02*
X62580952Y-51154342D01*
X62580952Y-51154342D02*
X62628571Y-51249580D01*
X62628571Y-51249580D02*
X62676190Y-51297200D01*
X62676190Y-51297200D02*
X62771428Y-51344819D01*
X62771428Y-51344819D02*
X62914285Y-51344819D01*
X62009523Y-51344819D02*
X62104761Y-51297200D01*
X62104761Y-51297200D02*
X62152380Y-51201961D01*
X62152380Y-51201961D02*
X62152380Y-50344819D01*
X60390475Y-51344819D02*
X60866665Y-51344819D01*
X60866665Y-51344819D02*
X60866665Y-50344819D01*
X60057141Y-50821009D02*
X59723808Y-50821009D01*
X59580951Y-51344819D02*
X60057141Y-51344819D01*
X60057141Y-51344819D02*
X60057141Y-50344819D01*
X60057141Y-50344819D02*
X59580951Y-50344819D01*
X59152379Y-51344819D02*
X59152379Y-50344819D01*
X59152379Y-50344819D02*
X58914284Y-50344819D01*
X58914284Y-50344819D02*
X58771427Y-50392438D01*
X58771427Y-50392438D02*
X58676189Y-50487676D01*
X58676189Y-50487676D02*
X58628570Y-50582914D01*
X58628570Y-50582914D02*
X58580951Y-50773390D01*
X58580951Y-50773390D02*
X58580951Y-50916247D01*
X58580951Y-50916247D02*
X58628570Y-51106723D01*
X58628570Y-51106723D02*
X58676189Y-51201961D01*
X58676189Y-51201961D02*
X58771427Y-51297200D01*
X58771427Y-51297200D02*
X58914284Y-51344819D01*
X58914284Y-51344819D02*
X59152379Y-51344819D01*
X65580951Y-51954819D02*
X65247618Y-52954819D01*
X65247618Y-52954819D02*
X64914285Y-51954819D01*
X64390475Y-51954819D02*
X64295237Y-51954819D01*
X64295237Y-51954819D02*
X64199999Y-52002438D01*
X64199999Y-52002438D02*
X64152380Y-52050057D01*
X64152380Y-52050057D02*
X64104761Y-52145295D01*
X64104761Y-52145295D02*
X64057142Y-52335771D01*
X64057142Y-52335771D02*
X64057142Y-52573866D01*
X64057142Y-52573866D02*
X64104761Y-52764342D01*
X64104761Y-52764342D02*
X64152380Y-52859580D01*
X64152380Y-52859580D02*
X64199999Y-52907200D01*
X64199999Y-52907200D02*
X64295237Y-52954819D01*
X64295237Y-52954819D02*
X64390475Y-52954819D01*
X64390475Y-52954819D02*
X64485713Y-52907200D01*
X64485713Y-52907200D02*
X64533332Y-52859580D01*
X64533332Y-52859580D02*
X64580951Y-52764342D01*
X64580951Y-52764342D02*
X64628570Y-52573866D01*
X64628570Y-52573866D02*
X64628570Y-52335771D01*
X64628570Y-52335771D02*
X64580951Y-52145295D01*
X64580951Y-52145295D02*
X64533332Y-52050057D01*
X64533332Y-52050057D02*
X64485713Y-52002438D01*
X64485713Y-52002438D02*
X64390475Y-51954819D01*
X63628570Y-52859580D02*
X63580951Y-52907200D01*
X63580951Y-52907200D02*
X63628570Y-52954819D01*
X63628570Y-52954819D02*
X63676189Y-52907200D01*
X63676189Y-52907200D02*
X63628570Y-52859580D01*
X63628570Y-52859580D02*
X63628570Y-52954819D01*
X62628571Y-52954819D02*
X63199999Y-52954819D01*
X62914285Y-52954819D02*
X62914285Y-51954819D01*
X62914285Y-51954819D02*
X63009523Y-52097676D01*
X63009523Y-52097676D02*
X63104761Y-52192914D01*
X63104761Y-52192914D02*
X63199999Y-52240533D01*
X60866666Y-52954819D02*
X61199999Y-52478628D01*
X61438094Y-52954819D02*
X61438094Y-51954819D01*
X61438094Y-51954819D02*
X61057142Y-51954819D01*
X61057142Y-51954819D02*
X60961904Y-52002438D01*
X60961904Y-52002438D02*
X60914285Y-52050057D01*
X60914285Y-52050057D02*
X60866666Y-52145295D01*
X60866666Y-52145295D02*
X60866666Y-52288152D01*
X60866666Y-52288152D02*
X60914285Y-52383390D01*
X60914285Y-52383390D02*
X60961904Y-52431009D01*
X60961904Y-52431009D02*
X61057142Y-52478628D01*
X61057142Y-52478628D02*
X61438094Y-52478628D01*
X60533332Y-51954819D02*
X59914285Y-51954819D01*
X59914285Y-51954819D02*
X60247618Y-52335771D01*
X60247618Y-52335771D02*
X60104761Y-52335771D01*
X60104761Y-52335771D02*
X60009523Y-52383390D01*
X60009523Y-52383390D02*
X59961904Y-52431009D01*
X59961904Y-52431009D02*
X59914285Y-52526247D01*
X59914285Y-52526247D02*
X59914285Y-52764342D01*
X59914285Y-52764342D02*
X59961904Y-52859580D01*
X59961904Y-52859580D02*
X60009523Y-52907200D01*
X60009523Y-52907200D02*
X60104761Y-52954819D01*
X60104761Y-52954819D02*
X60390475Y-52954819D01*
X60390475Y-52954819D02*
X60485713Y-52907200D01*
X60485713Y-52907200D02*
X60533332Y-52859580D01*
X68938094Y-53898152D02*
X68747618Y-54564819D01*
X68747618Y-54564819D02*
X68557142Y-54088628D01*
X68557142Y-54088628D02*
X68366666Y-54564819D01*
X68366666Y-54564819D02*
X68176190Y-53898152D01*
X67890475Y-53898152D02*
X67699999Y-54564819D01*
X67699999Y-54564819D02*
X67509523Y-54088628D01*
X67509523Y-54088628D02*
X67319047Y-54564819D01*
X67319047Y-54564819D02*
X67128571Y-53898152D01*
X66842856Y-53898152D02*
X66652380Y-54564819D01*
X66652380Y-54564819D02*
X66461904Y-54088628D01*
X66461904Y-54088628D02*
X66271428Y-54564819D01*
X66271428Y-54564819D02*
X66080952Y-53898152D01*
X65699999Y-54469580D02*
X65652380Y-54517200D01*
X65652380Y-54517200D02*
X65699999Y-54564819D01*
X65699999Y-54564819D02*
X65747618Y-54517200D01*
X65747618Y-54517200D02*
X65699999Y-54469580D01*
X65699999Y-54469580D02*
X65699999Y-54564819D01*
X65223809Y-54564819D02*
X65223809Y-53898152D01*
X65223809Y-53564819D02*
X65271428Y-53612438D01*
X65271428Y-53612438D02*
X65223809Y-53660057D01*
X65223809Y-53660057D02*
X65176190Y-53612438D01*
X65176190Y-53612438D02*
X65223809Y-53564819D01*
X65223809Y-53564819D02*
X65223809Y-53660057D01*
X64604762Y-54564819D02*
X64700000Y-54517200D01*
X64700000Y-54517200D02*
X64747619Y-54469580D01*
X64747619Y-54469580D02*
X64795238Y-54374342D01*
X64795238Y-54374342D02*
X64795238Y-54088628D01*
X64795238Y-54088628D02*
X64747619Y-53993390D01*
X64747619Y-53993390D02*
X64700000Y-53945771D01*
X64700000Y-53945771D02*
X64604762Y-53898152D01*
X64604762Y-53898152D02*
X64461905Y-53898152D01*
X64461905Y-53898152D02*
X64366667Y-53945771D01*
X64366667Y-53945771D02*
X64319048Y-53993390D01*
X64319048Y-53993390D02*
X64271429Y-54088628D01*
X64271429Y-54088628D02*
X64271429Y-54374342D01*
X64271429Y-54374342D02*
X64319048Y-54469580D01*
X64319048Y-54469580D02*
X64366667Y-54517200D01*
X64366667Y-54517200D02*
X64461905Y-54564819D01*
X64461905Y-54564819D02*
X64604762Y-54564819D01*
X63842857Y-54564819D02*
X63842857Y-53898152D01*
X63842857Y-54088628D02*
X63795238Y-53993390D01*
X63795238Y-53993390D02*
X63747619Y-53945771D01*
X63747619Y-53945771D02*
X63652381Y-53898152D01*
X63652381Y-53898152D02*
X63557143Y-53898152D01*
X63080952Y-54564819D02*
X63176190Y-54517200D01*
X63176190Y-54517200D02*
X63223809Y-54469580D01*
X63223809Y-54469580D02*
X63271428Y-54374342D01*
X63271428Y-54374342D02*
X63271428Y-54088628D01*
X63271428Y-54088628D02*
X63223809Y-53993390D01*
X63223809Y-53993390D02*
X63176190Y-53945771D01*
X63176190Y-53945771D02*
X63080952Y-53898152D01*
X63080952Y-53898152D02*
X62938095Y-53898152D01*
X62938095Y-53898152D02*
X62842857Y-53945771D01*
X62842857Y-53945771D02*
X62795238Y-53993390D01*
X62795238Y-53993390D02*
X62747619Y-54088628D01*
X62747619Y-54088628D02*
X62747619Y-54374342D01*
X62747619Y-54374342D02*
X62795238Y-54469580D01*
X62795238Y-54469580D02*
X62842857Y-54517200D01*
X62842857Y-54517200D02*
X62938095Y-54564819D01*
X62938095Y-54564819D02*
X63080952Y-54564819D01*
X61890476Y-54564819D02*
X61890476Y-53564819D01*
X61890476Y-54517200D02*
X61985714Y-54564819D01*
X61985714Y-54564819D02*
X62176190Y-54564819D01*
X62176190Y-54564819D02*
X62271428Y-54517200D01*
X62271428Y-54517200D02*
X62319047Y-54469580D01*
X62319047Y-54469580D02*
X62366666Y-54374342D01*
X62366666Y-54374342D02*
X62366666Y-54088628D01*
X62366666Y-54088628D02*
X62319047Y-53993390D01*
X62319047Y-53993390D02*
X62271428Y-53945771D01*
X62271428Y-53945771D02*
X62176190Y-53898152D01*
X62176190Y-53898152D02*
X61985714Y-53898152D01*
X61985714Y-53898152D02*
X61890476Y-53945771D01*
X61033333Y-54517200D02*
X61128571Y-54564819D01*
X61128571Y-54564819D02*
X61319047Y-54564819D01*
X61319047Y-54564819D02*
X61414285Y-54517200D01*
X61414285Y-54517200D02*
X61461904Y-54421961D01*
X61461904Y-54421961D02*
X61461904Y-54041009D01*
X61461904Y-54041009D02*
X61414285Y-53945771D01*
X61414285Y-53945771D02*
X61319047Y-53898152D01*
X61319047Y-53898152D02*
X61128571Y-53898152D01*
X61128571Y-53898152D02*
X61033333Y-53945771D01*
X61033333Y-53945771D02*
X60985714Y-54041009D01*
X60985714Y-54041009D02*
X60985714Y-54136247D01*
X60985714Y-54136247D02*
X61461904Y-54231485D01*
X60414285Y-54564819D02*
X60509523Y-54517200D01*
X60509523Y-54517200D02*
X60557142Y-54469580D01*
X60557142Y-54469580D02*
X60604761Y-54374342D01*
X60604761Y-54374342D02*
X60604761Y-54088628D01*
X60604761Y-54088628D02*
X60557142Y-53993390D01*
X60557142Y-53993390D02*
X60509523Y-53945771D01*
X60509523Y-53945771D02*
X60414285Y-53898152D01*
X60414285Y-53898152D02*
X60271428Y-53898152D01*
X60271428Y-53898152D02*
X60176190Y-53945771D01*
X60176190Y-53945771D02*
X60128571Y-53993390D01*
X60128571Y-53993390D02*
X60080952Y-54088628D01*
X60080952Y-54088628D02*
X60080952Y-54374342D01*
X60080952Y-54374342D02*
X60128571Y-54469580D01*
X60128571Y-54469580D02*
X60176190Y-54517200D01*
X60176190Y-54517200D02*
X60271428Y-54564819D01*
X60271428Y-54564819D02*
X60414285Y-54564819D01*
X59652380Y-54469580D02*
X59604761Y-54517200D01*
X59604761Y-54517200D02*
X59652380Y-54564819D01*
X59652380Y-54564819D02*
X59699999Y-54517200D01*
X59699999Y-54517200D02*
X59652380Y-54469580D01*
X59652380Y-54469580D02*
X59652380Y-54564819D01*
X58747619Y-54517200D02*
X58842857Y-54564819D01*
X58842857Y-54564819D02*
X59033333Y-54564819D01*
X59033333Y-54564819D02*
X59128571Y-54517200D01*
X59128571Y-54517200D02*
X59176190Y-54469580D01*
X59176190Y-54469580D02*
X59223809Y-54374342D01*
X59223809Y-54374342D02*
X59223809Y-54088628D01*
X59223809Y-54088628D02*
X59176190Y-53993390D01*
X59176190Y-53993390D02*
X59128571Y-53945771D01*
X59128571Y-53945771D02*
X59033333Y-53898152D01*
X59033333Y-53898152D02*
X58842857Y-53898152D01*
X58842857Y-53898152D02*
X58747619Y-53945771D01*
X58176190Y-54564819D02*
X58271428Y-54517200D01*
X58271428Y-54517200D02*
X58319047Y-54469580D01*
X58319047Y-54469580D02*
X58366666Y-54374342D01*
X58366666Y-54374342D02*
X58366666Y-54088628D01*
X58366666Y-54088628D02*
X58319047Y-53993390D01*
X58319047Y-53993390D02*
X58271428Y-53945771D01*
X58271428Y-53945771D02*
X58176190Y-53898152D01*
X58176190Y-53898152D02*
X58033333Y-53898152D01*
X58033333Y-53898152D02*
X57938095Y-53945771D01*
X57938095Y-53945771D02*
X57890476Y-53993390D01*
X57890476Y-53993390D02*
X57842857Y-54088628D01*
X57842857Y-54088628D02*
X57842857Y-54374342D01*
X57842857Y-54374342D02*
X57890476Y-54469580D01*
X57890476Y-54469580D02*
X57938095Y-54517200D01*
X57938095Y-54517200D02*
X58033333Y-54564819D01*
X58033333Y-54564819D02*
X58176190Y-54564819D01*
X57414285Y-54564819D02*
X57414285Y-53898152D01*
X57414285Y-53993390D02*
X57366666Y-53945771D01*
X57366666Y-53945771D02*
X57271428Y-53898152D01*
X57271428Y-53898152D02*
X57128571Y-53898152D01*
X57128571Y-53898152D02*
X57033333Y-53945771D01*
X57033333Y-53945771D02*
X56985714Y-54041009D01*
X56985714Y-54041009D02*
X56985714Y-54564819D01*
X56985714Y-54041009D02*
X56938095Y-53945771D01*
X56938095Y-53945771D02*
X56842857Y-53898152D01*
X56842857Y-53898152D02*
X56700000Y-53898152D01*
X56700000Y-53898152D02*
X56604761Y-53945771D01*
X56604761Y-53945771D02*
X56557142Y-54041009D01*
X56557142Y-54041009D02*
X56557142Y-54564819D01*
%TO.C,M1*%
X54990000Y-52540000D02*
G75*
G03*
X50090000Y-52540000I-2450000J0D01*
G01*
X50090000Y-52540000D02*
G75*
G03*
X54990000Y-52540000I2450000J0D01*
G01*
%TO.C,M2*%
X75310000Y-52540000D02*
G75*
G03*
X70410000Y-52540000I-2450000J0D01*
G01*
X70410000Y-52540000D02*
G75*
G03*
X75310000Y-52540000I2450000J0D01*
G01*
%TO.C,M3*%
X75310000Y-67460000D02*
G75*
G03*
X70410000Y-67460000I-2450000J0D01*
G01*
X70410000Y-67460000D02*
G75*
G03*
X75310000Y-67460000I2450000J0D01*
G01*
%TO.C,M4*%
X54990000Y-67460000D02*
G75*
G03*
X50090000Y-67460000I-2450000J0D01*
G01*
X50090000Y-67460000D02*
G75*
G03*
X54990000Y-67460000I2450000J0D01*
G01*
%TD*%
M02*
