%TF.GenerationSoftware,KiCad,Pcbnew,9.0.1-9.0.1-0~ubuntu22.04.1*%
%TF.CreationDate,2025-09-19T12:19:46-07:00*%
%TF.ProjectId,SMD0603_16mA,534d4430-3630-4335-9f31-366d412e6b69,rev?*%
%TF.SameCoordinates,Original*%
%TF.FileFunction,Legend,Bot*%
%TF.FilePolarity,Positive*%
%FSLAX46Y46*%
G04 Gerber Fmt 4.6, Leading zero omitted, Abs format (unit mm)*
G04 Created by KiCad (PCBNEW 9.0.1-9.0.1-0~ubuntu22.04.1) date 2025-09-19 12:19:46*
%MOMM*%
%LPD*%
G01*
G04 APERTURE LIST*
%ADD10C,0.150000*%
%ADD11C,0.120000*%
G04 APERTURE END LIST*
D10*
X67033333Y-51905099D02*
X67033333Y-50905099D01*
X65985715Y-51809860D02*
X66033334Y-51857480D01*
X66033334Y-51857480D02*
X66176191Y-51905099D01*
X66176191Y-51905099D02*
X66271429Y-51905099D01*
X66271429Y-51905099D02*
X66414286Y-51857480D01*
X66414286Y-51857480D02*
X66509524Y-51762241D01*
X66509524Y-51762241D02*
X66557143Y-51667003D01*
X66557143Y-51667003D02*
X66604762Y-51476527D01*
X66604762Y-51476527D02*
X66604762Y-51333670D01*
X66604762Y-51333670D02*
X66557143Y-51143194D01*
X66557143Y-51143194D02*
X66509524Y-51047956D01*
X66509524Y-51047956D02*
X66414286Y-50952718D01*
X66414286Y-50952718D02*
X66271429Y-50905099D01*
X66271429Y-50905099D02*
X66176191Y-50905099D01*
X66176191Y-50905099D02*
X66033334Y-50952718D01*
X66033334Y-50952718D02*
X65985715Y-51000337D01*
X65414286Y-51905099D02*
X65509524Y-51857480D01*
X65509524Y-51857480D02*
X65557143Y-51809860D01*
X65557143Y-51809860D02*
X65604762Y-51714622D01*
X65604762Y-51714622D02*
X65604762Y-51428908D01*
X65604762Y-51428908D02*
X65557143Y-51333670D01*
X65557143Y-51333670D02*
X65509524Y-51286051D01*
X65509524Y-51286051D02*
X65414286Y-51238432D01*
X65414286Y-51238432D02*
X65271429Y-51238432D01*
X65271429Y-51238432D02*
X65176191Y-51286051D01*
X65176191Y-51286051D02*
X65128572Y-51333670D01*
X65128572Y-51333670D02*
X65080953Y-51428908D01*
X65080953Y-51428908D02*
X65080953Y-51714622D01*
X65080953Y-51714622D02*
X65128572Y-51809860D01*
X65128572Y-51809860D02*
X65176191Y-51857480D01*
X65176191Y-51857480D02*
X65271429Y-51905099D01*
X65271429Y-51905099D02*
X65414286Y-51905099D01*
X64652381Y-51238432D02*
X64652381Y-51905099D01*
X64652381Y-51333670D02*
X64604762Y-51286051D01*
X64604762Y-51286051D02*
X64509524Y-51238432D01*
X64509524Y-51238432D02*
X64366667Y-51238432D01*
X64366667Y-51238432D02*
X64271429Y-51286051D01*
X64271429Y-51286051D02*
X64223810Y-51381289D01*
X64223810Y-51381289D02*
X64223810Y-51905099D01*
X63890476Y-51238432D02*
X63509524Y-51238432D01*
X63747619Y-50905099D02*
X63747619Y-51762241D01*
X63747619Y-51762241D02*
X63700000Y-51857480D01*
X63700000Y-51857480D02*
X63604762Y-51905099D01*
X63604762Y-51905099D02*
X63509524Y-51905099D01*
X63176190Y-51905099D02*
X63176190Y-51238432D01*
X63176190Y-51428908D02*
X63128571Y-51333670D01*
X63128571Y-51333670D02*
X63080952Y-51286051D01*
X63080952Y-51286051D02*
X62985714Y-51238432D01*
X62985714Y-51238432D02*
X62890476Y-51238432D01*
X62414285Y-51905099D02*
X62509523Y-51857480D01*
X62509523Y-51857480D02*
X62557142Y-51809860D01*
X62557142Y-51809860D02*
X62604761Y-51714622D01*
X62604761Y-51714622D02*
X62604761Y-51428908D01*
X62604761Y-51428908D02*
X62557142Y-51333670D01*
X62557142Y-51333670D02*
X62509523Y-51286051D01*
X62509523Y-51286051D02*
X62414285Y-51238432D01*
X62414285Y-51238432D02*
X62271428Y-51238432D01*
X62271428Y-51238432D02*
X62176190Y-51286051D01*
X62176190Y-51286051D02*
X62128571Y-51333670D01*
X62128571Y-51333670D02*
X62080952Y-51428908D01*
X62080952Y-51428908D02*
X62080952Y-51714622D01*
X62080952Y-51714622D02*
X62128571Y-51809860D01*
X62128571Y-51809860D02*
X62176190Y-51857480D01*
X62176190Y-51857480D02*
X62271428Y-51905099D01*
X62271428Y-51905099D02*
X62414285Y-51905099D01*
X61509523Y-51905099D02*
X61604761Y-51857480D01*
X61604761Y-51857480D02*
X61652380Y-51762241D01*
X61652380Y-51762241D02*
X61652380Y-50905099D01*
X59890475Y-51905099D02*
X60366665Y-51905099D01*
X60366665Y-51905099D02*
X60366665Y-50905099D01*
X59557141Y-51381289D02*
X59223808Y-51381289D01*
X59080951Y-51905099D02*
X59557141Y-51905099D01*
X59557141Y-51905099D02*
X59557141Y-50905099D01*
X59557141Y-50905099D02*
X59080951Y-50905099D01*
X58652379Y-51905099D02*
X58652379Y-50905099D01*
X58652379Y-50905099D02*
X58414284Y-50905099D01*
X58414284Y-50905099D02*
X58271427Y-50952718D01*
X58271427Y-50952718D02*
X58176189Y-51047956D01*
X58176189Y-51047956D02*
X58128570Y-51143194D01*
X58128570Y-51143194D02*
X58080951Y-51333670D01*
X58080951Y-51333670D02*
X58080951Y-51476527D01*
X58080951Y-51476527D02*
X58128570Y-51667003D01*
X58128570Y-51667003D02*
X58176189Y-51762241D01*
X58176189Y-51762241D02*
X58271427Y-51857480D01*
X58271427Y-51857480D02*
X58414284Y-51905099D01*
X58414284Y-51905099D02*
X58652379Y-51905099D01*
X65080951Y-52515043D02*
X64747618Y-53515043D01*
X64747618Y-53515043D02*
X64414285Y-52515043D01*
X63890475Y-52515043D02*
X63795237Y-52515043D01*
X63795237Y-52515043D02*
X63699999Y-52562662D01*
X63699999Y-52562662D02*
X63652380Y-52610281D01*
X63652380Y-52610281D02*
X63604761Y-52705519D01*
X63604761Y-52705519D02*
X63557142Y-52895995D01*
X63557142Y-52895995D02*
X63557142Y-53134090D01*
X63557142Y-53134090D02*
X63604761Y-53324566D01*
X63604761Y-53324566D02*
X63652380Y-53419804D01*
X63652380Y-53419804D02*
X63699999Y-53467424D01*
X63699999Y-53467424D02*
X63795237Y-53515043D01*
X63795237Y-53515043D02*
X63890475Y-53515043D01*
X63890475Y-53515043D02*
X63985713Y-53467424D01*
X63985713Y-53467424D02*
X64033332Y-53419804D01*
X64033332Y-53419804D02*
X64080951Y-53324566D01*
X64080951Y-53324566D02*
X64128570Y-53134090D01*
X64128570Y-53134090D02*
X64128570Y-52895995D01*
X64128570Y-52895995D02*
X64080951Y-52705519D01*
X64080951Y-52705519D02*
X64033332Y-52610281D01*
X64033332Y-52610281D02*
X63985713Y-52562662D01*
X63985713Y-52562662D02*
X63890475Y-52515043D01*
X63128570Y-53419804D02*
X63080951Y-53467424D01*
X63080951Y-53467424D02*
X63128570Y-53515043D01*
X63128570Y-53515043D02*
X63176189Y-53467424D01*
X63176189Y-53467424D02*
X63128570Y-53419804D01*
X63128570Y-53419804D02*
X63128570Y-53515043D01*
X62128571Y-53515043D02*
X62699999Y-53515043D01*
X62414285Y-53515043D02*
X62414285Y-52515043D01*
X62414285Y-52515043D02*
X62509523Y-52657900D01*
X62509523Y-52657900D02*
X62604761Y-52753138D01*
X62604761Y-52753138D02*
X62699999Y-52800757D01*
X60366666Y-53515043D02*
X60699999Y-53038852D01*
X60938094Y-53515043D02*
X60938094Y-52515043D01*
X60938094Y-52515043D02*
X60557142Y-52515043D01*
X60557142Y-52515043D02*
X60461904Y-52562662D01*
X60461904Y-52562662D02*
X60414285Y-52610281D01*
X60414285Y-52610281D02*
X60366666Y-52705519D01*
X60366666Y-52705519D02*
X60366666Y-52848376D01*
X60366666Y-52848376D02*
X60414285Y-52943614D01*
X60414285Y-52943614D02*
X60461904Y-52991233D01*
X60461904Y-52991233D02*
X60557142Y-53038852D01*
X60557142Y-53038852D02*
X60938094Y-53038852D01*
X59985713Y-52610281D02*
X59938094Y-52562662D01*
X59938094Y-52562662D02*
X59842856Y-52515043D01*
X59842856Y-52515043D02*
X59604761Y-52515043D01*
X59604761Y-52515043D02*
X59509523Y-52562662D01*
X59509523Y-52562662D02*
X59461904Y-52610281D01*
X59461904Y-52610281D02*
X59414285Y-52705519D01*
X59414285Y-52705519D02*
X59414285Y-52800757D01*
X59414285Y-52800757D02*
X59461904Y-52943614D01*
X59461904Y-52943614D02*
X60033332Y-53515043D01*
X60033332Y-53515043D02*
X59414285Y-53515043D01*
X68438094Y-54458320D02*
X68247618Y-55124987D01*
X68247618Y-55124987D02*
X68057142Y-54648796D01*
X68057142Y-54648796D02*
X67866666Y-55124987D01*
X67866666Y-55124987D02*
X67676190Y-54458320D01*
X67390475Y-54458320D02*
X67199999Y-55124987D01*
X67199999Y-55124987D02*
X67009523Y-54648796D01*
X67009523Y-54648796D02*
X66819047Y-55124987D01*
X66819047Y-55124987D02*
X66628571Y-54458320D01*
X66342856Y-54458320D02*
X66152380Y-55124987D01*
X66152380Y-55124987D02*
X65961904Y-54648796D01*
X65961904Y-54648796D02*
X65771428Y-55124987D01*
X65771428Y-55124987D02*
X65580952Y-54458320D01*
X65199999Y-55029748D02*
X65152380Y-55077368D01*
X65152380Y-55077368D02*
X65199999Y-55124987D01*
X65199999Y-55124987D02*
X65247618Y-55077368D01*
X65247618Y-55077368D02*
X65199999Y-55029748D01*
X65199999Y-55029748D02*
X65199999Y-55124987D01*
X64723809Y-55124987D02*
X64723809Y-54458320D01*
X64723809Y-54124987D02*
X64771428Y-54172606D01*
X64771428Y-54172606D02*
X64723809Y-54220225D01*
X64723809Y-54220225D02*
X64676190Y-54172606D01*
X64676190Y-54172606D02*
X64723809Y-54124987D01*
X64723809Y-54124987D02*
X64723809Y-54220225D01*
X64104762Y-55124987D02*
X64200000Y-55077368D01*
X64200000Y-55077368D02*
X64247619Y-55029748D01*
X64247619Y-55029748D02*
X64295238Y-54934510D01*
X64295238Y-54934510D02*
X64295238Y-54648796D01*
X64295238Y-54648796D02*
X64247619Y-54553558D01*
X64247619Y-54553558D02*
X64200000Y-54505939D01*
X64200000Y-54505939D02*
X64104762Y-54458320D01*
X64104762Y-54458320D02*
X63961905Y-54458320D01*
X63961905Y-54458320D02*
X63866667Y-54505939D01*
X63866667Y-54505939D02*
X63819048Y-54553558D01*
X63819048Y-54553558D02*
X63771429Y-54648796D01*
X63771429Y-54648796D02*
X63771429Y-54934510D01*
X63771429Y-54934510D02*
X63819048Y-55029748D01*
X63819048Y-55029748D02*
X63866667Y-55077368D01*
X63866667Y-55077368D02*
X63961905Y-55124987D01*
X63961905Y-55124987D02*
X64104762Y-55124987D01*
X63342857Y-55124987D02*
X63342857Y-54458320D01*
X63342857Y-54648796D02*
X63295238Y-54553558D01*
X63295238Y-54553558D02*
X63247619Y-54505939D01*
X63247619Y-54505939D02*
X63152381Y-54458320D01*
X63152381Y-54458320D02*
X63057143Y-54458320D01*
X62580952Y-55124987D02*
X62676190Y-55077368D01*
X62676190Y-55077368D02*
X62723809Y-55029748D01*
X62723809Y-55029748D02*
X62771428Y-54934510D01*
X62771428Y-54934510D02*
X62771428Y-54648796D01*
X62771428Y-54648796D02*
X62723809Y-54553558D01*
X62723809Y-54553558D02*
X62676190Y-54505939D01*
X62676190Y-54505939D02*
X62580952Y-54458320D01*
X62580952Y-54458320D02*
X62438095Y-54458320D01*
X62438095Y-54458320D02*
X62342857Y-54505939D01*
X62342857Y-54505939D02*
X62295238Y-54553558D01*
X62295238Y-54553558D02*
X62247619Y-54648796D01*
X62247619Y-54648796D02*
X62247619Y-54934510D01*
X62247619Y-54934510D02*
X62295238Y-55029748D01*
X62295238Y-55029748D02*
X62342857Y-55077368D01*
X62342857Y-55077368D02*
X62438095Y-55124987D01*
X62438095Y-55124987D02*
X62580952Y-55124987D01*
X61390476Y-55124987D02*
X61390476Y-54124987D01*
X61390476Y-55077368D02*
X61485714Y-55124987D01*
X61485714Y-55124987D02*
X61676190Y-55124987D01*
X61676190Y-55124987D02*
X61771428Y-55077368D01*
X61771428Y-55077368D02*
X61819047Y-55029748D01*
X61819047Y-55029748D02*
X61866666Y-54934510D01*
X61866666Y-54934510D02*
X61866666Y-54648796D01*
X61866666Y-54648796D02*
X61819047Y-54553558D01*
X61819047Y-54553558D02*
X61771428Y-54505939D01*
X61771428Y-54505939D02*
X61676190Y-54458320D01*
X61676190Y-54458320D02*
X61485714Y-54458320D01*
X61485714Y-54458320D02*
X61390476Y-54505939D01*
X60533333Y-55077368D02*
X60628571Y-55124987D01*
X60628571Y-55124987D02*
X60819047Y-55124987D01*
X60819047Y-55124987D02*
X60914285Y-55077368D01*
X60914285Y-55077368D02*
X60961904Y-54982129D01*
X60961904Y-54982129D02*
X60961904Y-54601177D01*
X60961904Y-54601177D02*
X60914285Y-54505939D01*
X60914285Y-54505939D02*
X60819047Y-54458320D01*
X60819047Y-54458320D02*
X60628571Y-54458320D01*
X60628571Y-54458320D02*
X60533333Y-54505939D01*
X60533333Y-54505939D02*
X60485714Y-54601177D01*
X60485714Y-54601177D02*
X60485714Y-54696415D01*
X60485714Y-54696415D02*
X60961904Y-54791653D01*
X59914285Y-55124987D02*
X60009523Y-55077368D01*
X60009523Y-55077368D02*
X60057142Y-55029748D01*
X60057142Y-55029748D02*
X60104761Y-54934510D01*
X60104761Y-54934510D02*
X60104761Y-54648796D01*
X60104761Y-54648796D02*
X60057142Y-54553558D01*
X60057142Y-54553558D02*
X60009523Y-54505939D01*
X60009523Y-54505939D02*
X59914285Y-54458320D01*
X59914285Y-54458320D02*
X59771428Y-54458320D01*
X59771428Y-54458320D02*
X59676190Y-54505939D01*
X59676190Y-54505939D02*
X59628571Y-54553558D01*
X59628571Y-54553558D02*
X59580952Y-54648796D01*
X59580952Y-54648796D02*
X59580952Y-54934510D01*
X59580952Y-54934510D02*
X59628571Y-55029748D01*
X59628571Y-55029748D02*
X59676190Y-55077368D01*
X59676190Y-55077368D02*
X59771428Y-55124987D01*
X59771428Y-55124987D02*
X59914285Y-55124987D01*
X59152380Y-55029748D02*
X59104761Y-55077368D01*
X59104761Y-55077368D02*
X59152380Y-55124987D01*
X59152380Y-55124987D02*
X59199999Y-55077368D01*
X59199999Y-55077368D02*
X59152380Y-55029748D01*
X59152380Y-55029748D02*
X59152380Y-55124987D01*
X58247619Y-55077368D02*
X58342857Y-55124987D01*
X58342857Y-55124987D02*
X58533333Y-55124987D01*
X58533333Y-55124987D02*
X58628571Y-55077368D01*
X58628571Y-55077368D02*
X58676190Y-55029748D01*
X58676190Y-55029748D02*
X58723809Y-54934510D01*
X58723809Y-54934510D02*
X58723809Y-54648796D01*
X58723809Y-54648796D02*
X58676190Y-54553558D01*
X58676190Y-54553558D02*
X58628571Y-54505939D01*
X58628571Y-54505939D02*
X58533333Y-54458320D01*
X58533333Y-54458320D02*
X58342857Y-54458320D01*
X58342857Y-54458320D02*
X58247619Y-54505939D01*
X57676190Y-55124987D02*
X57771428Y-55077368D01*
X57771428Y-55077368D02*
X57819047Y-55029748D01*
X57819047Y-55029748D02*
X57866666Y-54934510D01*
X57866666Y-54934510D02*
X57866666Y-54648796D01*
X57866666Y-54648796D02*
X57819047Y-54553558D01*
X57819047Y-54553558D02*
X57771428Y-54505939D01*
X57771428Y-54505939D02*
X57676190Y-54458320D01*
X57676190Y-54458320D02*
X57533333Y-54458320D01*
X57533333Y-54458320D02*
X57438095Y-54505939D01*
X57438095Y-54505939D02*
X57390476Y-54553558D01*
X57390476Y-54553558D02*
X57342857Y-54648796D01*
X57342857Y-54648796D02*
X57342857Y-54934510D01*
X57342857Y-54934510D02*
X57390476Y-55029748D01*
X57390476Y-55029748D02*
X57438095Y-55077368D01*
X57438095Y-55077368D02*
X57533333Y-55124987D01*
X57533333Y-55124987D02*
X57676190Y-55124987D01*
X56914285Y-55124987D02*
X56914285Y-54458320D01*
X56914285Y-54553558D02*
X56866666Y-54505939D01*
X56866666Y-54505939D02*
X56771428Y-54458320D01*
X56771428Y-54458320D02*
X56628571Y-54458320D01*
X56628571Y-54458320D02*
X56533333Y-54505939D01*
X56533333Y-54505939D02*
X56485714Y-54601177D01*
X56485714Y-54601177D02*
X56485714Y-55124987D01*
X56485714Y-54601177D02*
X56438095Y-54505939D01*
X56438095Y-54505939D02*
X56342857Y-54458320D01*
X56342857Y-54458320D02*
X56200000Y-54458320D01*
X56200000Y-54458320D02*
X56104761Y-54505939D01*
X56104761Y-54505939D02*
X56057142Y-54601177D01*
X56057142Y-54601177D02*
X56057142Y-55124987D01*
X68985713Y-66346976D02*
X68842856Y-66394595D01*
X68842856Y-66394595D02*
X68604761Y-66394595D01*
X68604761Y-66394595D02*
X68509523Y-66346976D01*
X68509523Y-66346976D02*
X68461904Y-66299356D01*
X68461904Y-66299356D02*
X68414285Y-66204118D01*
X68414285Y-66204118D02*
X68414285Y-66108880D01*
X68414285Y-66108880D02*
X68461904Y-66013642D01*
X68461904Y-66013642D02*
X68509523Y-65966023D01*
X68509523Y-65966023D02*
X68604761Y-65918404D01*
X68604761Y-65918404D02*
X68795237Y-65870785D01*
X68795237Y-65870785D02*
X68890475Y-65823166D01*
X68890475Y-65823166D02*
X68938094Y-65775547D01*
X68938094Y-65775547D02*
X68985713Y-65680309D01*
X68985713Y-65680309D02*
X68985713Y-65585071D01*
X68985713Y-65585071D02*
X68938094Y-65489833D01*
X68938094Y-65489833D02*
X68890475Y-65442214D01*
X68890475Y-65442214D02*
X68795237Y-65394595D01*
X68795237Y-65394595D02*
X68557142Y-65394595D01*
X68557142Y-65394595D02*
X68414285Y-65442214D01*
X67985713Y-66394595D02*
X67985713Y-65394595D01*
X67985713Y-65394595D02*
X67652380Y-66108880D01*
X67652380Y-66108880D02*
X67319047Y-65394595D01*
X67319047Y-65394595D02*
X67319047Y-66394595D01*
X66842856Y-66394595D02*
X66842856Y-65394595D01*
X66842856Y-65394595D02*
X66604761Y-65394595D01*
X66604761Y-65394595D02*
X66461904Y-65442214D01*
X66461904Y-65442214D02*
X66366666Y-65537452D01*
X66366666Y-65537452D02*
X66319047Y-65632690D01*
X66319047Y-65632690D02*
X66271428Y-65823166D01*
X66271428Y-65823166D02*
X66271428Y-65966023D01*
X66271428Y-65966023D02*
X66319047Y-66156499D01*
X66319047Y-66156499D02*
X66366666Y-66251737D01*
X66366666Y-66251737D02*
X66461904Y-66346976D01*
X66461904Y-66346976D02*
X66604761Y-66394595D01*
X66604761Y-66394595D02*
X66842856Y-66394595D01*
X65652380Y-65394595D02*
X65557142Y-65394595D01*
X65557142Y-65394595D02*
X65461904Y-65442214D01*
X65461904Y-65442214D02*
X65414285Y-65489833D01*
X65414285Y-65489833D02*
X65366666Y-65585071D01*
X65366666Y-65585071D02*
X65319047Y-65775547D01*
X65319047Y-65775547D02*
X65319047Y-66013642D01*
X65319047Y-66013642D02*
X65366666Y-66204118D01*
X65366666Y-66204118D02*
X65414285Y-66299356D01*
X65414285Y-66299356D02*
X65461904Y-66346976D01*
X65461904Y-66346976D02*
X65557142Y-66394595D01*
X65557142Y-66394595D02*
X65652380Y-66394595D01*
X65652380Y-66394595D02*
X65747618Y-66346976D01*
X65747618Y-66346976D02*
X65795237Y-66299356D01*
X65795237Y-66299356D02*
X65842856Y-66204118D01*
X65842856Y-66204118D02*
X65890475Y-66013642D01*
X65890475Y-66013642D02*
X65890475Y-65775547D01*
X65890475Y-65775547D02*
X65842856Y-65585071D01*
X65842856Y-65585071D02*
X65795237Y-65489833D01*
X65795237Y-65489833D02*
X65747618Y-65442214D01*
X65747618Y-65442214D02*
X65652380Y-65394595D01*
X64461904Y-65394595D02*
X64652380Y-65394595D01*
X64652380Y-65394595D02*
X64747618Y-65442214D01*
X64747618Y-65442214D02*
X64795237Y-65489833D01*
X64795237Y-65489833D02*
X64890475Y-65632690D01*
X64890475Y-65632690D02*
X64938094Y-65823166D01*
X64938094Y-65823166D02*
X64938094Y-66204118D01*
X64938094Y-66204118D02*
X64890475Y-66299356D01*
X64890475Y-66299356D02*
X64842856Y-66346976D01*
X64842856Y-66346976D02*
X64747618Y-66394595D01*
X64747618Y-66394595D02*
X64557142Y-66394595D01*
X64557142Y-66394595D02*
X64461904Y-66346976D01*
X64461904Y-66346976D02*
X64414285Y-66299356D01*
X64414285Y-66299356D02*
X64366666Y-66204118D01*
X64366666Y-66204118D02*
X64366666Y-65966023D01*
X64366666Y-65966023D02*
X64414285Y-65870785D01*
X64414285Y-65870785D02*
X64461904Y-65823166D01*
X64461904Y-65823166D02*
X64557142Y-65775547D01*
X64557142Y-65775547D02*
X64747618Y-65775547D01*
X64747618Y-65775547D02*
X64842856Y-65823166D01*
X64842856Y-65823166D02*
X64890475Y-65870785D01*
X64890475Y-65870785D02*
X64938094Y-65966023D01*
X63747618Y-65394595D02*
X63652380Y-65394595D01*
X63652380Y-65394595D02*
X63557142Y-65442214D01*
X63557142Y-65442214D02*
X63509523Y-65489833D01*
X63509523Y-65489833D02*
X63461904Y-65585071D01*
X63461904Y-65585071D02*
X63414285Y-65775547D01*
X63414285Y-65775547D02*
X63414285Y-66013642D01*
X63414285Y-66013642D02*
X63461904Y-66204118D01*
X63461904Y-66204118D02*
X63509523Y-66299356D01*
X63509523Y-66299356D02*
X63557142Y-66346976D01*
X63557142Y-66346976D02*
X63652380Y-66394595D01*
X63652380Y-66394595D02*
X63747618Y-66394595D01*
X63747618Y-66394595D02*
X63842856Y-66346976D01*
X63842856Y-66346976D02*
X63890475Y-66299356D01*
X63890475Y-66299356D02*
X63938094Y-66204118D01*
X63938094Y-66204118D02*
X63985713Y-66013642D01*
X63985713Y-66013642D02*
X63985713Y-65775547D01*
X63985713Y-65775547D02*
X63938094Y-65585071D01*
X63938094Y-65585071D02*
X63890475Y-65489833D01*
X63890475Y-65489833D02*
X63842856Y-65442214D01*
X63842856Y-65442214D02*
X63747618Y-65394595D01*
X63080951Y-65394595D02*
X62461904Y-65394595D01*
X62461904Y-65394595D02*
X62795237Y-65775547D01*
X62795237Y-65775547D02*
X62652380Y-65775547D01*
X62652380Y-65775547D02*
X62557142Y-65823166D01*
X62557142Y-65823166D02*
X62509523Y-65870785D01*
X62509523Y-65870785D02*
X62461904Y-65966023D01*
X62461904Y-65966023D02*
X62461904Y-66204118D01*
X62461904Y-66204118D02*
X62509523Y-66299356D01*
X62509523Y-66299356D02*
X62557142Y-66346976D01*
X62557142Y-66346976D02*
X62652380Y-66394595D01*
X62652380Y-66394595D02*
X62938094Y-66394595D01*
X62938094Y-66394595D02*
X63033332Y-66346976D01*
X63033332Y-66346976D02*
X63080951Y-66299356D01*
X61985713Y-66346976D02*
X61985713Y-66394595D01*
X61985713Y-66394595D02*
X62033332Y-66489833D01*
X62033332Y-66489833D02*
X62080951Y-66537452D01*
X60795237Y-66394595D02*
X60795237Y-65394595D01*
X60319047Y-65870785D02*
X59557143Y-65870785D01*
X59557143Y-66156499D02*
X60319047Y-66156499D01*
X58557143Y-66394595D02*
X59128571Y-66394595D01*
X58842857Y-66394595D02*
X58842857Y-65394595D01*
X58842857Y-65394595D02*
X58938095Y-65537452D01*
X58938095Y-65537452D02*
X59033333Y-65632690D01*
X59033333Y-65632690D02*
X59128571Y-65680309D01*
X57700000Y-65394595D02*
X57890476Y-65394595D01*
X57890476Y-65394595D02*
X57985714Y-65442214D01*
X57985714Y-65442214D02*
X58033333Y-65489833D01*
X58033333Y-65489833D02*
X58128571Y-65632690D01*
X58128571Y-65632690D02*
X58176190Y-65823166D01*
X58176190Y-65823166D02*
X58176190Y-66204118D01*
X58176190Y-66204118D02*
X58128571Y-66299356D01*
X58128571Y-66299356D02*
X58080952Y-66346976D01*
X58080952Y-66346976D02*
X57985714Y-66394595D01*
X57985714Y-66394595D02*
X57795238Y-66394595D01*
X57795238Y-66394595D02*
X57700000Y-66346976D01*
X57700000Y-66346976D02*
X57652381Y-66299356D01*
X57652381Y-66299356D02*
X57604762Y-66204118D01*
X57604762Y-66204118D02*
X57604762Y-65966023D01*
X57604762Y-65966023D02*
X57652381Y-65870785D01*
X57652381Y-65870785D02*
X57700000Y-65823166D01*
X57700000Y-65823166D02*
X57795238Y-65775547D01*
X57795238Y-65775547D02*
X57985714Y-65775547D01*
X57985714Y-65775547D02*
X58080952Y-65823166D01*
X58080952Y-65823166D02*
X58128571Y-65870785D01*
X58128571Y-65870785D02*
X58176190Y-65966023D01*
X57176190Y-66394595D02*
X57176190Y-65727928D01*
X57176190Y-65823166D02*
X57128571Y-65775547D01*
X57128571Y-65775547D02*
X57033333Y-65727928D01*
X57033333Y-65727928D02*
X56890476Y-65727928D01*
X56890476Y-65727928D02*
X56795238Y-65775547D01*
X56795238Y-65775547D02*
X56747619Y-65870785D01*
X56747619Y-65870785D02*
X56747619Y-66394595D01*
X56747619Y-65870785D02*
X56700000Y-65775547D01*
X56700000Y-65775547D02*
X56604762Y-65727928D01*
X56604762Y-65727928D02*
X56461905Y-65727928D01*
X56461905Y-65727928D02*
X56366666Y-65775547D01*
X56366666Y-65775547D02*
X56319047Y-65870785D01*
X56319047Y-65870785D02*
X56319047Y-66394595D01*
X55890476Y-66108880D02*
X55414286Y-66108880D01*
X55985714Y-66394595D02*
X55652381Y-65394595D01*
X55652381Y-65394595D02*
X55319048Y-66394595D01*
X67271427Y-67004539D02*
X66938094Y-68004539D01*
X66938094Y-68004539D02*
X66604761Y-67004539D01*
X66271427Y-68004539D02*
X66271427Y-67337872D01*
X66271427Y-67004539D02*
X66319046Y-67052158D01*
X66319046Y-67052158D02*
X66271427Y-67099777D01*
X66271427Y-67099777D02*
X66223808Y-67052158D01*
X66223808Y-67052158D02*
X66271427Y-67004539D01*
X66271427Y-67004539D02*
X66271427Y-67099777D01*
X65795237Y-67337872D02*
X65795237Y-68004539D01*
X65795237Y-67433110D02*
X65747618Y-67385491D01*
X65747618Y-67385491D02*
X65652380Y-67337872D01*
X65652380Y-67337872D02*
X65509523Y-67337872D01*
X65509523Y-67337872D02*
X65414285Y-67385491D01*
X65414285Y-67385491D02*
X65366666Y-67480729D01*
X65366666Y-67480729D02*
X65366666Y-68004539D01*
X64890475Y-67480729D02*
X64128571Y-67480729D01*
X64128571Y-67766443D02*
X64890475Y-67766443D01*
X63747618Y-67004539D02*
X63128571Y-67004539D01*
X63128571Y-67004539D02*
X63461904Y-67385491D01*
X63461904Y-67385491D02*
X63319047Y-67385491D01*
X63319047Y-67385491D02*
X63223809Y-67433110D01*
X63223809Y-67433110D02*
X63176190Y-67480729D01*
X63176190Y-67480729D02*
X63128571Y-67575967D01*
X63128571Y-67575967D02*
X63128571Y-67814062D01*
X63128571Y-67814062D02*
X63176190Y-67909300D01*
X63176190Y-67909300D02*
X63223809Y-67956920D01*
X63223809Y-67956920D02*
X63319047Y-68004539D01*
X63319047Y-68004539D02*
X63604761Y-68004539D01*
X63604761Y-68004539D02*
X63699999Y-67956920D01*
X63699999Y-67956920D02*
X63747618Y-67909300D01*
X62699999Y-67909300D02*
X62652380Y-67956920D01*
X62652380Y-67956920D02*
X62699999Y-68004539D01*
X62699999Y-68004539D02*
X62747618Y-67956920D01*
X62747618Y-67956920D02*
X62699999Y-67909300D01*
X62699999Y-67909300D02*
X62699999Y-68004539D01*
X62319047Y-67004539D02*
X61700000Y-67004539D01*
X61700000Y-67004539D02*
X62033333Y-67385491D01*
X62033333Y-67385491D02*
X61890476Y-67385491D01*
X61890476Y-67385491D02*
X61795238Y-67433110D01*
X61795238Y-67433110D02*
X61747619Y-67480729D01*
X61747619Y-67480729D02*
X61700000Y-67575967D01*
X61700000Y-67575967D02*
X61700000Y-67814062D01*
X61700000Y-67814062D02*
X61747619Y-67909300D01*
X61747619Y-67909300D02*
X61795238Y-67956920D01*
X61795238Y-67956920D02*
X61890476Y-68004539D01*
X61890476Y-68004539D02*
X62176190Y-68004539D01*
X62176190Y-68004539D02*
X62271428Y-67956920D01*
X62271428Y-67956920D02*
X62319047Y-67909300D01*
X61271428Y-67623586D02*
X60509524Y-67623586D01*
X59557143Y-67004539D02*
X60033333Y-67004539D01*
X60033333Y-67004539D02*
X60080952Y-67480729D01*
X60080952Y-67480729D02*
X60033333Y-67433110D01*
X60033333Y-67433110D02*
X59938095Y-67385491D01*
X59938095Y-67385491D02*
X59700000Y-67385491D01*
X59700000Y-67385491D02*
X59604762Y-67433110D01*
X59604762Y-67433110D02*
X59557143Y-67480729D01*
X59557143Y-67480729D02*
X59509524Y-67575967D01*
X59509524Y-67575967D02*
X59509524Y-67814062D01*
X59509524Y-67814062D02*
X59557143Y-67909300D01*
X59557143Y-67909300D02*
X59604762Y-67956920D01*
X59604762Y-67956920D02*
X59700000Y-68004539D01*
X59700000Y-68004539D02*
X59938095Y-68004539D01*
X59938095Y-68004539D02*
X60033333Y-67956920D01*
X60033333Y-67956920D02*
X60080952Y-67909300D01*
X59080952Y-67909300D02*
X59033333Y-67956920D01*
X59033333Y-67956920D02*
X59080952Y-68004539D01*
X59080952Y-68004539D02*
X59128571Y-67956920D01*
X59128571Y-67956920D02*
X59080952Y-67909300D01*
X59080952Y-67909300D02*
X59080952Y-68004539D01*
X58414286Y-67004539D02*
X58319048Y-67004539D01*
X58319048Y-67004539D02*
X58223810Y-67052158D01*
X58223810Y-67052158D02*
X58176191Y-67099777D01*
X58176191Y-67099777D02*
X58128572Y-67195015D01*
X58128572Y-67195015D02*
X58080953Y-67385491D01*
X58080953Y-67385491D02*
X58080953Y-67623586D01*
X58080953Y-67623586D02*
X58128572Y-67814062D01*
X58128572Y-67814062D02*
X58176191Y-67909300D01*
X58176191Y-67909300D02*
X58223810Y-67956920D01*
X58223810Y-67956920D02*
X58319048Y-68004539D01*
X58319048Y-68004539D02*
X58414286Y-68004539D01*
X58414286Y-68004539D02*
X58509524Y-67956920D01*
X58509524Y-67956920D02*
X58557143Y-67909300D01*
X58557143Y-67909300D02*
X58604762Y-67814062D01*
X58604762Y-67814062D02*
X58652381Y-67623586D01*
X58652381Y-67623586D02*
X58652381Y-67385491D01*
X58652381Y-67385491D02*
X58604762Y-67195015D01*
X58604762Y-67195015D02*
X58557143Y-67099777D01*
X58557143Y-67099777D02*
X58509524Y-67052158D01*
X58509524Y-67052158D02*
X58414286Y-67004539D01*
X57795238Y-67004539D02*
X57461905Y-68004539D01*
X57461905Y-68004539D02*
X57128572Y-67004539D01*
D11*
X69202300Y-55500000D02*
X74777600Y-55500000D01*
X74777600Y-64500000D01*
X69202300Y-64500000D01*
X69202300Y-55500000D01*
G36*
X69202300Y-55500000D02*
G01*
X74777600Y-55500000D01*
X74777600Y-64500000D01*
X69202300Y-64500000D01*
X69202300Y-55500000D01*
G37*
D10*
%TO.C,M1*%
X54990000Y-52540000D02*
G75*
G02*
X50090000Y-52540000I-2450000J0D01*
G01*
X50090000Y-52540000D02*
G75*
G02*
X54990000Y-52540000I2450000J0D01*
G01*
%TO.C,M2*%
X75310000Y-52540000D02*
G75*
G02*
X70410000Y-52540000I-2450000J0D01*
G01*
X70410000Y-52540000D02*
G75*
G02*
X75310000Y-52540000I2450000J0D01*
G01*
%TO.C,M3*%
X75310000Y-67460000D02*
G75*
G02*
X70410000Y-67460000I-2450000J0D01*
G01*
X70410000Y-67460000D02*
G75*
G02*
X75310000Y-67460000I2450000J0D01*
G01*
%TO.C,M4*%
X54990000Y-67460000D02*
G75*
G02*
X50090000Y-67460000I-2450000J0D01*
G01*
X50090000Y-67460000D02*
G75*
G02*
X54990000Y-67460000I2450000J0D01*
G01*
%TD*%
M02*
