%TF.GenerationSoftware,KiCad,Pcbnew,9.0.1-9.0.1-0~ubuntu22.04.1*%
%TF.CreationDate,2025-09-19T12:09:01-07:00*%
%TF.ProjectId,SMD0603_16mA,534d4430-3630-4335-9f31-366d412e6b69,rev?*%
%TF.SameCoordinates,Original*%
%TF.FileFunction,Legend,Bot*%
%TF.FilePolarity,Positive*%
%FSLAX46Y46*%
G04 Gerber Fmt 4.6, Leading zero omitted, Abs format (unit mm)*
G04 Created by KiCad (PCBNEW 9.0.1-9.0.1-0~ubuntu22.04.1) date 2025-09-19 12:09:01*
%MOMM*%
%LPD*%
G01*
G04 APERTURE LIST*
%ADD10C,0.120000*%
%ADD11C,0.150000*%
G04 APERTURE END LIST*
D10*
X69202300Y-55500000D02*
X74777600Y-55500000D01*
X74777600Y-64500000D01*
X69202300Y-64500000D01*
X69202300Y-55500000D01*
G36*
X69202300Y-55500000D02*
G01*
X74777600Y-55500000D01*
X74777600Y-64500000D01*
X69202300Y-64500000D01*
X69202300Y-55500000D01*
G37*
D11*
X67533333Y-51610127D02*
X67533333Y-50610127D01*
X66485715Y-51514888D02*
X66533334Y-51562508D01*
X66533334Y-51562508D02*
X66676191Y-51610127D01*
X66676191Y-51610127D02*
X66771429Y-51610127D01*
X66771429Y-51610127D02*
X66914286Y-51562508D01*
X66914286Y-51562508D02*
X67009524Y-51467269D01*
X67009524Y-51467269D02*
X67057143Y-51372031D01*
X67057143Y-51372031D02*
X67104762Y-51181555D01*
X67104762Y-51181555D02*
X67104762Y-51038698D01*
X67104762Y-51038698D02*
X67057143Y-50848222D01*
X67057143Y-50848222D02*
X67009524Y-50752984D01*
X67009524Y-50752984D02*
X66914286Y-50657746D01*
X66914286Y-50657746D02*
X66771429Y-50610127D01*
X66771429Y-50610127D02*
X66676191Y-50610127D01*
X66676191Y-50610127D02*
X66533334Y-50657746D01*
X66533334Y-50657746D02*
X66485715Y-50705365D01*
X65914286Y-51610127D02*
X66009524Y-51562508D01*
X66009524Y-51562508D02*
X66057143Y-51514888D01*
X66057143Y-51514888D02*
X66104762Y-51419650D01*
X66104762Y-51419650D02*
X66104762Y-51133936D01*
X66104762Y-51133936D02*
X66057143Y-51038698D01*
X66057143Y-51038698D02*
X66009524Y-50991079D01*
X66009524Y-50991079D02*
X65914286Y-50943460D01*
X65914286Y-50943460D02*
X65771429Y-50943460D01*
X65771429Y-50943460D02*
X65676191Y-50991079D01*
X65676191Y-50991079D02*
X65628572Y-51038698D01*
X65628572Y-51038698D02*
X65580953Y-51133936D01*
X65580953Y-51133936D02*
X65580953Y-51419650D01*
X65580953Y-51419650D02*
X65628572Y-51514888D01*
X65628572Y-51514888D02*
X65676191Y-51562508D01*
X65676191Y-51562508D02*
X65771429Y-51610127D01*
X65771429Y-51610127D02*
X65914286Y-51610127D01*
X65152381Y-50943460D02*
X65152381Y-51610127D01*
X65152381Y-51038698D02*
X65104762Y-50991079D01*
X65104762Y-50991079D02*
X65009524Y-50943460D01*
X65009524Y-50943460D02*
X64866667Y-50943460D01*
X64866667Y-50943460D02*
X64771429Y-50991079D01*
X64771429Y-50991079D02*
X64723810Y-51086317D01*
X64723810Y-51086317D02*
X64723810Y-51610127D01*
X64390476Y-50943460D02*
X64009524Y-50943460D01*
X64247619Y-50610127D02*
X64247619Y-51467269D01*
X64247619Y-51467269D02*
X64200000Y-51562508D01*
X64200000Y-51562508D02*
X64104762Y-51610127D01*
X64104762Y-51610127D02*
X64009524Y-51610127D01*
X63676190Y-51610127D02*
X63676190Y-50943460D01*
X63676190Y-51133936D02*
X63628571Y-51038698D01*
X63628571Y-51038698D02*
X63580952Y-50991079D01*
X63580952Y-50991079D02*
X63485714Y-50943460D01*
X63485714Y-50943460D02*
X63390476Y-50943460D01*
X62914285Y-51610127D02*
X63009523Y-51562508D01*
X63009523Y-51562508D02*
X63057142Y-51514888D01*
X63057142Y-51514888D02*
X63104761Y-51419650D01*
X63104761Y-51419650D02*
X63104761Y-51133936D01*
X63104761Y-51133936D02*
X63057142Y-51038698D01*
X63057142Y-51038698D02*
X63009523Y-50991079D01*
X63009523Y-50991079D02*
X62914285Y-50943460D01*
X62914285Y-50943460D02*
X62771428Y-50943460D01*
X62771428Y-50943460D02*
X62676190Y-50991079D01*
X62676190Y-50991079D02*
X62628571Y-51038698D01*
X62628571Y-51038698D02*
X62580952Y-51133936D01*
X62580952Y-51133936D02*
X62580952Y-51419650D01*
X62580952Y-51419650D02*
X62628571Y-51514888D01*
X62628571Y-51514888D02*
X62676190Y-51562508D01*
X62676190Y-51562508D02*
X62771428Y-51610127D01*
X62771428Y-51610127D02*
X62914285Y-51610127D01*
X62009523Y-51610127D02*
X62104761Y-51562508D01*
X62104761Y-51562508D02*
X62152380Y-51467269D01*
X62152380Y-51467269D02*
X62152380Y-50610127D01*
X60390475Y-51610127D02*
X60866665Y-51610127D01*
X60866665Y-51610127D02*
X60866665Y-50610127D01*
X60057141Y-51086317D02*
X59723808Y-51086317D01*
X59580951Y-51610127D02*
X60057141Y-51610127D01*
X60057141Y-51610127D02*
X60057141Y-50610127D01*
X60057141Y-50610127D02*
X59580951Y-50610127D01*
X59152379Y-51610127D02*
X59152379Y-50610127D01*
X59152379Y-50610127D02*
X58914284Y-50610127D01*
X58914284Y-50610127D02*
X58771427Y-50657746D01*
X58771427Y-50657746D02*
X58676189Y-50752984D01*
X58676189Y-50752984D02*
X58628570Y-50848222D01*
X58628570Y-50848222D02*
X58580951Y-51038698D01*
X58580951Y-51038698D02*
X58580951Y-51181555D01*
X58580951Y-51181555D02*
X58628570Y-51372031D01*
X58628570Y-51372031D02*
X58676189Y-51467269D01*
X58676189Y-51467269D02*
X58771427Y-51562508D01*
X58771427Y-51562508D02*
X58914284Y-51610127D01*
X58914284Y-51610127D02*
X59152379Y-51610127D01*
X65580951Y-52220071D02*
X65247618Y-53220071D01*
X65247618Y-53220071D02*
X64914285Y-52220071D01*
X64390475Y-52220071D02*
X64295237Y-52220071D01*
X64295237Y-52220071D02*
X64199999Y-52267690D01*
X64199999Y-52267690D02*
X64152380Y-52315309D01*
X64152380Y-52315309D02*
X64104761Y-52410547D01*
X64104761Y-52410547D02*
X64057142Y-52601023D01*
X64057142Y-52601023D02*
X64057142Y-52839118D01*
X64057142Y-52839118D02*
X64104761Y-53029594D01*
X64104761Y-53029594D02*
X64152380Y-53124832D01*
X64152380Y-53124832D02*
X64199999Y-53172452D01*
X64199999Y-53172452D02*
X64295237Y-53220071D01*
X64295237Y-53220071D02*
X64390475Y-53220071D01*
X64390475Y-53220071D02*
X64485713Y-53172452D01*
X64485713Y-53172452D02*
X64533332Y-53124832D01*
X64533332Y-53124832D02*
X64580951Y-53029594D01*
X64580951Y-53029594D02*
X64628570Y-52839118D01*
X64628570Y-52839118D02*
X64628570Y-52601023D01*
X64628570Y-52601023D02*
X64580951Y-52410547D01*
X64580951Y-52410547D02*
X64533332Y-52315309D01*
X64533332Y-52315309D02*
X64485713Y-52267690D01*
X64485713Y-52267690D02*
X64390475Y-52220071D01*
X63628570Y-53124832D02*
X63580951Y-53172452D01*
X63580951Y-53172452D02*
X63628570Y-53220071D01*
X63628570Y-53220071D02*
X63676189Y-53172452D01*
X63676189Y-53172452D02*
X63628570Y-53124832D01*
X63628570Y-53124832D02*
X63628570Y-53220071D01*
X62628571Y-53220071D02*
X63199999Y-53220071D01*
X62914285Y-53220071D02*
X62914285Y-52220071D01*
X62914285Y-52220071D02*
X63009523Y-52362928D01*
X63009523Y-52362928D02*
X63104761Y-52458166D01*
X63104761Y-52458166D02*
X63199999Y-52505785D01*
X60866666Y-53220071D02*
X61199999Y-52743880D01*
X61438094Y-53220071D02*
X61438094Y-52220071D01*
X61438094Y-52220071D02*
X61057142Y-52220071D01*
X61057142Y-52220071D02*
X60961904Y-52267690D01*
X60961904Y-52267690D02*
X60914285Y-52315309D01*
X60914285Y-52315309D02*
X60866666Y-52410547D01*
X60866666Y-52410547D02*
X60866666Y-52553404D01*
X60866666Y-52553404D02*
X60914285Y-52648642D01*
X60914285Y-52648642D02*
X60961904Y-52696261D01*
X60961904Y-52696261D02*
X61057142Y-52743880D01*
X61057142Y-52743880D02*
X61438094Y-52743880D01*
X60485713Y-52315309D02*
X60438094Y-52267690D01*
X60438094Y-52267690D02*
X60342856Y-52220071D01*
X60342856Y-52220071D02*
X60104761Y-52220071D01*
X60104761Y-52220071D02*
X60009523Y-52267690D01*
X60009523Y-52267690D02*
X59961904Y-52315309D01*
X59961904Y-52315309D02*
X59914285Y-52410547D01*
X59914285Y-52410547D02*
X59914285Y-52505785D01*
X59914285Y-52505785D02*
X59961904Y-52648642D01*
X59961904Y-52648642D02*
X60533332Y-53220071D01*
X60533332Y-53220071D02*
X59914285Y-53220071D01*
X68938094Y-54163348D02*
X68747618Y-54830015D01*
X68747618Y-54830015D02*
X68557142Y-54353824D01*
X68557142Y-54353824D02*
X68366666Y-54830015D01*
X68366666Y-54830015D02*
X68176190Y-54163348D01*
X67890475Y-54163348D02*
X67699999Y-54830015D01*
X67699999Y-54830015D02*
X67509523Y-54353824D01*
X67509523Y-54353824D02*
X67319047Y-54830015D01*
X67319047Y-54830015D02*
X67128571Y-54163348D01*
X66842856Y-54163348D02*
X66652380Y-54830015D01*
X66652380Y-54830015D02*
X66461904Y-54353824D01*
X66461904Y-54353824D02*
X66271428Y-54830015D01*
X66271428Y-54830015D02*
X66080952Y-54163348D01*
X65699999Y-54734776D02*
X65652380Y-54782396D01*
X65652380Y-54782396D02*
X65699999Y-54830015D01*
X65699999Y-54830015D02*
X65747618Y-54782396D01*
X65747618Y-54782396D02*
X65699999Y-54734776D01*
X65699999Y-54734776D02*
X65699999Y-54830015D01*
X65223809Y-54830015D02*
X65223809Y-54163348D01*
X65223809Y-53830015D02*
X65271428Y-53877634D01*
X65271428Y-53877634D02*
X65223809Y-53925253D01*
X65223809Y-53925253D02*
X65176190Y-53877634D01*
X65176190Y-53877634D02*
X65223809Y-53830015D01*
X65223809Y-53830015D02*
X65223809Y-53925253D01*
X64604762Y-54830015D02*
X64700000Y-54782396D01*
X64700000Y-54782396D02*
X64747619Y-54734776D01*
X64747619Y-54734776D02*
X64795238Y-54639538D01*
X64795238Y-54639538D02*
X64795238Y-54353824D01*
X64795238Y-54353824D02*
X64747619Y-54258586D01*
X64747619Y-54258586D02*
X64700000Y-54210967D01*
X64700000Y-54210967D02*
X64604762Y-54163348D01*
X64604762Y-54163348D02*
X64461905Y-54163348D01*
X64461905Y-54163348D02*
X64366667Y-54210967D01*
X64366667Y-54210967D02*
X64319048Y-54258586D01*
X64319048Y-54258586D02*
X64271429Y-54353824D01*
X64271429Y-54353824D02*
X64271429Y-54639538D01*
X64271429Y-54639538D02*
X64319048Y-54734776D01*
X64319048Y-54734776D02*
X64366667Y-54782396D01*
X64366667Y-54782396D02*
X64461905Y-54830015D01*
X64461905Y-54830015D02*
X64604762Y-54830015D01*
X63842857Y-54830015D02*
X63842857Y-54163348D01*
X63842857Y-54353824D02*
X63795238Y-54258586D01*
X63795238Y-54258586D02*
X63747619Y-54210967D01*
X63747619Y-54210967D02*
X63652381Y-54163348D01*
X63652381Y-54163348D02*
X63557143Y-54163348D01*
X63080952Y-54830015D02*
X63176190Y-54782396D01*
X63176190Y-54782396D02*
X63223809Y-54734776D01*
X63223809Y-54734776D02*
X63271428Y-54639538D01*
X63271428Y-54639538D02*
X63271428Y-54353824D01*
X63271428Y-54353824D02*
X63223809Y-54258586D01*
X63223809Y-54258586D02*
X63176190Y-54210967D01*
X63176190Y-54210967D02*
X63080952Y-54163348D01*
X63080952Y-54163348D02*
X62938095Y-54163348D01*
X62938095Y-54163348D02*
X62842857Y-54210967D01*
X62842857Y-54210967D02*
X62795238Y-54258586D01*
X62795238Y-54258586D02*
X62747619Y-54353824D01*
X62747619Y-54353824D02*
X62747619Y-54639538D01*
X62747619Y-54639538D02*
X62795238Y-54734776D01*
X62795238Y-54734776D02*
X62842857Y-54782396D01*
X62842857Y-54782396D02*
X62938095Y-54830015D01*
X62938095Y-54830015D02*
X63080952Y-54830015D01*
X61890476Y-54830015D02*
X61890476Y-53830015D01*
X61890476Y-54782396D02*
X61985714Y-54830015D01*
X61985714Y-54830015D02*
X62176190Y-54830015D01*
X62176190Y-54830015D02*
X62271428Y-54782396D01*
X62271428Y-54782396D02*
X62319047Y-54734776D01*
X62319047Y-54734776D02*
X62366666Y-54639538D01*
X62366666Y-54639538D02*
X62366666Y-54353824D01*
X62366666Y-54353824D02*
X62319047Y-54258586D01*
X62319047Y-54258586D02*
X62271428Y-54210967D01*
X62271428Y-54210967D02*
X62176190Y-54163348D01*
X62176190Y-54163348D02*
X61985714Y-54163348D01*
X61985714Y-54163348D02*
X61890476Y-54210967D01*
X61033333Y-54782396D02*
X61128571Y-54830015D01*
X61128571Y-54830015D02*
X61319047Y-54830015D01*
X61319047Y-54830015D02*
X61414285Y-54782396D01*
X61414285Y-54782396D02*
X61461904Y-54687157D01*
X61461904Y-54687157D02*
X61461904Y-54306205D01*
X61461904Y-54306205D02*
X61414285Y-54210967D01*
X61414285Y-54210967D02*
X61319047Y-54163348D01*
X61319047Y-54163348D02*
X61128571Y-54163348D01*
X61128571Y-54163348D02*
X61033333Y-54210967D01*
X61033333Y-54210967D02*
X60985714Y-54306205D01*
X60985714Y-54306205D02*
X60985714Y-54401443D01*
X60985714Y-54401443D02*
X61461904Y-54496681D01*
X60414285Y-54830015D02*
X60509523Y-54782396D01*
X60509523Y-54782396D02*
X60557142Y-54734776D01*
X60557142Y-54734776D02*
X60604761Y-54639538D01*
X60604761Y-54639538D02*
X60604761Y-54353824D01*
X60604761Y-54353824D02*
X60557142Y-54258586D01*
X60557142Y-54258586D02*
X60509523Y-54210967D01*
X60509523Y-54210967D02*
X60414285Y-54163348D01*
X60414285Y-54163348D02*
X60271428Y-54163348D01*
X60271428Y-54163348D02*
X60176190Y-54210967D01*
X60176190Y-54210967D02*
X60128571Y-54258586D01*
X60128571Y-54258586D02*
X60080952Y-54353824D01*
X60080952Y-54353824D02*
X60080952Y-54639538D01*
X60080952Y-54639538D02*
X60128571Y-54734776D01*
X60128571Y-54734776D02*
X60176190Y-54782396D01*
X60176190Y-54782396D02*
X60271428Y-54830015D01*
X60271428Y-54830015D02*
X60414285Y-54830015D01*
X59652380Y-54734776D02*
X59604761Y-54782396D01*
X59604761Y-54782396D02*
X59652380Y-54830015D01*
X59652380Y-54830015D02*
X59699999Y-54782396D01*
X59699999Y-54782396D02*
X59652380Y-54734776D01*
X59652380Y-54734776D02*
X59652380Y-54830015D01*
X58747619Y-54782396D02*
X58842857Y-54830015D01*
X58842857Y-54830015D02*
X59033333Y-54830015D01*
X59033333Y-54830015D02*
X59128571Y-54782396D01*
X59128571Y-54782396D02*
X59176190Y-54734776D01*
X59176190Y-54734776D02*
X59223809Y-54639538D01*
X59223809Y-54639538D02*
X59223809Y-54353824D01*
X59223809Y-54353824D02*
X59176190Y-54258586D01*
X59176190Y-54258586D02*
X59128571Y-54210967D01*
X59128571Y-54210967D02*
X59033333Y-54163348D01*
X59033333Y-54163348D02*
X58842857Y-54163348D01*
X58842857Y-54163348D02*
X58747619Y-54210967D01*
X58176190Y-54830015D02*
X58271428Y-54782396D01*
X58271428Y-54782396D02*
X58319047Y-54734776D01*
X58319047Y-54734776D02*
X58366666Y-54639538D01*
X58366666Y-54639538D02*
X58366666Y-54353824D01*
X58366666Y-54353824D02*
X58319047Y-54258586D01*
X58319047Y-54258586D02*
X58271428Y-54210967D01*
X58271428Y-54210967D02*
X58176190Y-54163348D01*
X58176190Y-54163348D02*
X58033333Y-54163348D01*
X58033333Y-54163348D02*
X57938095Y-54210967D01*
X57938095Y-54210967D02*
X57890476Y-54258586D01*
X57890476Y-54258586D02*
X57842857Y-54353824D01*
X57842857Y-54353824D02*
X57842857Y-54639538D01*
X57842857Y-54639538D02*
X57890476Y-54734776D01*
X57890476Y-54734776D02*
X57938095Y-54782396D01*
X57938095Y-54782396D02*
X58033333Y-54830015D01*
X58033333Y-54830015D02*
X58176190Y-54830015D01*
X57414285Y-54830015D02*
X57414285Y-54163348D01*
X57414285Y-54258586D02*
X57366666Y-54210967D01*
X57366666Y-54210967D02*
X57271428Y-54163348D01*
X57271428Y-54163348D02*
X57128571Y-54163348D01*
X57128571Y-54163348D02*
X57033333Y-54210967D01*
X57033333Y-54210967D02*
X56985714Y-54306205D01*
X56985714Y-54306205D02*
X56985714Y-54830015D01*
X56985714Y-54306205D02*
X56938095Y-54210967D01*
X56938095Y-54210967D02*
X56842857Y-54163348D01*
X56842857Y-54163348D02*
X56700000Y-54163348D01*
X56700000Y-54163348D02*
X56604761Y-54210967D01*
X56604761Y-54210967D02*
X56557142Y-54306205D01*
X56557142Y-54306205D02*
X56557142Y-54830015D01*
X69485713Y-67661948D02*
X69342856Y-67709567D01*
X69342856Y-67709567D02*
X69104761Y-67709567D01*
X69104761Y-67709567D02*
X69009523Y-67661948D01*
X69009523Y-67661948D02*
X68961904Y-67614328D01*
X68961904Y-67614328D02*
X68914285Y-67519090D01*
X68914285Y-67519090D02*
X68914285Y-67423852D01*
X68914285Y-67423852D02*
X68961904Y-67328614D01*
X68961904Y-67328614D02*
X69009523Y-67280995D01*
X69009523Y-67280995D02*
X69104761Y-67233376D01*
X69104761Y-67233376D02*
X69295237Y-67185757D01*
X69295237Y-67185757D02*
X69390475Y-67138138D01*
X69390475Y-67138138D02*
X69438094Y-67090519D01*
X69438094Y-67090519D02*
X69485713Y-66995281D01*
X69485713Y-66995281D02*
X69485713Y-66900043D01*
X69485713Y-66900043D02*
X69438094Y-66804805D01*
X69438094Y-66804805D02*
X69390475Y-66757186D01*
X69390475Y-66757186D02*
X69295237Y-66709567D01*
X69295237Y-66709567D02*
X69057142Y-66709567D01*
X69057142Y-66709567D02*
X68914285Y-66757186D01*
X68485713Y-67709567D02*
X68485713Y-66709567D01*
X68485713Y-66709567D02*
X68152380Y-67423852D01*
X68152380Y-67423852D02*
X67819047Y-66709567D01*
X67819047Y-66709567D02*
X67819047Y-67709567D01*
X67342856Y-67709567D02*
X67342856Y-66709567D01*
X67342856Y-66709567D02*
X67104761Y-66709567D01*
X67104761Y-66709567D02*
X66961904Y-66757186D01*
X66961904Y-66757186D02*
X66866666Y-66852424D01*
X66866666Y-66852424D02*
X66819047Y-66947662D01*
X66819047Y-66947662D02*
X66771428Y-67138138D01*
X66771428Y-67138138D02*
X66771428Y-67280995D01*
X66771428Y-67280995D02*
X66819047Y-67471471D01*
X66819047Y-67471471D02*
X66866666Y-67566709D01*
X66866666Y-67566709D02*
X66961904Y-67661948D01*
X66961904Y-67661948D02*
X67104761Y-67709567D01*
X67104761Y-67709567D02*
X67342856Y-67709567D01*
X66152380Y-66709567D02*
X66057142Y-66709567D01*
X66057142Y-66709567D02*
X65961904Y-66757186D01*
X65961904Y-66757186D02*
X65914285Y-66804805D01*
X65914285Y-66804805D02*
X65866666Y-66900043D01*
X65866666Y-66900043D02*
X65819047Y-67090519D01*
X65819047Y-67090519D02*
X65819047Y-67328614D01*
X65819047Y-67328614D02*
X65866666Y-67519090D01*
X65866666Y-67519090D02*
X65914285Y-67614328D01*
X65914285Y-67614328D02*
X65961904Y-67661948D01*
X65961904Y-67661948D02*
X66057142Y-67709567D01*
X66057142Y-67709567D02*
X66152380Y-67709567D01*
X66152380Y-67709567D02*
X66247618Y-67661948D01*
X66247618Y-67661948D02*
X66295237Y-67614328D01*
X66295237Y-67614328D02*
X66342856Y-67519090D01*
X66342856Y-67519090D02*
X66390475Y-67328614D01*
X66390475Y-67328614D02*
X66390475Y-67090519D01*
X66390475Y-67090519D02*
X66342856Y-66900043D01*
X66342856Y-66900043D02*
X66295237Y-66804805D01*
X66295237Y-66804805D02*
X66247618Y-66757186D01*
X66247618Y-66757186D02*
X66152380Y-66709567D01*
X64961904Y-66709567D02*
X65152380Y-66709567D01*
X65152380Y-66709567D02*
X65247618Y-66757186D01*
X65247618Y-66757186D02*
X65295237Y-66804805D01*
X65295237Y-66804805D02*
X65390475Y-66947662D01*
X65390475Y-66947662D02*
X65438094Y-67138138D01*
X65438094Y-67138138D02*
X65438094Y-67519090D01*
X65438094Y-67519090D02*
X65390475Y-67614328D01*
X65390475Y-67614328D02*
X65342856Y-67661948D01*
X65342856Y-67661948D02*
X65247618Y-67709567D01*
X65247618Y-67709567D02*
X65057142Y-67709567D01*
X65057142Y-67709567D02*
X64961904Y-67661948D01*
X64961904Y-67661948D02*
X64914285Y-67614328D01*
X64914285Y-67614328D02*
X64866666Y-67519090D01*
X64866666Y-67519090D02*
X64866666Y-67280995D01*
X64866666Y-67280995D02*
X64914285Y-67185757D01*
X64914285Y-67185757D02*
X64961904Y-67138138D01*
X64961904Y-67138138D02*
X65057142Y-67090519D01*
X65057142Y-67090519D02*
X65247618Y-67090519D01*
X65247618Y-67090519D02*
X65342856Y-67138138D01*
X65342856Y-67138138D02*
X65390475Y-67185757D01*
X65390475Y-67185757D02*
X65438094Y-67280995D01*
X64247618Y-66709567D02*
X64152380Y-66709567D01*
X64152380Y-66709567D02*
X64057142Y-66757186D01*
X64057142Y-66757186D02*
X64009523Y-66804805D01*
X64009523Y-66804805D02*
X63961904Y-66900043D01*
X63961904Y-66900043D02*
X63914285Y-67090519D01*
X63914285Y-67090519D02*
X63914285Y-67328614D01*
X63914285Y-67328614D02*
X63961904Y-67519090D01*
X63961904Y-67519090D02*
X64009523Y-67614328D01*
X64009523Y-67614328D02*
X64057142Y-67661948D01*
X64057142Y-67661948D02*
X64152380Y-67709567D01*
X64152380Y-67709567D02*
X64247618Y-67709567D01*
X64247618Y-67709567D02*
X64342856Y-67661948D01*
X64342856Y-67661948D02*
X64390475Y-67614328D01*
X64390475Y-67614328D02*
X64438094Y-67519090D01*
X64438094Y-67519090D02*
X64485713Y-67328614D01*
X64485713Y-67328614D02*
X64485713Y-67090519D01*
X64485713Y-67090519D02*
X64438094Y-66900043D01*
X64438094Y-66900043D02*
X64390475Y-66804805D01*
X64390475Y-66804805D02*
X64342856Y-66757186D01*
X64342856Y-66757186D02*
X64247618Y-66709567D01*
X63580951Y-66709567D02*
X62961904Y-66709567D01*
X62961904Y-66709567D02*
X63295237Y-67090519D01*
X63295237Y-67090519D02*
X63152380Y-67090519D01*
X63152380Y-67090519D02*
X63057142Y-67138138D01*
X63057142Y-67138138D02*
X63009523Y-67185757D01*
X63009523Y-67185757D02*
X62961904Y-67280995D01*
X62961904Y-67280995D02*
X62961904Y-67519090D01*
X62961904Y-67519090D02*
X63009523Y-67614328D01*
X63009523Y-67614328D02*
X63057142Y-67661948D01*
X63057142Y-67661948D02*
X63152380Y-67709567D01*
X63152380Y-67709567D02*
X63438094Y-67709567D01*
X63438094Y-67709567D02*
X63533332Y-67661948D01*
X63533332Y-67661948D02*
X63580951Y-67614328D01*
X62485713Y-67661948D02*
X62485713Y-67709567D01*
X62485713Y-67709567D02*
X62533332Y-67804805D01*
X62533332Y-67804805D02*
X62580951Y-67852424D01*
X61295237Y-67709567D02*
X61295237Y-66709567D01*
X60819047Y-67185757D02*
X60057143Y-67185757D01*
X60057143Y-67471471D02*
X60819047Y-67471471D01*
X59057143Y-67709567D02*
X59628571Y-67709567D01*
X59342857Y-67709567D02*
X59342857Y-66709567D01*
X59342857Y-66709567D02*
X59438095Y-66852424D01*
X59438095Y-66852424D02*
X59533333Y-66947662D01*
X59533333Y-66947662D02*
X59628571Y-66995281D01*
X58200000Y-66709567D02*
X58390476Y-66709567D01*
X58390476Y-66709567D02*
X58485714Y-66757186D01*
X58485714Y-66757186D02*
X58533333Y-66804805D01*
X58533333Y-66804805D02*
X58628571Y-66947662D01*
X58628571Y-66947662D02*
X58676190Y-67138138D01*
X58676190Y-67138138D02*
X58676190Y-67519090D01*
X58676190Y-67519090D02*
X58628571Y-67614328D01*
X58628571Y-67614328D02*
X58580952Y-67661948D01*
X58580952Y-67661948D02*
X58485714Y-67709567D01*
X58485714Y-67709567D02*
X58295238Y-67709567D01*
X58295238Y-67709567D02*
X58200000Y-67661948D01*
X58200000Y-67661948D02*
X58152381Y-67614328D01*
X58152381Y-67614328D02*
X58104762Y-67519090D01*
X58104762Y-67519090D02*
X58104762Y-67280995D01*
X58104762Y-67280995D02*
X58152381Y-67185757D01*
X58152381Y-67185757D02*
X58200000Y-67138138D01*
X58200000Y-67138138D02*
X58295238Y-67090519D01*
X58295238Y-67090519D02*
X58485714Y-67090519D01*
X58485714Y-67090519D02*
X58580952Y-67138138D01*
X58580952Y-67138138D02*
X58628571Y-67185757D01*
X58628571Y-67185757D02*
X58676190Y-67280995D01*
X57676190Y-67709567D02*
X57676190Y-67042900D01*
X57676190Y-67138138D02*
X57628571Y-67090519D01*
X57628571Y-67090519D02*
X57533333Y-67042900D01*
X57533333Y-67042900D02*
X57390476Y-67042900D01*
X57390476Y-67042900D02*
X57295238Y-67090519D01*
X57295238Y-67090519D02*
X57247619Y-67185757D01*
X57247619Y-67185757D02*
X57247619Y-67709567D01*
X57247619Y-67185757D02*
X57200000Y-67090519D01*
X57200000Y-67090519D02*
X57104762Y-67042900D01*
X57104762Y-67042900D02*
X56961905Y-67042900D01*
X56961905Y-67042900D02*
X56866666Y-67090519D01*
X56866666Y-67090519D02*
X56819047Y-67185757D01*
X56819047Y-67185757D02*
X56819047Y-67709567D01*
X56390476Y-67423852D02*
X55914286Y-67423852D01*
X56485714Y-67709567D02*
X56152381Y-66709567D01*
X56152381Y-66709567D02*
X55819048Y-67709567D01*
X67771427Y-68319511D02*
X67438094Y-69319511D01*
X67438094Y-69319511D02*
X67104761Y-68319511D01*
X66771427Y-69319511D02*
X66771427Y-68652844D01*
X66771427Y-68319511D02*
X66819046Y-68367130D01*
X66819046Y-68367130D02*
X66771427Y-68414749D01*
X66771427Y-68414749D02*
X66723808Y-68367130D01*
X66723808Y-68367130D02*
X66771427Y-68319511D01*
X66771427Y-68319511D02*
X66771427Y-68414749D01*
X66295237Y-68652844D02*
X66295237Y-69319511D01*
X66295237Y-68748082D02*
X66247618Y-68700463D01*
X66247618Y-68700463D02*
X66152380Y-68652844D01*
X66152380Y-68652844D02*
X66009523Y-68652844D01*
X66009523Y-68652844D02*
X65914285Y-68700463D01*
X65914285Y-68700463D02*
X65866666Y-68795701D01*
X65866666Y-68795701D02*
X65866666Y-69319511D01*
X65390475Y-68795701D02*
X64628571Y-68795701D01*
X64628571Y-69081415D02*
X65390475Y-69081415D01*
X64247618Y-68319511D02*
X63628571Y-68319511D01*
X63628571Y-68319511D02*
X63961904Y-68700463D01*
X63961904Y-68700463D02*
X63819047Y-68700463D01*
X63819047Y-68700463D02*
X63723809Y-68748082D01*
X63723809Y-68748082D02*
X63676190Y-68795701D01*
X63676190Y-68795701D02*
X63628571Y-68890939D01*
X63628571Y-68890939D02*
X63628571Y-69129034D01*
X63628571Y-69129034D02*
X63676190Y-69224272D01*
X63676190Y-69224272D02*
X63723809Y-69271892D01*
X63723809Y-69271892D02*
X63819047Y-69319511D01*
X63819047Y-69319511D02*
X64104761Y-69319511D01*
X64104761Y-69319511D02*
X64199999Y-69271892D01*
X64199999Y-69271892D02*
X64247618Y-69224272D01*
X63199999Y-69224272D02*
X63152380Y-69271892D01*
X63152380Y-69271892D02*
X63199999Y-69319511D01*
X63199999Y-69319511D02*
X63247618Y-69271892D01*
X63247618Y-69271892D02*
X63199999Y-69224272D01*
X63199999Y-69224272D02*
X63199999Y-69319511D01*
X62819047Y-68319511D02*
X62200000Y-68319511D01*
X62200000Y-68319511D02*
X62533333Y-68700463D01*
X62533333Y-68700463D02*
X62390476Y-68700463D01*
X62390476Y-68700463D02*
X62295238Y-68748082D01*
X62295238Y-68748082D02*
X62247619Y-68795701D01*
X62247619Y-68795701D02*
X62200000Y-68890939D01*
X62200000Y-68890939D02*
X62200000Y-69129034D01*
X62200000Y-69129034D02*
X62247619Y-69224272D01*
X62247619Y-69224272D02*
X62295238Y-69271892D01*
X62295238Y-69271892D02*
X62390476Y-69319511D01*
X62390476Y-69319511D02*
X62676190Y-69319511D01*
X62676190Y-69319511D02*
X62771428Y-69271892D01*
X62771428Y-69271892D02*
X62819047Y-69224272D01*
X61771428Y-68938558D02*
X61009524Y-68938558D01*
X60057143Y-68319511D02*
X60533333Y-68319511D01*
X60533333Y-68319511D02*
X60580952Y-68795701D01*
X60580952Y-68795701D02*
X60533333Y-68748082D01*
X60533333Y-68748082D02*
X60438095Y-68700463D01*
X60438095Y-68700463D02*
X60200000Y-68700463D01*
X60200000Y-68700463D02*
X60104762Y-68748082D01*
X60104762Y-68748082D02*
X60057143Y-68795701D01*
X60057143Y-68795701D02*
X60009524Y-68890939D01*
X60009524Y-68890939D02*
X60009524Y-69129034D01*
X60009524Y-69129034D02*
X60057143Y-69224272D01*
X60057143Y-69224272D02*
X60104762Y-69271892D01*
X60104762Y-69271892D02*
X60200000Y-69319511D01*
X60200000Y-69319511D02*
X60438095Y-69319511D01*
X60438095Y-69319511D02*
X60533333Y-69271892D01*
X60533333Y-69271892D02*
X60580952Y-69224272D01*
X59580952Y-69224272D02*
X59533333Y-69271892D01*
X59533333Y-69271892D02*
X59580952Y-69319511D01*
X59580952Y-69319511D02*
X59628571Y-69271892D01*
X59628571Y-69271892D02*
X59580952Y-69224272D01*
X59580952Y-69224272D02*
X59580952Y-69319511D01*
X58914286Y-68319511D02*
X58819048Y-68319511D01*
X58819048Y-68319511D02*
X58723810Y-68367130D01*
X58723810Y-68367130D02*
X58676191Y-68414749D01*
X58676191Y-68414749D02*
X58628572Y-68509987D01*
X58628572Y-68509987D02*
X58580953Y-68700463D01*
X58580953Y-68700463D02*
X58580953Y-68938558D01*
X58580953Y-68938558D02*
X58628572Y-69129034D01*
X58628572Y-69129034D02*
X58676191Y-69224272D01*
X58676191Y-69224272D02*
X58723810Y-69271892D01*
X58723810Y-69271892D02*
X58819048Y-69319511D01*
X58819048Y-69319511D02*
X58914286Y-69319511D01*
X58914286Y-69319511D02*
X59009524Y-69271892D01*
X59009524Y-69271892D02*
X59057143Y-69224272D01*
X59057143Y-69224272D02*
X59104762Y-69129034D01*
X59104762Y-69129034D02*
X59152381Y-68938558D01*
X59152381Y-68938558D02*
X59152381Y-68700463D01*
X59152381Y-68700463D02*
X59104762Y-68509987D01*
X59104762Y-68509987D02*
X59057143Y-68414749D01*
X59057143Y-68414749D02*
X59009524Y-68367130D01*
X59009524Y-68367130D02*
X58914286Y-68319511D01*
X58295238Y-68319511D02*
X57961905Y-69319511D01*
X57961905Y-69319511D02*
X57628572Y-68319511D01*
%TO.C,M1*%
X54990000Y-52540000D02*
G75*
G02*
X50090000Y-52540000I-2450000J0D01*
G01*
X50090000Y-52540000D02*
G75*
G02*
X54990000Y-52540000I2450000J0D01*
G01*
%TO.C,M2*%
X75310000Y-52540000D02*
G75*
G02*
X70410000Y-52540000I-2450000J0D01*
G01*
X70410000Y-52540000D02*
G75*
G02*
X75310000Y-52540000I2450000J0D01*
G01*
%TO.C,M3*%
X75310000Y-67460000D02*
G75*
G02*
X70410000Y-67460000I-2450000J0D01*
G01*
X70410000Y-67460000D02*
G75*
G02*
X75310000Y-67460000I2450000J0D01*
G01*
%TO.C,M4*%
X54990000Y-67460000D02*
G75*
G02*
X50090000Y-67460000I-2450000J0D01*
G01*
X50090000Y-67460000D02*
G75*
G02*
X54990000Y-67460000I2450000J0D01*
G01*
%TD*%
M02*
