%TF.GenerationSoftware,KiCad,Pcbnew,7.0.8-7.0.8~ubuntu22.04.1*%
%TF.CreationDate,2024-02-19T17:58:31-08:00*%
%TF.ProjectId,275nm_SU_CULBN2_24mA,3237356e-6d5f-4535-955f-43554c424e32,rev?*%
%TF.SameCoordinates,Original*%
%TF.FileFunction,Legend,Bot*%
%TF.FilePolarity,Positive*%
%FSLAX46Y46*%
G04 Gerber Fmt 4.6, Leading zero omitted, Abs format (unit mm)*
G04 Created by KiCad (PCBNEW 7.0.8-7.0.8~ubuntu22.04.1) date 2024-02-19 17:58:31*
%MOMM*%
%LPD*%
G01*
G04 APERTURE LIST*
%ADD10C,0.150000*%
G04 APERTURE END LIST*
D10*
X71842857Y-58039819D02*
X71842857Y-57039819D01*
X70795239Y-57944580D02*
X70842858Y-57992200D01*
X70842858Y-57992200D02*
X70985715Y-58039819D01*
X70985715Y-58039819D02*
X71080953Y-58039819D01*
X71080953Y-58039819D02*
X71223810Y-57992200D01*
X71223810Y-57992200D02*
X71319048Y-57896961D01*
X71319048Y-57896961D02*
X71366667Y-57801723D01*
X71366667Y-57801723D02*
X71414286Y-57611247D01*
X71414286Y-57611247D02*
X71414286Y-57468390D01*
X71414286Y-57468390D02*
X71366667Y-57277914D01*
X71366667Y-57277914D02*
X71319048Y-57182676D01*
X71319048Y-57182676D02*
X71223810Y-57087438D01*
X71223810Y-57087438D02*
X71080953Y-57039819D01*
X71080953Y-57039819D02*
X70985715Y-57039819D01*
X70985715Y-57039819D02*
X70842858Y-57087438D01*
X70842858Y-57087438D02*
X70795239Y-57135057D01*
X70223810Y-58039819D02*
X70319048Y-57992200D01*
X70319048Y-57992200D02*
X70366667Y-57944580D01*
X70366667Y-57944580D02*
X70414286Y-57849342D01*
X70414286Y-57849342D02*
X70414286Y-57563628D01*
X70414286Y-57563628D02*
X70366667Y-57468390D01*
X70366667Y-57468390D02*
X70319048Y-57420771D01*
X70319048Y-57420771D02*
X70223810Y-57373152D01*
X70223810Y-57373152D02*
X70080953Y-57373152D01*
X70080953Y-57373152D02*
X69985715Y-57420771D01*
X69985715Y-57420771D02*
X69938096Y-57468390D01*
X69938096Y-57468390D02*
X69890477Y-57563628D01*
X69890477Y-57563628D02*
X69890477Y-57849342D01*
X69890477Y-57849342D02*
X69938096Y-57944580D01*
X69938096Y-57944580D02*
X69985715Y-57992200D01*
X69985715Y-57992200D02*
X70080953Y-58039819D01*
X70080953Y-58039819D02*
X70223810Y-58039819D01*
X69461905Y-57373152D02*
X69461905Y-58039819D01*
X69461905Y-57468390D02*
X69414286Y-57420771D01*
X69414286Y-57420771D02*
X69319048Y-57373152D01*
X69319048Y-57373152D02*
X69176191Y-57373152D01*
X69176191Y-57373152D02*
X69080953Y-57420771D01*
X69080953Y-57420771D02*
X69033334Y-57516009D01*
X69033334Y-57516009D02*
X69033334Y-58039819D01*
X68700000Y-57373152D02*
X68319048Y-57373152D01*
X68557143Y-57039819D02*
X68557143Y-57896961D01*
X68557143Y-57896961D02*
X68509524Y-57992200D01*
X68509524Y-57992200D02*
X68414286Y-58039819D01*
X68414286Y-58039819D02*
X68319048Y-58039819D01*
X67985714Y-58039819D02*
X67985714Y-57373152D01*
X67985714Y-57563628D02*
X67938095Y-57468390D01*
X67938095Y-57468390D02*
X67890476Y-57420771D01*
X67890476Y-57420771D02*
X67795238Y-57373152D01*
X67795238Y-57373152D02*
X67700000Y-57373152D01*
X67223809Y-58039819D02*
X67319047Y-57992200D01*
X67319047Y-57992200D02*
X67366666Y-57944580D01*
X67366666Y-57944580D02*
X67414285Y-57849342D01*
X67414285Y-57849342D02*
X67414285Y-57563628D01*
X67414285Y-57563628D02*
X67366666Y-57468390D01*
X67366666Y-57468390D02*
X67319047Y-57420771D01*
X67319047Y-57420771D02*
X67223809Y-57373152D01*
X67223809Y-57373152D02*
X67080952Y-57373152D01*
X67080952Y-57373152D02*
X66985714Y-57420771D01*
X66985714Y-57420771D02*
X66938095Y-57468390D01*
X66938095Y-57468390D02*
X66890476Y-57563628D01*
X66890476Y-57563628D02*
X66890476Y-57849342D01*
X66890476Y-57849342D02*
X66938095Y-57944580D01*
X66938095Y-57944580D02*
X66985714Y-57992200D01*
X66985714Y-57992200D02*
X67080952Y-58039819D01*
X67080952Y-58039819D02*
X67223809Y-58039819D01*
X66319047Y-58039819D02*
X66414285Y-57992200D01*
X66414285Y-57992200D02*
X66461904Y-57896961D01*
X66461904Y-57896961D02*
X66461904Y-57039819D01*
X65176189Y-58039819D02*
X65176189Y-57039819D01*
X65176189Y-57516009D02*
X64604761Y-57516009D01*
X64604761Y-58039819D02*
X64604761Y-57039819D01*
X64271427Y-57039819D02*
X63938094Y-58039819D01*
X63938094Y-58039819D02*
X63604761Y-57039819D01*
X62033332Y-58039819D02*
X62509522Y-58039819D01*
X62509522Y-58039819D02*
X62509522Y-57039819D01*
X61699998Y-57516009D02*
X61366665Y-57516009D01*
X61223808Y-58039819D02*
X61699998Y-58039819D01*
X61699998Y-58039819D02*
X61699998Y-57039819D01*
X61699998Y-57039819D02*
X61223808Y-57039819D01*
X60795236Y-58039819D02*
X60795236Y-57039819D01*
X60795236Y-57039819D02*
X60557141Y-57039819D01*
X60557141Y-57039819D02*
X60414284Y-57087438D01*
X60414284Y-57087438D02*
X60319046Y-57182676D01*
X60319046Y-57182676D02*
X60271427Y-57277914D01*
X60271427Y-57277914D02*
X60223808Y-57468390D01*
X60223808Y-57468390D02*
X60223808Y-57611247D01*
X60223808Y-57611247D02*
X60271427Y-57801723D01*
X60271427Y-57801723D02*
X60319046Y-57896961D01*
X60319046Y-57896961D02*
X60414284Y-57992200D01*
X60414284Y-57992200D02*
X60557141Y-58039819D01*
X60557141Y-58039819D02*
X60795236Y-58039819D01*
X59176188Y-57039819D02*
X58842855Y-58039819D01*
X58842855Y-58039819D02*
X58509522Y-57039819D01*
X57985712Y-57039819D02*
X57890474Y-57039819D01*
X57890474Y-57039819D02*
X57795236Y-57087438D01*
X57795236Y-57087438D02*
X57747617Y-57135057D01*
X57747617Y-57135057D02*
X57699998Y-57230295D01*
X57699998Y-57230295D02*
X57652379Y-57420771D01*
X57652379Y-57420771D02*
X57652379Y-57658866D01*
X57652379Y-57658866D02*
X57699998Y-57849342D01*
X57699998Y-57849342D02*
X57747617Y-57944580D01*
X57747617Y-57944580D02*
X57795236Y-57992200D01*
X57795236Y-57992200D02*
X57890474Y-58039819D01*
X57890474Y-58039819D02*
X57985712Y-58039819D01*
X57985712Y-58039819D02*
X58080950Y-57992200D01*
X58080950Y-57992200D02*
X58128569Y-57944580D01*
X58128569Y-57944580D02*
X58176188Y-57849342D01*
X58176188Y-57849342D02*
X58223807Y-57658866D01*
X58223807Y-57658866D02*
X58223807Y-57420771D01*
X58223807Y-57420771D02*
X58176188Y-57230295D01*
X58176188Y-57230295D02*
X58128569Y-57135057D01*
X58128569Y-57135057D02*
X58080950Y-57087438D01*
X58080950Y-57087438D02*
X57985712Y-57039819D01*
X57223807Y-57944580D02*
X57176188Y-57992200D01*
X57176188Y-57992200D02*
X57223807Y-58039819D01*
X57223807Y-58039819D02*
X57271426Y-57992200D01*
X57271426Y-57992200D02*
X57223807Y-57944580D01*
X57223807Y-57944580D02*
X57223807Y-58039819D01*
X56223808Y-58039819D02*
X56795236Y-58039819D01*
X56509522Y-58039819D02*
X56509522Y-57039819D01*
X56509522Y-57039819D02*
X56604760Y-57182676D01*
X56604760Y-57182676D02*
X56699998Y-57277914D01*
X56699998Y-57277914D02*
X56795236Y-57325533D01*
X54461903Y-58039819D02*
X54795236Y-57563628D01*
X55033331Y-58039819D02*
X55033331Y-57039819D01*
X55033331Y-57039819D02*
X54652379Y-57039819D01*
X54652379Y-57039819D02*
X54557141Y-57087438D01*
X54557141Y-57087438D02*
X54509522Y-57135057D01*
X54509522Y-57135057D02*
X54461903Y-57230295D01*
X54461903Y-57230295D02*
X54461903Y-57373152D01*
X54461903Y-57373152D02*
X54509522Y-57468390D01*
X54509522Y-57468390D02*
X54557141Y-57516009D01*
X54557141Y-57516009D02*
X54652379Y-57563628D01*
X54652379Y-57563628D02*
X55033331Y-57563628D01*
X54080950Y-57135057D02*
X54033331Y-57087438D01*
X54033331Y-57087438D02*
X53938093Y-57039819D01*
X53938093Y-57039819D02*
X53699998Y-57039819D01*
X53699998Y-57039819D02*
X53604760Y-57087438D01*
X53604760Y-57087438D02*
X53557141Y-57135057D01*
X53557141Y-57135057D02*
X53509522Y-57230295D01*
X53509522Y-57230295D02*
X53509522Y-57325533D01*
X53509522Y-57325533D02*
X53557141Y-57468390D01*
X53557141Y-57468390D02*
X54128569Y-58039819D01*
X54128569Y-58039819D02*
X53509522Y-58039819D01*
X68938094Y-58983152D02*
X68747618Y-59649819D01*
X68747618Y-59649819D02*
X68557142Y-59173628D01*
X68557142Y-59173628D02*
X68366666Y-59649819D01*
X68366666Y-59649819D02*
X68176190Y-58983152D01*
X67890475Y-58983152D02*
X67699999Y-59649819D01*
X67699999Y-59649819D02*
X67509523Y-59173628D01*
X67509523Y-59173628D02*
X67319047Y-59649819D01*
X67319047Y-59649819D02*
X67128571Y-58983152D01*
X66842856Y-58983152D02*
X66652380Y-59649819D01*
X66652380Y-59649819D02*
X66461904Y-59173628D01*
X66461904Y-59173628D02*
X66271428Y-59649819D01*
X66271428Y-59649819D02*
X66080952Y-58983152D01*
X65699999Y-59554580D02*
X65652380Y-59602200D01*
X65652380Y-59602200D02*
X65699999Y-59649819D01*
X65699999Y-59649819D02*
X65747618Y-59602200D01*
X65747618Y-59602200D02*
X65699999Y-59554580D01*
X65699999Y-59554580D02*
X65699999Y-59649819D01*
X65223809Y-59649819D02*
X65223809Y-58983152D01*
X65223809Y-58649819D02*
X65271428Y-58697438D01*
X65271428Y-58697438D02*
X65223809Y-58745057D01*
X65223809Y-58745057D02*
X65176190Y-58697438D01*
X65176190Y-58697438D02*
X65223809Y-58649819D01*
X65223809Y-58649819D02*
X65223809Y-58745057D01*
X64604762Y-59649819D02*
X64700000Y-59602200D01*
X64700000Y-59602200D02*
X64747619Y-59554580D01*
X64747619Y-59554580D02*
X64795238Y-59459342D01*
X64795238Y-59459342D02*
X64795238Y-59173628D01*
X64795238Y-59173628D02*
X64747619Y-59078390D01*
X64747619Y-59078390D02*
X64700000Y-59030771D01*
X64700000Y-59030771D02*
X64604762Y-58983152D01*
X64604762Y-58983152D02*
X64461905Y-58983152D01*
X64461905Y-58983152D02*
X64366667Y-59030771D01*
X64366667Y-59030771D02*
X64319048Y-59078390D01*
X64319048Y-59078390D02*
X64271429Y-59173628D01*
X64271429Y-59173628D02*
X64271429Y-59459342D01*
X64271429Y-59459342D02*
X64319048Y-59554580D01*
X64319048Y-59554580D02*
X64366667Y-59602200D01*
X64366667Y-59602200D02*
X64461905Y-59649819D01*
X64461905Y-59649819D02*
X64604762Y-59649819D01*
X63842857Y-59649819D02*
X63842857Y-58983152D01*
X63842857Y-59173628D02*
X63795238Y-59078390D01*
X63795238Y-59078390D02*
X63747619Y-59030771D01*
X63747619Y-59030771D02*
X63652381Y-58983152D01*
X63652381Y-58983152D02*
X63557143Y-58983152D01*
X63080952Y-59649819D02*
X63176190Y-59602200D01*
X63176190Y-59602200D02*
X63223809Y-59554580D01*
X63223809Y-59554580D02*
X63271428Y-59459342D01*
X63271428Y-59459342D02*
X63271428Y-59173628D01*
X63271428Y-59173628D02*
X63223809Y-59078390D01*
X63223809Y-59078390D02*
X63176190Y-59030771D01*
X63176190Y-59030771D02*
X63080952Y-58983152D01*
X63080952Y-58983152D02*
X62938095Y-58983152D01*
X62938095Y-58983152D02*
X62842857Y-59030771D01*
X62842857Y-59030771D02*
X62795238Y-59078390D01*
X62795238Y-59078390D02*
X62747619Y-59173628D01*
X62747619Y-59173628D02*
X62747619Y-59459342D01*
X62747619Y-59459342D02*
X62795238Y-59554580D01*
X62795238Y-59554580D02*
X62842857Y-59602200D01*
X62842857Y-59602200D02*
X62938095Y-59649819D01*
X62938095Y-59649819D02*
X63080952Y-59649819D01*
X61890476Y-59649819D02*
X61890476Y-58649819D01*
X61890476Y-59602200D02*
X61985714Y-59649819D01*
X61985714Y-59649819D02*
X62176190Y-59649819D01*
X62176190Y-59649819D02*
X62271428Y-59602200D01*
X62271428Y-59602200D02*
X62319047Y-59554580D01*
X62319047Y-59554580D02*
X62366666Y-59459342D01*
X62366666Y-59459342D02*
X62366666Y-59173628D01*
X62366666Y-59173628D02*
X62319047Y-59078390D01*
X62319047Y-59078390D02*
X62271428Y-59030771D01*
X62271428Y-59030771D02*
X62176190Y-58983152D01*
X62176190Y-58983152D02*
X61985714Y-58983152D01*
X61985714Y-58983152D02*
X61890476Y-59030771D01*
X61033333Y-59602200D02*
X61128571Y-59649819D01*
X61128571Y-59649819D02*
X61319047Y-59649819D01*
X61319047Y-59649819D02*
X61414285Y-59602200D01*
X61414285Y-59602200D02*
X61461904Y-59506961D01*
X61461904Y-59506961D02*
X61461904Y-59126009D01*
X61461904Y-59126009D02*
X61414285Y-59030771D01*
X61414285Y-59030771D02*
X61319047Y-58983152D01*
X61319047Y-58983152D02*
X61128571Y-58983152D01*
X61128571Y-58983152D02*
X61033333Y-59030771D01*
X61033333Y-59030771D02*
X60985714Y-59126009D01*
X60985714Y-59126009D02*
X60985714Y-59221247D01*
X60985714Y-59221247D02*
X61461904Y-59316485D01*
X60414285Y-59649819D02*
X60509523Y-59602200D01*
X60509523Y-59602200D02*
X60557142Y-59554580D01*
X60557142Y-59554580D02*
X60604761Y-59459342D01*
X60604761Y-59459342D02*
X60604761Y-59173628D01*
X60604761Y-59173628D02*
X60557142Y-59078390D01*
X60557142Y-59078390D02*
X60509523Y-59030771D01*
X60509523Y-59030771D02*
X60414285Y-58983152D01*
X60414285Y-58983152D02*
X60271428Y-58983152D01*
X60271428Y-58983152D02*
X60176190Y-59030771D01*
X60176190Y-59030771D02*
X60128571Y-59078390D01*
X60128571Y-59078390D02*
X60080952Y-59173628D01*
X60080952Y-59173628D02*
X60080952Y-59459342D01*
X60080952Y-59459342D02*
X60128571Y-59554580D01*
X60128571Y-59554580D02*
X60176190Y-59602200D01*
X60176190Y-59602200D02*
X60271428Y-59649819D01*
X60271428Y-59649819D02*
X60414285Y-59649819D01*
X59652380Y-59554580D02*
X59604761Y-59602200D01*
X59604761Y-59602200D02*
X59652380Y-59649819D01*
X59652380Y-59649819D02*
X59699999Y-59602200D01*
X59699999Y-59602200D02*
X59652380Y-59554580D01*
X59652380Y-59554580D02*
X59652380Y-59649819D01*
X58747619Y-59602200D02*
X58842857Y-59649819D01*
X58842857Y-59649819D02*
X59033333Y-59649819D01*
X59033333Y-59649819D02*
X59128571Y-59602200D01*
X59128571Y-59602200D02*
X59176190Y-59554580D01*
X59176190Y-59554580D02*
X59223809Y-59459342D01*
X59223809Y-59459342D02*
X59223809Y-59173628D01*
X59223809Y-59173628D02*
X59176190Y-59078390D01*
X59176190Y-59078390D02*
X59128571Y-59030771D01*
X59128571Y-59030771D02*
X59033333Y-58983152D01*
X59033333Y-58983152D02*
X58842857Y-58983152D01*
X58842857Y-58983152D02*
X58747619Y-59030771D01*
X58176190Y-59649819D02*
X58271428Y-59602200D01*
X58271428Y-59602200D02*
X58319047Y-59554580D01*
X58319047Y-59554580D02*
X58366666Y-59459342D01*
X58366666Y-59459342D02*
X58366666Y-59173628D01*
X58366666Y-59173628D02*
X58319047Y-59078390D01*
X58319047Y-59078390D02*
X58271428Y-59030771D01*
X58271428Y-59030771D02*
X58176190Y-58983152D01*
X58176190Y-58983152D02*
X58033333Y-58983152D01*
X58033333Y-58983152D02*
X57938095Y-59030771D01*
X57938095Y-59030771D02*
X57890476Y-59078390D01*
X57890476Y-59078390D02*
X57842857Y-59173628D01*
X57842857Y-59173628D02*
X57842857Y-59459342D01*
X57842857Y-59459342D02*
X57890476Y-59554580D01*
X57890476Y-59554580D02*
X57938095Y-59602200D01*
X57938095Y-59602200D02*
X58033333Y-59649819D01*
X58033333Y-59649819D02*
X58176190Y-59649819D01*
X57414285Y-59649819D02*
X57414285Y-58983152D01*
X57414285Y-59078390D02*
X57366666Y-59030771D01*
X57366666Y-59030771D02*
X57271428Y-58983152D01*
X57271428Y-58983152D02*
X57128571Y-58983152D01*
X57128571Y-58983152D02*
X57033333Y-59030771D01*
X57033333Y-59030771D02*
X56985714Y-59126009D01*
X56985714Y-59126009D02*
X56985714Y-59649819D01*
X56985714Y-59126009D02*
X56938095Y-59030771D01*
X56938095Y-59030771D02*
X56842857Y-58983152D01*
X56842857Y-58983152D02*
X56700000Y-58983152D01*
X56700000Y-58983152D02*
X56604761Y-59030771D01*
X56604761Y-59030771D02*
X56557142Y-59126009D01*
X56557142Y-59126009D02*
X56557142Y-59649819D01*
X68580951Y-60355057D02*
X68533332Y-60307438D01*
X68533332Y-60307438D02*
X68438094Y-60259819D01*
X68438094Y-60259819D02*
X68199999Y-60259819D01*
X68199999Y-60259819D02*
X68104761Y-60307438D01*
X68104761Y-60307438D02*
X68057142Y-60355057D01*
X68057142Y-60355057D02*
X68009523Y-60450295D01*
X68009523Y-60450295D02*
X68009523Y-60545533D01*
X68009523Y-60545533D02*
X68057142Y-60688390D01*
X68057142Y-60688390D02*
X68628570Y-61259819D01*
X68628570Y-61259819D02*
X68009523Y-61259819D01*
X67676189Y-60259819D02*
X67009523Y-60259819D01*
X67009523Y-60259819D02*
X67438094Y-61259819D01*
X66152380Y-60259819D02*
X66628570Y-60259819D01*
X66628570Y-60259819D02*
X66676189Y-60736009D01*
X66676189Y-60736009D02*
X66628570Y-60688390D01*
X66628570Y-60688390D02*
X66533332Y-60640771D01*
X66533332Y-60640771D02*
X66295237Y-60640771D01*
X66295237Y-60640771D02*
X66199999Y-60688390D01*
X66199999Y-60688390D02*
X66152380Y-60736009D01*
X66152380Y-60736009D02*
X66104761Y-60831247D01*
X66104761Y-60831247D02*
X66104761Y-61069342D01*
X66104761Y-61069342D02*
X66152380Y-61164580D01*
X66152380Y-61164580D02*
X66199999Y-61212200D01*
X66199999Y-61212200D02*
X66295237Y-61259819D01*
X66295237Y-61259819D02*
X66533332Y-61259819D01*
X66533332Y-61259819D02*
X66628570Y-61212200D01*
X66628570Y-61212200D02*
X66676189Y-61164580D01*
X65676189Y-60593152D02*
X65676189Y-61259819D01*
X65676189Y-60688390D02*
X65628570Y-60640771D01*
X65628570Y-60640771D02*
X65533332Y-60593152D01*
X65533332Y-60593152D02*
X65390475Y-60593152D01*
X65390475Y-60593152D02*
X65295237Y-60640771D01*
X65295237Y-60640771D02*
X65247618Y-60736009D01*
X65247618Y-60736009D02*
X65247618Y-61259819D01*
X64771427Y-61259819D02*
X64771427Y-60593152D01*
X64771427Y-60688390D02*
X64723808Y-60640771D01*
X64723808Y-60640771D02*
X64628570Y-60593152D01*
X64628570Y-60593152D02*
X64485713Y-60593152D01*
X64485713Y-60593152D02*
X64390475Y-60640771D01*
X64390475Y-60640771D02*
X64342856Y-60736009D01*
X64342856Y-60736009D02*
X64342856Y-61259819D01*
X64342856Y-60736009D02*
X64295237Y-60640771D01*
X64295237Y-60640771D02*
X64199999Y-60593152D01*
X64199999Y-60593152D02*
X64057142Y-60593152D01*
X64057142Y-60593152D02*
X63961903Y-60640771D01*
X63961903Y-60640771D02*
X63914284Y-60736009D01*
X63914284Y-60736009D02*
X63914284Y-61259819D01*
X63390475Y-61212200D02*
X63390475Y-61259819D01*
X63390475Y-61259819D02*
X63438094Y-61355057D01*
X63438094Y-61355057D02*
X63485713Y-61402676D01*
X62199999Y-61259819D02*
X62199999Y-60259819D01*
X61723809Y-60736009D02*
X60961905Y-60736009D01*
X60961905Y-61021723D02*
X61723809Y-61021723D01*
X60533333Y-60355057D02*
X60485714Y-60307438D01*
X60485714Y-60307438D02*
X60390476Y-60259819D01*
X60390476Y-60259819D02*
X60152381Y-60259819D01*
X60152381Y-60259819D02*
X60057143Y-60307438D01*
X60057143Y-60307438D02*
X60009524Y-60355057D01*
X60009524Y-60355057D02*
X59961905Y-60450295D01*
X59961905Y-60450295D02*
X59961905Y-60545533D01*
X59961905Y-60545533D02*
X60009524Y-60688390D01*
X60009524Y-60688390D02*
X60580952Y-61259819D01*
X60580952Y-61259819D02*
X59961905Y-61259819D01*
X59104762Y-60593152D02*
X59104762Y-61259819D01*
X59342857Y-60212200D02*
X59580952Y-60926485D01*
X59580952Y-60926485D02*
X58961905Y-60926485D01*
X58580952Y-61259819D02*
X58580952Y-60593152D01*
X58580952Y-60688390D02*
X58533333Y-60640771D01*
X58533333Y-60640771D02*
X58438095Y-60593152D01*
X58438095Y-60593152D02*
X58295238Y-60593152D01*
X58295238Y-60593152D02*
X58200000Y-60640771D01*
X58200000Y-60640771D02*
X58152381Y-60736009D01*
X58152381Y-60736009D02*
X58152381Y-61259819D01*
X58152381Y-60736009D02*
X58104762Y-60640771D01*
X58104762Y-60640771D02*
X58009524Y-60593152D01*
X58009524Y-60593152D02*
X57866667Y-60593152D01*
X57866667Y-60593152D02*
X57771428Y-60640771D01*
X57771428Y-60640771D02*
X57723809Y-60736009D01*
X57723809Y-60736009D02*
X57723809Y-61259819D01*
X57295238Y-60974104D02*
X56819048Y-60974104D01*
X57390476Y-61259819D02*
X57057143Y-60259819D01*
X57057143Y-60259819D02*
X56723810Y-61259819D01*
X67771427Y-61869819D02*
X67438094Y-62869819D01*
X67438094Y-62869819D02*
X67104761Y-61869819D01*
X66771427Y-62869819D02*
X66771427Y-62203152D01*
X66771427Y-61869819D02*
X66819046Y-61917438D01*
X66819046Y-61917438D02*
X66771427Y-61965057D01*
X66771427Y-61965057D02*
X66723808Y-61917438D01*
X66723808Y-61917438D02*
X66771427Y-61869819D01*
X66771427Y-61869819D02*
X66771427Y-61965057D01*
X66295237Y-62203152D02*
X66295237Y-62869819D01*
X66295237Y-62298390D02*
X66247618Y-62250771D01*
X66247618Y-62250771D02*
X66152380Y-62203152D01*
X66152380Y-62203152D02*
X66009523Y-62203152D01*
X66009523Y-62203152D02*
X65914285Y-62250771D01*
X65914285Y-62250771D02*
X65866666Y-62346009D01*
X65866666Y-62346009D02*
X65866666Y-62869819D01*
X65390475Y-62346009D02*
X64628571Y-62346009D01*
X64628571Y-62631723D02*
X65390475Y-62631723D01*
X64247618Y-61869819D02*
X63628571Y-61869819D01*
X63628571Y-61869819D02*
X63961904Y-62250771D01*
X63961904Y-62250771D02*
X63819047Y-62250771D01*
X63819047Y-62250771D02*
X63723809Y-62298390D01*
X63723809Y-62298390D02*
X63676190Y-62346009D01*
X63676190Y-62346009D02*
X63628571Y-62441247D01*
X63628571Y-62441247D02*
X63628571Y-62679342D01*
X63628571Y-62679342D02*
X63676190Y-62774580D01*
X63676190Y-62774580D02*
X63723809Y-62822200D01*
X63723809Y-62822200D02*
X63819047Y-62869819D01*
X63819047Y-62869819D02*
X64104761Y-62869819D01*
X64104761Y-62869819D02*
X64199999Y-62822200D01*
X64199999Y-62822200D02*
X64247618Y-62774580D01*
X63199999Y-62774580D02*
X63152380Y-62822200D01*
X63152380Y-62822200D02*
X63199999Y-62869819D01*
X63199999Y-62869819D02*
X63247618Y-62822200D01*
X63247618Y-62822200D02*
X63199999Y-62774580D01*
X63199999Y-62774580D02*
X63199999Y-62869819D01*
X62819047Y-61869819D02*
X62200000Y-61869819D01*
X62200000Y-61869819D02*
X62533333Y-62250771D01*
X62533333Y-62250771D02*
X62390476Y-62250771D01*
X62390476Y-62250771D02*
X62295238Y-62298390D01*
X62295238Y-62298390D02*
X62247619Y-62346009D01*
X62247619Y-62346009D02*
X62200000Y-62441247D01*
X62200000Y-62441247D02*
X62200000Y-62679342D01*
X62200000Y-62679342D02*
X62247619Y-62774580D01*
X62247619Y-62774580D02*
X62295238Y-62822200D01*
X62295238Y-62822200D02*
X62390476Y-62869819D01*
X62390476Y-62869819D02*
X62676190Y-62869819D01*
X62676190Y-62869819D02*
X62771428Y-62822200D01*
X62771428Y-62822200D02*
X62819047Y-62774580D01*
X61771428Y-62488866D02*
X61009524Y-62488866D01*
X60057143Y-61869819D02*
X60533333Y-61869819D01*
X60533333Y-61869819D02*
X60580952Y-62346009D01*
X60580952Y-62346009D02*
X60533333Y-62298390D01*
X60533333Y-62298390D02*
X60438095Y-62250771D01*
X60438095Y-62250771D02*
X60200000Y-62250771D01*
X60200000Y-62250771D02*
X60104762Y-62298390D01*
X60104762Y-62298390D02*
X60057143Y-62346009D01*
X60057143Y-62346009D02*
X60009524Y-62441247D01*
X60009524Y-62441247D02*
X60009524Y-62679342D01*
X60009524Y-62679342D02*
X60057143Y-62774580D01*
X60057143Y-62774580D02*
X60104762Y-62822200D01*
X60104762Y-62822200D02*
X60200000Y-62869819D01*
X60200000Y-62869819D02*
X60438095Y-62869819D01*
X60438095Y-62869819D02*
X60533333Y-62822200D01*
X60533333Y-62822200D02*
X60580952Y-62774580D01*
X59580952Y-62774580D02*
X59533333Y-62822200D01*
X59533333Y-62822200D02*
X59580952Y-62869819D01*
X59580952Y-62869819D02*
X59628571Y-62822200D01*
X59628571Y-62822200D02*
X59580952Y-62774580D01*
X59580952Y-62774580D02*
X59580952Y-62869819D01*
X58914286Y-61869819D02*
X58819048Y-61869819D01*
X58819048Y-61869819D02*
X58723810Y-61917438D01*
X58723810Y-61917438D02*
X58676191Y-61965057D01*
X58676191Y-61965057D02*
X58628572Y-62060295D01*
X58628572Y-62060295D02*
X58580953Y-62250771D01*
X58580953Y-62250771D02*
X58580953Y-62488866D01*
X58580953Y-62488866D02*
X58628572Y-62679342D01*
X58628572Y-62679342D02*
X58676191Y-62774580D01*
X58676191Y-62774580D02*
X58723810Y-62822200D01*
X58723810Y-62822200D02*
X58819048Y-62869819D01*
X58819048Y-62869819D02*
X58914286Y-62869819D01*
X58914286Y-62869819D02*
X59009524Y-62822200D01*
X59009524Y-62822200D02*
X59057143Y-62774580D01*
X59057143Y-62774580D02*
X59104762Y-62679342D01*
X59104762Y-62679342D02*
X59152381Y-62488866D01*
X59152381Y-62488866D02*
X59152381Y-62250771D01*
X59152381Y-62250771D02*
X59104762Y-62060295D01*
X59104762Y-62060295D02*
X59057143Y-61965057D01*
X59057143Y-61965057D02*
X59009524Y-61917438D01*
X59009524Y-61917438D02*
X58914286Y-61869819D01*
X58295238Y-61869819D02*
X57961905Y-62869819D01*
X57961905Y-62869819D02*
X57628572Y-61869819D01*
%TO.C,M1*%
X54990000Y-52540000D02*
G75*
G03*
X54990000Y-52540000I-2450000J0D01*
G01*
%TO.C,M2*%
X75310000Y-52540000D02*
G75*
G03*
X75310000Y-52540000I-2450000J0D01*
G01*
%TO.C,M3*%
X75310000Y-67460000D02*
G75*
G03*
X75310000Y-67460000I-2450000J0D01*
G01*
%TO.C,M4*%
X54990000Y-67460000D02*
G75*
G03*
X54990000Y-67460000I-2450000J0D01*
G01*
%TD*%
M02*
