%TF.GenerationSoftware,KiCad,Pcbnew,7.0.8-7.0.8~ubuntu22.04.1*%
%TF.CreationDate,2023-12-07T10:55:27-08:00*%
%TF.ProjectId,275nm_SU_CULBN2,3237356e-6d5f-4535-955f-43554c424e32,rev?*%
%TF.SameCoordinates,Original*%
%TF.FileFunction,Legend,Top*%
%TF.FilePolarity,Positive*%
%FSLAX46Y46*%
G04 Gerber Fmt 4.6, Leading zero omitted, Abs format (unit mm)*
G04 Created by KiCad (PCBNEW 7.0.8-7.0.8~ubuntu22.04.1) date 2023-12-07 10:55:27*
%MOMM*%
%LPD*%
G01*
G04 APERTURE LIST*
%ADD10C,0.250000*%
%ADD11C,0.150000*%
%ADD12C,0.050000*%
%ADD13C,0.200000*%
%ADD14C,0.120000*%
%ADD15C,0.100000*%
G04 APERTURE END LIST*
D10*
X65700000Y-60000000D02*
G75*
G03*
X65700000Y-60000000I-3000000J0D01*
G01*
D11*
X58565704Y-59404324D02*
X59365704Y-59404324D01*
X59365704Y-59404324D02*
X59365704Y-59594800D01*
X59365704Y-59594800D02*
X59327609Y-59709086D01*
X59327609Y-59709086D02*
X59251419Y-59785276D01*
X59251419Y-59785276D02*
X59175228Y-59823371D01*
X59175228Y-59823371D02*
X59022847Y-59861467D01*
X59022847Y-59861467D02*
X58908561Y-59861467D01*
X58908561Y-59861467D02*
X58756180Y-59823371D01*
X58756180Y-59823371D02*
X58679990Y-59785276D01*
X58679990Y-59785276D02*
X58603800Y-59709086D01*
X58603800Y-59709086D02*
X58565704Y-59594800D01*
X58565704Y-59594800D02*
X58565704Y-59404324D01*
X58565704Y-60623371D02*
X58565704Y-60166228D01*
X58565704Y-60394800D02*
X59365704Y-60394800D01*
X59365704Y-60394800D02*
X59251419Y-60318609D01*
X59251419Y-60318609D02*
X59175228Y-60242419D01*
X59175228Y-60242419D02*
X59137133Y-60166228D01*
X52643133Y-55620095D02*
X52643133Y-56191523D01*
X52643133Y-56191523D02*
X52605038Y-56305809D01*
X52605038Y-56305809D02*
X52528847Y-56382000D01*
X52528847Y-56382000D02*
X52414562Y-56420095D01*
X52414562Y-56420095D02*
X52338371Y-56420095D01*
X53443133Y-56420095D02*
X52985990Y-56420095D01*
X53214562Y-56420095D02*
X53214562Y-55620095D01*
X53214562Y-55620095D02*
X53138371Y-55734380D01*
X53138371Y-55734380D02*
X53062181Y-55810571D01*
X53062181Y-55810571D02*
X52985990Y-55848666D01*
X72274133Y-55747095D02*
X72274133Y-56318523D01*
X72274133Y-56318523D02*
X72236038Y-56432809D01*
X72236038Y-56432809D02*
X72159847Y-56509000D01*
X72159847Y-56509000D02*
X72045562Y-56547095D01*
X72045562Y-56547095D02*
X71969371Y-56547095D01*
X72616990Y-55823285D02*
X72655086Y-55785190D01*
X72655086Y-55785190D02*
X72731276Y-55747095D01*
X72731276Y-55747095D02*
X72921752Y-55747095D01*
X72921752Y-55747095D02*
X72997943Y-55785190D01*
X72997943Y-55785190D02*
X73036038Y-55823285D01*
X73036038Y-55823285D02*
X73074133Y-55899476D01*
X73074133Y-55899476D02*
X73074133Y-55975666D01*
X73074133Y-55975666D02*
X73036038Y-56089952D01*
X73036038Y-56089952D02*
X72578895Y-56547095D01*
X72578895Y-56547095D02*
X73074133Y-56547095D01*
X65836876Y-62274895D02*
X65836876Y-62922514D01*
X65836876Y-62922514D02*
X65874971Y-62998704D01*
X65874971Y-62998704D02*
X65913066Y-63036800D01*
X65913066Y-63036800D02*
X65989257Y-63074895D01*
X65989257Y-63074895D02*
X66141638Y-63074895D01*
X66141638Y-63074895D02*
X66217828Y-63036800D01*
X66217828Y-63036800D02*
X66255923Y-62998704D01*
X66255923Y-62998704D02*
X66294019Y-62922514D01*
X66294019Y-62922514D02*
X66294019Y-62274895D01*
X66636875Y-62351085D02*
X66674971Y-62312990D01*
X66674971Y-62312990D02*
X66751161Y-62274895D01*
X66751161Y-62274895D02*
X66941637Y-62274895D01*
X66941637Y-62274895D02*
X67017828Y-62312990D01*
X67017828Y-62312990D02*
X67055923Y-62351085D01*
X67055923Y-62351085D02*
X67094018Y-62427276D01*
X67094018Y-62427276D02*
X67094018Y-62503466D01*
X67094018Y-62503466D02*
X67055923Y-62617752D01*
X67055923Y-62617752D02*
X66598780Y-63074895D01*
X66598780Y-63074895D02*
X67094018Y-63074895D01*
X55654609Y-66260485D02*
X55578419Y-66222390D01*
X55578419Y-66222390D02*
X55502228Y-66146200D01*
X55502228Y-66146200D02*
X55387942Y-66031914D01*
X55387942Y-66031914D02*
X55311752Y-65993819D01*
X55311752Y-65993819D02*
X55235561Y-65993819D01*
X55273657Y-66184295D02*
X55197466Y-66146200D01*
X55197466Y-66146200D02*
X55121276Y-66070009D01*
X55121276Y-66070009D02*
X55083180Y-65917628D01*
X55083180Y-65917628D02*
X55083180Y-65650961D01*
X55083180Y-65650961D02*
X55121276Y-65498580D01*
X55121276Y-65498580D02*
X55197466Y-65422390D01*
X55197466Y-65422390D02*
X55273657Y-65384295D01*
X55273657Y-65384295D02*
X55426038Y-65384295D01*
X55426038Y-65384295D02*
X55502228Y-65422390D01*
X55502228Y-65422390D02*
X55578419Y-65498580D01*
X55578419Y-65498580D02*
X55616514Y-65650961D01*
X55616514Y-65650961D02*
X55616514Y-65917628D01*
X55616514Y-65917628D02*
X55578419Y-66070009D01*
X55578419Y-66070009D02*
X55502228Y-66146200D01*
X55502228Y-66146200D02*
X55426038Y-66184295D01*
X55426038Y-66184295D02*
X55273657Y-66184295D01*
X56378418Y-66184295D02*
X55921275Y-66184295D01*
X56149847Y-66184295D02*
X56149847Y-65384295D01*
X56149847Y-65384295D02*
X56073656Y-65498580D01*
X56073656Y-65498580D02*
X55997466Y-65574771D01*
X55997466Y-65574771D02*
X55921275Y-65612866D01*
X60223476Y-50514695D02*
X60223476Y-51162314D01*
X60223476Y-51162314D02*
X60261571Y-51238504D01*
X60261571Y-51238504D02*
X60299666Y-51276600D01*
X60299666Y-51276600D02*
X60375857Y-51314695D01*
X60375857Y-51314695D02*
X60528238Y-51314695D01*
X60528238Y-51314695D02*
X60604428Y-51276600D01*
X60604428Y-51276600D02*
X60642523Y-51238504D01*
X60642523Y-51238504D02*
X60680619Y-51162314D01*
X60680619Y-51162314D02*
X60680619Y-50514695D01*
X61480618Y-51314695D02*
X61023475Y-51314695D01*
X61252047Y-51314695D02*
X61252047Y-50514695D01*
X61252047Y-50514695D02*
X61175856Y-50628980D01*
X61175856Y-50628980D02*
X61099666Y-50705171D01*
X61099666Y-50705171D02*
X61023475Y-50743266D01*
D12*
%TO.C,M1*%
X54440000Y-52540000D02*
G75*
G03*
X54440000Y-52540000I-1900000J0D01*
G01*
D11*
X54990000Y-52540000D02*
G75*
G03*
X54990000Y-52540000I-2450000J0D01*
G01*
D12*
%TO.C,M2*%
X74760000Y-52540000D02*
G75*
G03*
X74760000Y-52540000I-1900000J0D01*
G01*
D11*
X75310000Y-52540000D02*
G75*
G03*
X75310000Y-52540000I-2450000J0D01*
G01*
D12*
%TO.C,M3*%
X74760000Y-67460000D02*
G75*
G03*
X74760000Y-67460000I-1900000J0D01*
G01*
D11*
X75310000Y-67460000D02*
G75*
G03*
X75310000Y-67460000I-2450000J0D01*
G01*
D12*
%TO.C,M4*%
X54440000Y-67460000D02*
G75*
G03*
X54440000Y-67460000I-1900000J0D01*
G01*
D11*
X54990000Y-67460000D02*
G75*
G03*
X54990000Y-67460000I-2450000J0D01*
G01*
D13*
%TO.C,D1*%
X64600000Y-58100000D02*
X60800000Y-58100000D01*
X64600000Y-58100000D02*
X64600000Y-61425000D01*
X60800000Y-58100000D02*
X60800000Y-61425000D01*
D14*
%TO.C,J1*%
X54665000Y-56890000D02*
X54665000Y-57940000D01*
X52165000Y-56890000D02*
X54665000Y-56890000D01*
X54665000Y-57940000D02*
X55655000Y-57940000D01*
X50195000Y-58060000D02*
X50195000Y-61940000D01*
X54665000Y-63110000D02*
X54665000Y-62060000D01*
X52165000Y-63110000D02*
X54665000Y-63110000D01*
%TO.C,J2*%
X70735000Y-63110000D02*
X70735000Y-62060000D01*
X73235000Y-63110000D02*
X70735000Y-63110000D01*
X70735000Y-62060000D02*
X69745000Y-62060000D01*
X75205000Y-61940000D02*
X75205000Y-58060000D01*
X70735000Y-56890000D02*
X70735000Y-57940000D01*
X73235000Y-56890000D02*
X70735000Y-56890000D01*
%TO.C,R1*%
X68807600Y-64338959D02*
X68807600Y-64646241D01*
X68047600Y-64338959D02*
X68047600Y-64646241D01*
%TO.C,R6*%
X62993241Y-51256200D02*
X62685959Y-51256200D01*
X62993241Y-50496200D02*
X62685959Y-50496200D01*
%TO.C,R4*%
X59183000Y-53317841D02*
X59183000Y-53010559D01*
X59943000Y-53317841D02*
X59943000Y-53010559D01*
%TO.C,U2*%
X65657700Y-66491000D02*
X67457700Y-66491000D01*
X65657700Y-66491000D02*
X64857700Y-66491000D01*
X65657700Y-63371000D02*
X66457700Y-63371000D01*
X65657700Y-63371000D02*
X64857700Y-63371000D01*
%TO.C,C3*%
X62485200Y-65563836D02*
X62485200Y-65348164D01*
X63205200Y-65563836D02*
X63205200Y-65348164D01*
%TO.C,R3*%
X68047600Y-67004441D02*
X68047600Y-66697159D01*
X68807600Y-67004441D02*
X68807600Y-66697159D01*
%TO.C,L1*%
X63997621Y-55243000D02*
X64323179Y-55243000D01*
X63997621Y-56263000D02*
X64323179Y-56263000D01*
%TO.C,R2*%
X65506559Y-67101000D02*
X65813841Y-67101000D01*
X65506559Y-67861000D02*
X65813841Y-67861000D01*
%TO.C,C1*%
X61299036Y-55859000D02*
X61083364Y-55859000D01*
X61299036Y-55139000D02*
X61083364Y-55139000D01*
%TO.C,C4*%
X61260200Y-65568836D02*
X61260200Y-65353164D01*
X61980200Y-65568836D02*
X61980200Y-65353164D01*
%TO.C,C2*%
X65375964Y-52827600D02*
X65591636Y-52827600D01*
X65375964Y-53547600D02*
X65591636Y-53547600D01*
%TO.C,Q1*%
X59715800Y-65834500D02*
X59715800Y-64159500D01*
X59715800Y-65834500D02*
X59715800Y-66484500D01*
X56595800Y-65834500D02*
X56595800Y-65184500D01*
X56595800Y-65834500D02*
X56595800Y-66484500D01*
D15*
%TO.C,D2*%
X66594200Y-54305200D02*
G75*
G03*
X66594200Y-54305200I-50000J0D01*
G01*
D14*
%TO.C,R5*%
X65607441Y-52500800D02*
X65300159Y-52500800D01*
X65607441Y-51740800D02*
X65300159Y-51740800D01*
%TO.C,U1*%
X62356500Y-54757800D02*
X64156500Y-54757800D01*
X62356500Y-54757800D02*
X61556500Y-54757800D01*
X62356500Y-51637800D02*
X63156500Y-51637800D01*
X62356500Y-51637800D02*
X61556500Y-51637800D01*
%TD*%
M02*
