%TF.GenerationSoftware,KiCad,Pcbnew,7.0.8-7.0.8~ubuntu22.04.1*%
%TF.CreationDate,2023-11-26T09:46:39-08:00*%
%TF.ProjectId,radial_24mA,72616469-616c-45f3-9234-6d412e6b6963,rev?*%
%TF.SameCoordinates,Original*%
%TF.FileFunction,Legend,Bot*%
%TF.FilePolarity,Positive*%
%FSLAX46Y46*%
G04 Gerber Fmt 4.6, Leading zero omitted, Abs format (unit mm)*
G04 Created by KiCad (PCBNEW 7.0.8-7.0.8~ubuntu22.04.1) date 2023-11-26 09:46:39*
%MOMM*%
%LPD*%
G01*
G04 APERTURE LIST*
%ADD10C,0.150000*%
G04 APERTURE END LIST*
D10*
X70509524Y-55634819D02*
X70509524Y-54634819D01*
X69461906Y-55539580D02*
X69509525Y-55587200D01*
X69509525Y-55587200D02*
X69652382Y-55634819D01*
X69652382Y-55634819D02*
X69747620Y-55634819D01*
X69747620Y-55634819D02*
X69890477Y-55587200D01*
X69890477Y-55587200D02*
X69985715Y-55491961D01*
X69985715Y-55491961D02*
X70033334Y-55396723D01*
X70033334Y-55396723D02*
X70080953Y-55206247D01*
X70080953Y-55206247D02*
X70080953Y-55063390D01*
X70080953Y-55063390D02*
X70033334Y-54872914D01*
X70033334Y-54872914D02*
X69985715Y-54777676D01*
X69985715Y-54777676D02*
X69890477Y-54682438D01*
X69890477Y-54682438D02*
X69747620Y-54634819D01*
X69747620Y-54634819D02*
X69652382Y-54634819D01*
X69652382Y-54634819D02*
X69509525Y-54682438D01*
X69509525Y-54682438D02*
X69461906Y-54730057D01*
X68890477Y-55634819D02*
X68985715Y-55587200D01*
X68985715Y-55587200D02*
X69033334Y-55539580D01*
X69033334Y-55539580D02*
X69080953Y-55444342D01*
X69080953Y-55444342D02*
X69080953Y-55158628D01*
X69080953Y-55158628D02*
X69033334Y-55063390D01*
X69033334Y-55063390D02*
X68985715Y-55015771D01*
X68985715Y-55015771D02*
X68890477Y-54968152D01*
X68890477Y-54968152D02*
X68747620Y-54968152D01*
X68747620Y-54968152D02*
X68652382Y-55015771D01*
X68652382Y-55015771D02*
X68604763Y-55063390D01*
X68604763Y-55063390D02*
X68557144Y-55158628D01*
X68557144Y-55158628D02*
X68557144Y-55444342D01*
X68557144Y-55444342D02*
X68604763Y-55539580D01*
X68604763Y-55539580D02*
X68652382Y-55587200D01*
X68652382Y-55587200D02*
X68747620Y-55634819D01*
X68747620Y-55634819D02*
X68890477Y-55634819D01*
X68128572Y-54968152D02*
X68128572Y-55634819D01*
X68128572Y-55063390D02*
X68080953Y-55015771D01*
X68080953Y-55015771D02*
X67985715Y-54968152D01*
X67985715Y-54968152D02*
X67842858Y-54968152D01*
X67842858Y-54968152D02*
X67747620Y-55015771D01*
X67747620Y-55015771D02*
X67700001Y-55111009D01*
X67700001Y-55111009D02*
X67700001Y-55634819D01*
X67366667Y-54968152D02*
X66985715Y-54968152D01*
X67223810Y-54634819D02*
X67223810Y-55491961D01*
X67223810Y-55491961D02*
X67176191Y-55587200D01*
X67176191Y-55587200D02*
X67080953Y-55634819D01*
X67080953Y-55634819D02*
X66985715Y-55634819D01*
X66652381Y-55634819D02*
X66652381Y-54968152D01*
X66652381Y-55158628D02*
X66604762Y-55063390D01*
X66604762Y-55063390D02*
X66557143Y-55015771D01*
X66557143Y-55015771D02*
X66461905Y-54968152D01*
X66461905Y-54968152D02*
X66366667Y-54968152D01*
X65890476Y-55634819D02*
X65985714Y-55587200D01*
X65985714Y-55587200D02*
X66033333Y-55539580D01*
X66033333Y-55539580D02*
X66080952Y-55444342D01*
X66080952Y-55444342D02*
X66080952Y-55158628D01*
X66080952Y-55158628D02*
X66033333Y-55063390D01*
X66033333Y-55063390D02*
X65985714Y-55015771D01*
X65985714Y-55015771D02*
X65890476Y-54968152D01*
X65890476Y-54968152D02*
X65747619Y-54968152D01*
X65747619Y-54968152D02*
X65652381Y-55015771D01*
X65652381Y-55015771D02*
X65604762Y-55063390D01*
X65604762Y-55063390D02*
X65557143Y-55158628D01*
X65557143Y-55158628D02*
X65557143Y-55444342D01*
X65557143Y-55444342D02*
X65604762Y-55539580D01*
X65604762Y-55539580D02*
X65652381Y-55587200D01*
X65652381Y-55587200D02*
X65747619Y-55634819D01*
X65747619Y-55634819D02*
X65890476Y-55634819D01*
X64985714Y-55634819D02*
X65080952Y-55587200D01*
X65080952Y-55587200D02*
X65128571Y-55491961D01*
X65128571Y-55491961D02*
X65128571Y-54634819D01*
X63366666Y-55634819D02*
X63842856Y-55634819D01*
X63842856Y-55634819D02*
X63842856Y-54634819D01*
X63033332Y-55111009D02*
X62699999Y-55111009D01*
X62557142Y-55634819D02*
X63033332Y-55634819D01*
X63033332Y-55634819D02*
X63033332Y-54634819D01*
X63033332Y-54634819D02*
X62557142Y-54634819D01*
X62128570Y-55634819D02*
X62128570Y-54634819D01*
X62128570Y-54634819D02*
X61890475Y-54634819D01*
X61890475Y-54634819D02*
X61747618Y-54682438D01*
X61747618Y-54682438D02*
X61652380Y-54777676D01*
X61652380Y-54777676D02*
X61604761Y-54872914D01*
X61604761Y-54872914D02*
X61557142Y-55063390D01*
X61557142Y-55063390D02*
X61557142Y-55206247D01*
X61557142Y-55206247D02*
X61604761Y-55396723D01*
X61604761Y-55396723D02*
X61652380Y-55491961D01*
X61652380Y-55491961D02*
X61747618Y-55587200D01*
X61747618Y-55587200D02*
X61890475Y-55634819D01*
X61890475Y-55634819D02*
X62128570Y-55634819D01*
X60509522Y-54634819D02*
X60176189Y-55634819D01*
X60176189Y-55634819D02*
X59842856Y-54634819D01*
X59319046Y-54634819D02*
X59223808Y-54634819D01*
X59223808Y-54634819D02*
X59128570Y-54682438D01*
X59128570Y-54682438D02*
X59080951Y-54730057D01*
X59080951Y-54730057D02*
X59033332Y-54825295D01*
X59033332Y-54825295D02*
X58985713Y-55015771D01*
X58985713Y-55015771D02*
X58985713Y-55253866D01*
X58985713Y-55253866D02*
X59033332Y-55444342D01*
X59033332Y-55444342D02*
X59080951Y-55539580D01*
X59080951Y-55539580D02*
X59128570Y-55587200D01*
X59128570Y-55587200D02*
X59223808Y-55634819D01*
X59223808Y-55634819D02*
X59319046Y-55634819D01*
X59319046Y-55634819D02*
X59414284Y-55587200D01*
X59414284Y-55587200D02*
X59461903Y-55539580D01*
X59461903Y-55539580D02*
X59509522Y-55444342D01*
X59509522Y-55444342D02*
X59557141Y-55253866D01*
X59557141Y-55253866D02*
X59557141Y-55015771D01*
X59557141Y-55015771D02*
X59509522Y-54825295D01*
X59509522Y-54825295D02*
X59461903Y-54730057D01*
X59461903Y-54730057D02*
X59414284Y-54682438D01*
X59414284Y-54682438D02*
X59319046Y-54634819D01*
X58557141Y-55539580D02*
X58509522Y-55587200D01*
X58509522Y-55587200D02*
X58557141Y-55634819D01*
X58557141Y-55634819D02*
X58604760Y-55587200D01*
X58604760Y-55587200D02*
X58557141Y-55539580D01*
X58557141Y-55539580D02*
X58557141Y-55634819D01*
X57557142Y-55634819D02*
X58128570Y-55634819D01*
X57842856Y-55634819D02*
X57842856Y-54634819D01*
X57842856Y-54634819D02*
X57938094Y-54777676D01*
X57938094Y-54777676D02*
X58033332Y-54872914D01*
X58033332Y-54872914D02*
X58128570Y-54920533D01*
X55795237Y-55634819D02*
X56128570Y-55158628D01*
X56366665Y-55634819D02*
X56366665Y-54634819D01*
X56366665Y-54634819D02*
X55985713Y-54634819D01*
X55985713Y-54634819D02*
X55890475Y-54682438D01*
X55890475Y-54682438D02*
X55842856Y-54730057D01*
X55842856Y-54730057D02*
X55795237Y-54825295D01*
X55795237Y-54825295D02*
X55795237Y-54968152D01*
X55795237Y-54968152D02*
X55842856Y-55063390D01*
X55842856Y-55063390D02*
X55890475Y-55111009D01*
X55890475Y-55111009D02*
X55985713Y-55158628D01*
X55985713Y-55158628D02*
X56366665Y-55158628D01*
X55414284Y-54730057D02*
X55366665Y-54682438D01*
X55366665Y-54682438D02*
X55271427Y-54634819D01*
X55271427Y-54634819D02*
X55033332Y-54634819D01*
X55033332Y-54634819D02*
X54938094Y-54682438D01*
X54938094Y-54682438D02*
X54890475Y-54730057D01*
X54890475Y-54730057D02*
X54842856Y-54825295D01*
X54842856Y-54825295D02*
X54842856Y-54920533D01*
X54842856Y-54920533D02*
X54890475Y-55063390D01*
X54890475Y-55063390D02*
X55461903Y-55634819D01*
X55461903Y-55634819D02*
X54842856Y-55634819D01*
X68938094Y-56578152D02*
X68747618Y-57244819D01*
X68747618Y-57244819D02*
X68557142Y-56768628D01*
X68557142Y-56768628D02*
X68366666Y-57244819D01*
X68366666Y-57244819D02*
X68176190Y-56578152D01*
X67890475Y-56578152D02*
X67699999Y-57244819D01*
X67699999Y-57244819D02*
X67509523Y-56768628D01*
X67509523Y-56768628D02*
X67319047Y-57244819D01*
X67319047Y-57244819D02*
X67128571Y-56578152D01*
X66842856Y-56578152D02*
X66652380Y-57244819D01*
X66652380Y-57244819D02*
X66461904Y-56768628D01*
X66461904Y-56768628D02*
X66271428Y-57244819D01*
X66271428Y-57244819D02*
X66080952Y-56578152D01*
X65699999Y-57149580D02*
X65652380Y-57197200D01*
X65652380Y-57197200D02*
X65699999Y-57244819D01*
X65699999Y-57244819D02*
X65747618Y-57197200D01*
X65747618Y-57197200D02*
X65699999Y-57149580D01*
X65699999Y-57149580D02*
X65699999Y-57244819D01*
X65223809Y-57244819D02*
X65223809Y-56578152D01*
X65223809Y-56244819D02*
X65271428Y-56292438D01*
X65271428Y-56292438D02*
X65223809Y-56340057D01*
X65223809Y-56340057D02*
X65176190Y-56292438D01*
X65176190Y-56292438D02*
X65223809Y-56244819D01*
X65223809Y-56244819D02*
X65223809Y-56340057D01*
X64604762Y-57244819D02*
X64700000Y-57197200D01*
X64700000Y-57197200D02*
X64747619Y-57149580D01*
X64747619Y-57149580D02*
X64795238Y-57054342D01*
X64795238Y-57054342D02*
X64795238Y-56768628D01*
X64795238Y-56768628D02*
X64747619Y-56673390D01*
X64747619Y-56673390D02*
X64700000Y-56625771D01*
X64700000Y-56625771D02*
X64604762Y-56578152D01*
X64604762Y-56578152D02*
X64461905Y-56578152D01*
X64461905Y-56578152D02*
X64366667Y-56625771D01*
X64366667Y-56625771D02*
X64319048Y-56673390D01*
X64319048Y-56673390D02*
X64271429Y-56768628D01*
X64271429Y-56768628D02*
X64271429Y-57054342D01*
X64271429Y-57054342D02*
X64319048Y-57149580D01*
X64319048Y-57149580D02*
X64366667Y-57197200D01*
X64366667Y-57197200D02*
X64461905Y-57244819D01*
X64461905Y-57244819D02*
X64604762Y-57244819D01*
X63842857Y-57244819D02*
X63842857Y-56578152D01*
X63842857Y-56768628D02*
X63795238Y-56673390D01*
X63795238Y-56673390D02*
X63747619Y-56625771D01*
X63747619Y-56625771D02*
X63652381Y-56578152D01*
X63652381Y-56578152D02*
X63557143Y-56578152D01*
X63080952Y-57244819D02*
X63176190Y-57197200D01*
X63176190Y-57197200D02*
X63223809Y-57149580D01*
X63223809Y-57149580D02*
X63271428Y-57054342D01*
X63271428Y-57054342D02*
X63271428Y-56768628D01*
X63271428Y-56768628D02*
X63223809Y-56673390D01*
X63223809Y-56673390D02*
X63176190Y-56625771D01*
X63176190Y-56625771D02*
X63080952Y-56578152D01*
X63080952Y-56578152D02*
X62938095Y-56578152D01*
X62938095Y-56578152D02*
X62842857Y-56625771D01*
X62842857Y-56625771D02*
X62795238Y-56673390D01*
X62795238Y-56673390D02*
X62747619Y-56768628D01*
X62747619Y-56768628D02*
X62747619Y-57054342D01*
X62747619Y-57054342D02*
X62795238Y-57149580D01*
X62795238Y-57149580D02*
X62842857Y-57197200D01*
X62842857Y-57197200D02*
X62938095Y-57244819D01*
X62938095Y-57244819D02*
X63080952Y-57244819D01*
X61890476Y-57244819D02*
X61890476Y-56244819D01*
X61890476Y-57197200D02*
X61985714Y-57244819D01*
X61985714Y-57244819D02*
X62176190Y-57244819D01*
X62176190Y-57244819D02*
X62271428Y-57197200D01*
X62271428Y-57197200D02*
X62319047Y-57149580D01*
X62319047Y-57149580D02*
X62366666Y-57054342D01*
X62366666Y-57054342D02*
X62366666Y-56768628D01*
X62366666Y-56768628D02*
X62319047Y-56673390D01*
X62319047Y-56673390D02*
X62271428Y-56625771D01*
X62271428Y-56625771D02*
X62176190Y-56578152D01*
X62176190Y-56578152D02*
X61985714Y-56578152D01*
X61985714Y-56578152D02*
X61890476Y-56625771D01*
X61033333Y-57197200D02*
X61128571Y-57244819D01*
X61128571Y-57244819D02*
X61319047Y-57244819D01*
X61319047Y-57244819D02*
X61414285Y-57197200D01*
X61414285Y-57197200D02*
X61461904Y-57101961D01*
X61461904Y-57101961D02*
X61461904Y-56721009D01*
X61461904Y-56721009D02*
X61414285Y-56625771D01*
X61414285Y-56625771D02*
X61319047Y-56578152D01*
X61319047Y-56578152D02*
X61128571Y-56578152D01*
X61128571Y-56578152D02*
X61033333Y-56625771D01*
X61033333Y-56625771D02*
X60985714Y-56721009D01*
X60985714Y-56721009D02*
X60985714Y-56816247D01*
X60985714Y-56816247D02*
X61461904Y-56911485D01*
X60414285Y-57244819D02*
X60509523Y-57197200D01*
X60509523Y-57197200D02*
X60557142Y-57149580D01*
X60557142Y-57149580D02*
X60604761Y-57054342D01*
X60604761Y-57054342D02*
X60604761Y-56768628D01*
X60604761Y-56768628D02*
X60557142Y-56673390D01*
X60557142Y-56673390D02*
X60509523Y-56625771D01*
X60509523Y-56625771D02*
X60414285Y-56578152D01*
X60414285Y-56578152D02*
X60271428Y-56578152D01*
X60271428Y-56578152D02*
X60176190Y-56625771D01*
X60176190Y-56625771D02*
X60128571Y-56673390D01*
X60128571Y-56673390D02*
X60080952Y-56768628D01*
X60080952Y-56768628D02*
X60080952Y-57054342D01*
X60080952Y-57054342D02*
X60128571Y-57149580D01*
X60128571Y-57149580D02*
X60176190Y-57197200D01*
X60176190Y-57197200D02*
X60271428Y-57244819D01*
X60271428Y-57244819D02*
X60414285Y-57244819D01*
X59652380Y-57149580D02*
X59604761Y-57197200D01*
X59604761Y-57197200D02*
X59652380Y-57244819D01*
X59652380Y-57244819D02*
X59699999Y-57197200D01*
X59699999Y-57197200D02*
X59652380Y-57149580D01*
X59652380Y-57149580D02*
X59652380Y-57244819D01*
X58747619Y-57197200D02*
X58842857Y-57244819D01*
X58842857Y-57244819D02*
X59033333Y-57244819D01*
X59033333Y-57244819D02*
X59128571Y-57197200D01*
X59128571Y-57197200D02*
X59176190Y-57149580D01*
X59176190Y-57149580D02*
X59223809Y-57054342D01*
X59223809Y-57054342D02*
X59223809Y-56768628D01*
X59223809Y-56768628D02*
X59176190Y-56673390D01*
X59176190Y-56673390D02*
X59128571Y-56625771D01*
X59128571Y-56625771D02*
X59033333Y-56578152D01*
X59033333Y-56578152D02*
X58842857Y-56578152D01*
X58842857Y-56578152D02*
X58747619Y-56625771D01*
X58176190Y-57244819D02*
X58271428Y-57197200D01*
X58271428Y-57197200D02*
X58319047Y-57149580D01*
X58319047Y-57149580D02*
X58366666Y-57054342D01*
X58366666Y-57054342D02*
X58366666Y-56768628D01*
X58366666Y-56768628D02*
X58319047Y-56673390D01*
X58319047Y-56673390D02*
X58271428Y-56625771D01*
X58271428Y-56625771D02*
X58176190Y-56578152D01*
X58176190Y-56578152D02*
X58033333Y-56578152D01*
X58033333Y-56578152D02*
X57938095Y-56625771D01*
X57938095Y-56625771D02*
X57890476Y-56673390D01*
X57890476Y-56673390D02*
X57842857Y-56768628D01*
X57842857Y-56768628D02*
X57842857Y-57054342D01*
X57842857Y-57054342D02*
X57890476Y-57149580D01*
X57890476Y-57149580D02*
X57938095Y-57197200D01*
X57938095Y-57197200D02*
X58033333Y-57244819D01*
X58033333Y-57244819D02*
X58176190Y-57244819D01*
X57414285Y-57244819D02*
X57414285Y-56578152D01*
X57414285Y-56673390D02*
X57366666Y-56625771D01*
X57366666Y-56625771D02*
X57271428Y-56578152D01*
X57271428Y-56578152D02*
X57128571Y-56578152D01*
X57128571Y-56578152D02*
X57033333Y-56625771D01*
X57033333Y-56625771D02*
X56985714Y-56721009D01*
X56985714Y-56721009D02*
X56985714Y-57244819D01*
X56985714Y-56721009D02*
X56938095Y-56625771D01*
X56938095Y-56625771D02*
X56842857Y-56578152D01*
X56842857Y-56578152D02*
X56700000Y-56578152D01*
X56700000Y-56578152D02*
X56604761Y-56625771D01*
X56604761Y-56625771D02*
X56557142Y-56721009D01*
X56557142Y-56721009D02*
X56557142Y-57244819D01*
X67771428Y-63684819D02*
X68104761Y-63208628D01*
X68342856Y-63684819D02*
X68342856Y-62684819D01*
X68342856Y-62684819D02*
X67961904Y-62684819D01*
X67961904Y-62684819D02*
X67866666Y-62732438D01*
X67866666Y-62732438D02*
X67819047Y-62780057D01*
X67819047Y-62780057D02*
X67771428Y-62875295D01*
X67771428Y-62875295D02*
X67771428Y-63018152D01*
X67771428Y-63018152D02*
X67819047Y-63113390D01*
X67819047Y-63113390D02*
X67866666Y-63161009D01*
X67866666Y-63161009D02*
X67961904Y-63208628D01*
X67961904Y-63208628D02*
X68342856Y-63208628D01*
X66914285Y-63684819D02*
X66914285Y-63161009D01*
X66914285Y-63161009D02*
X66961904Y-63065771D01*
X66961904Y-63065771D02*
X67057142Y-63018152D01*
X67057142Y-63018152D02*
X67247618Y-63018152D01*
X67247618Y-63018152D02*
X67342856Y-63065771D01*
X66914285Y-63637200D02*
X67009523Y-63684819D01*
X67009523Y-63684819D02*
X67247618Y-63684819D01*
X67247618Y-63684819D02*
X67342856Y-63637200D01*
X67342856Y-63637200D02*
X67390475Y-63541961D01*
X67390475Y-63541961D02*
X67390475Y-63446723D01*
X67390475Y-63446723D02*
X67342856Y-63351485D01*
X67342856Y-63351485D02*
X67247618Y-63303866D01*
X67247618Y-63303866D02*
X67009523Y-63303866D01*
X67009523Y-63303866D02*
X66914285Y-63256247D01*
X66009523Y-63684819D02*
X66009523Y-62684819D01*
X66009523Y-63637200D02*
X66104761Y-63684819D01*
X66104761Y-63684819D02*
X66295237Y-63684819D01*
X66295237Y-63684819D02*
X66390475Y-63637200D01*
X66390475Y-63637200D02*
X66438094Y-63589580D01*
X66438094Y-63589580D02*
X66485713Y-63494342D01*
X66485713Y-63494342D02*
X66485713Y-63208628D01*
X66485713Y-63208628D02*
X66438094Y-63113390D01*
X66438094Y-63113390D02*
X66390475Y-63065771D01*
X66390475Y-63065771D02*
X66295237Y-63018152D01*
X66295237Y-63018152D02*
X66104761Y-63018152D01*
X66104761Y-63018152D02*
X66009523Y-63065771D01*
X65533332Y-63684819D02*
X65533332Y-63018152D01*
X65533332Y-62684819D02*
X65580951Y-62732438D01*
X65580951Y-62732438D02*
X65533332Y-62780057D01*
X65533332Y-62780057D02*
X65485713Y-62732438D01*
X65485713Y-62732438D02*
X65533332Y-62684819D01*
X65533332Y-62684819D02*
X65533332Y-62780057D01*
X64628571Y-63684819D02*
X64628571Y-63161009D01*
X64628571Y-63161009D02*
X64676190Y-63065771D01*
X64676190Y-63065771D02*
X64771428Y-63018152D01*
X64771428Y-63018152D02*
X64961904Y-63018152D01*
X64961904Y-63018152D02*
X65057142Y-63065771D01*
X64628571Y-63637200D02*
X64723809Y-63684819D01*
X64723809Y-63684819D02*
X64961904Y-63684819D01*
X64961904Y-63684819D02*
X65057142Y-63637200D01*
X65057142Y-63637200D02*
X65104761Y-63541961D01*
X65104761Y-63541961D02*
X65104761Y-63446723D01*
X65104761Y-63446723D02*
X65057142Y-63351485D01*
X65057142Y-63351485D02*
X64961904Y-63303866D01*
X64961904Y-63303866D02*
X64723809Y-63303866D01*
X64723809Y-63303866D02*
X64628571Y-63256247D01*
X64009523Y-63684819D02*
X64104761Y-63637200D01*
X64104761Y-63637200D02*
X64152380Y-63541961D01*
X64152380Y-63541961D02*
X64152380Y-62684819D01*
X63580951Y-63637200D02*
X63580951Y-63684819D01*
X63580951Y-63684819D02*
X63628570Y-63780057D01*
X63628570Y-63780057D02*
X63676189Y-63827676D01*
X62390475Y-63684819D02*
X62390475Y-62684819D01*
X61914285Y-63161009D02*
X61152381Y-63161009D01*
X61152381Y-63446723D02*
X61914285Y-63446723D01*
X60723809Y-62780057D02*
X60676190Y-62732438D01*
X60676190Y-62732438D02*
X60580952Y-62684819D01*
X60580952Y-62684819D02*
X60342857Y-62684819D01*
X60342857Y-62684819D02*
X60247619Y-62732438D01*
X60247619Y-62732438D02*
X60200000Y-62780057D01*
X60200000Y-62780057D02*
X60152381Y-62875295D01*
X60152381Y-62875295D02*
X60152381Y-62970533D01*
X60152381Y-62970533D02*
X60200000Y-63113390D01*
X60200000Y-63113390D02*
X60771428Y-63684819D01*
X60771428Y-63684819D02*
X60152381Y-63684819D01*
X59295238Y-63018152D02*
X59295238Y-63684819D01*
X59533333Y-62637200D02*
X59771428Y-63351485D01*
X59771428Y-63351485D02*
X59152381Y-63351485D01*
X58771428Y-63684819D02*
X58771428Y-63018152D01*
X58771428Y-63113390D02*
X58723809Y-63065771D01*
X58723809Y-63065771D02*
X58628571Y-63018152D01*
X58628571Y-63018152D02*
X58485714Y-63018152D01*
X58485714Y-63018152D02*
X58390476Y-63065771D01*
X58390476Y-63065771D02*
X58342857Y-63161009D01*
X58342857Y-63161009D02*
X58342857Y-63684819D01*
X58342857Y-63161009D02*
X58295238Y-63065771D01*
X58295238Y-63065771D02*
X58200000Y-63018152D01*
X58200000Y-63018152D02*
X58057143Y-63018152D01*
X58057143Y-63018152D02*
X57961904Y-63065771D01*
X57961904Y-63065771D02*
X57914285Y-63161009D01*
X57914285Y-63161009D02*
X57914285Y-63684819D01*
X57485714Y-63399104D02*
X57009524Y-63399104D01*
X57580952Y-63684819D02*
X57247619Y-62684819D01*
X57247619Y-62684819D02*
X56914286Y-63684819D01*
X67771427Y-64294819D02*
X67438094Y-65294819D01*
X67438094Y-65294819D02*
X67104761Y-64294819D01*
X66771427Y-65294819D02*
X66771427Y-64628152D01*
X66771427Y-64294819D02*
X66819046Y-64342438D01*
X66819046Y-64342438D02*
X66771427Y-64390057D01*
X66771427Y-64390057D02*
X66723808Y-64342438D01*
X66723808Y-64342438D02*
X66771427Y-64294819D01*
X66771427Y-64294819D02*
X66771427Y-64390057D01*
X66295237Y-64628152D02*
X66295237Y-65294819D01*
X66295237Y-64723390D02*
X66247618Y-64675771D01*
X66247618Y-64675771D02*
X66152380Y-64628152D01*
X66152380Y-64628152D02*
X66009523Y-64628152D01*
X66009523Y-64628152D02*
X65914285Y-64675771D01*
X65914285Y-64675771D02*
X65866666Y-64771009D01*
X65866666Y-64771009D02*
X65866666Y-65294819D01*
X65390475Y-64771009D02*
X64628571Y-64771009D01*
X64628571Y-65056723D02*
X65390475Y-65056723D01*
X64247618Y-64294819D02*
X63628571Y-64294819D01*
X63628571Y-64294819D02*
X63961904Y-64675771D01*
X63961904Y-64675771D02*
X63819047Y-64675771D01*
X63819047Y-64675771D02*
X63723809Y-64723390D01*
X63723809Y-64723390D02*
X63676190Y-64771009D01*
X63676190Y-64771009D02*
X63628571Y-64866247D01*
X63628571Y-64866247D02*
X63628571Y-65104342D01*
X63628571Y-65104342D02*
X63676190Y-65199580D01*
X63676190Y-65199580D02*
X63723809Y-65247200D01*
X63723809Y-65247200D02*
X63819047Y-65294819D01*
X63819047Y-65294819D02*
X64104761Y-65294819D01*
X64104761Y-65294819D02*
X64199999Y-65247200D01*
X64199999Y-65247200D02*
X64247618Y-65199580D01*
X63199999Y-65199580D02*
X63152380Y-65247200D01*
X63152380Y-65247200D02*
X63199999Y-65294819D01*
X63199999Y-65294819D02*
X63247618Y-65247200D01*
X63247618Y-65247200D02*
X63199999Y-65199580D01*
X63199999Y-65199580D02*
X63199999Y-65294819D01*
X62819047Y-64294819D02*
X62200000Y-64294819D01*
X62200000Y-64294819D02*
X62533333Y-64675771D01*
X62533333Y-64675771D02*
X62390476Y-64675771D01*
X62390476Y-64675771D02*
X62295238Y-64723390D01*
X62295238Y-64723390D02*
X62247619Y-64771009D01*
X62247619Y-64771009D02*
X62200000Y-64866247D01*
X62200000Y-64866247D02*
X62200000Y-65104342D01*
X62200000Y-65104342D02*
X62247619Y-65199580D01*
X62247619Y-65199580D02*
X62295238Y-65247200D01*
X62295238Y-65247200D02*
X62390476Y-65294819D01*
X62390476Y-65294819D02*
X62676190Y-65294819D01*
X62676190Y-65294819D02*
X62771428Y-65247200D01*
X62771428Y-65247200D02*
X62819047Y-65199580D01*
X61771428Y-64913866D02*
X61009524Y-64913866D01*
X60057143Y-64294819D02*
X60533333Y-64294819D01*
X60533333Y-64294819D02*
X60580952Y-64771009D01*
X60580952Y-64771009D02*
X60533333Y-64723390D01*
X60533333Y-64723390D02*
X60438095Y-64675771D01*
X60438095Y-64675771D02*
X60200000Y-64675771D01*
X60200000Y-64675771D02*
X60104762Y-64723390D01*
X60104762Y-64723390D02*
X60057143Y-64771009D01*
X60057143Y-64771009D02*
X60009524Y-64866247D01*
X60009524Y-64866247D02*
X60009524Y-65104342D01*
X60009524Y-65104342D02*
X60057143Y-65199580D01*
X60057143Y-65199580D02*
X60104762Y-65247200D01*
X60104762Y-65247200D02*
X60200000Y-65294819D01*
X60200000Y-65294819D02*
X60438095Y-65294819D01*
X60438095Y-65294819D02*
X60533333Y-65247200D01*
X60533333Y-65247200D02*
X60580952Y-65199580D01*
X59580952Y-65199580D02*
X59533333Y-65247200D01*
X59533333Y-65247200D02*
X59580952Y-65294819D01*
X59580952Y-65294819D02*
X59628571Y-65247200D01*
X59628571Y-65247200D02*
X59580952Y-65199580D01*
X59580952Y-65199580D02*
X59580952Y-65294819D01*
X58914286Y-64294819D02*
X58819048Y-64294819D01*
X58819048Y-64294819D02*
X58723810Y-64342438D01*
X58723810Y-64342438D02*
X58676191Y-64390057D01*
X58676191Y-64390057D02*
X58628572Y-64485295D01*
X58628572Y-64485295D02*
X58580953Y-64675771D01*
X58580953Y-64675771D02*
X58580953Y-64913866D01*
X58580953Y-64913866D02*
X58628572Y-65104342D01*
X58628572Y-65104342D02*
X58676191Y-65199580D01*
X58676191Y-65199580D02*
X58723810Y-65247200D01*
X58723810Y-65247200D02*
X58819048Y-65294819D01*
X58819048Y-65294819D02*
X58914286Y-65294819D01*
X58914286Y-65294819D02*
X59009524Y-65247200D01*
X59009524Y-65247200D02*
X59057143Y-65199580D01*
X59057143Y-65199580D02*
X59104762Y-65104342D01*
X59104762Y-65104342D02*
X59152381Y-64913866D01*
X59152381Y-64913866D02*
X59152381Y-64675771D01*
X59152381Y-64675771D02*
X59104762Y-64485295D01*
X59104762Y-64485295D02*
X59057143Y-64390057D01*
X59057143Y-64390057D02*
X59009524Y-64342438D01*
X59009524Y-64342438D02*
X58914286Y-64294819D01*
X58295238Y-64294819D02*
X57961905Y-65294819D01*
X57961905Y-65294819D02*
X57628572Y-64294819D01*
%TO.C,M1*%
X54990000Y-52540000D02*
G75*
G03*
X54990000Y-52540000I-2450000J0D01*
G01*
%TO.C,M2*%
X75310000Y-52540000D02*
G75*
G03*
X75310000Y-52540000I-2450000J0D01*
G01*
%TO.C,M3*%
X75310000Y-67460000D02*
G75*
G03*
X75310000Y-67460000I-2450000J0D01*
G01*
%TO.C,M4*%
X54990000Y-67460000D02*
G75*
G03*
X54990000Y-67460000I-2450000J0D01*
G01*
%TD*%
M02*
