%TF.GenerationSoftware,KiCad,Pcbnew,7.0.2-6a45011f42~172~ubuntu22.04.1*%
%TF.CreationDate,2023-09-15T13:09:00-07:00*%
%TF.ProjectId,i_control_led,695f636f-6e74-4726-9f6c-5f6c65642e6b,rev?*%
%TF.SameCoordinates,Original*%
%TF.FileFunction,Copper,L1,Top*%
%TF.FilePolarity,Positive*%
%FSLAX46Y46*%
G04 Gerber Fmt 4.6, Leading zero omitted, Abs format (unit mm)*
G04 Created by KiCad (PCBNEW 7.0.2-6a45011f42~172~ubuntu22.04.1) date 2023-09-15 13:09:00*
%MOMM*%
%LPD*%
G01*
G04 APERTURE LIST*
G04 Aperture macros list*
%AMRoundRect*
0 Rectangle with rounded corners*
0 $1 Rounding radius*
0 $2 $3 $4 $5 $6 $7 $8 $9 X,Y pos of 4 corners*
0 Add a 4 corners polygon primitive as box body*
4,1,4,$2,$3,$4,$5,$6,$7,$8,$9,$2,$3,0*
0 Add four circle primitives for the rounded corners*
1,1,$1+$1,$2,$3*
1,1,$1+$1,$4,$5*
1,1,$1+$1,$6,$7*
1,1,$1+$1,$8,$9*
0 Add four rect primitives between the rounded corners*
20,1,$1+$1,$2,$3,$4,$5,0*
20,1,$1+$1,$4,$5,$6,$7,0*
20,1,$1+$1,$6,$7,$8,$9,0*
20,1,$1+$1,$8,$9,$2,$3,0*%
G04 Aperture macros list end*
%TA.AperFunction,ComponentPad*%
%ADD10C,3.570000*%
%TD*%
%TA.AperFunction,SMDPad,CuDef*%
%ADD11RoundRect,0.218750X-0.256250X0.218750X-0.256250X-0.218750X0.256250X-0.218750X0.256250X0.218750X0*%
%TD*%
%TA.AperFunction,SMDPad,CuDef*%
%ADD12R,3.000000X0.800000*%
%TD*%
%TA.AperFunction,SMDPad,CuDef*%
%ADD13R,1.600000X0.400000*%
%TD*%
%TA.AperFunction,SMDPad,CuDef*%
%ADD14RoundRect,0.135000X-0.185000X0.135000X-0.185000X-0.135000X0.185000X-0.135000X0.185000X0.135000X0*%
%TD*%
%TA.AperFunction,SMDPad,CuDef*%
%ADD15RoundRect,0.150000X0.512500X0.150000X-0.512500X0.150000X-0.512500X-0.150000X0.512500X-0.150000X0*%
%TD*%
%TA.AperFunction,SMDPad,CuDef*%
%ADD16RoundRect,0.140000X0.170000X-0.140000X0.170000X0.140000X-0.170000X0.140000X-0.170000X-0.140000X0*%
%TD*%
%TA.AperFunction,SMDPad,CuDef*%
%ADD17R,0.500000X0.250000*%
%TD*%
%TA.AperFunction,ComponentPad*%
%ADD18C,0.600000*%
%TD*%
%TA.AperFunction,SMDPad,CuDef*%
%ADD19R,0.900000X1.600000*%
%TD*%
%TA.AperFunction,SMDPad,CuDef*%
%ADD20RoundRect,0.135000X0.185000X-0.135000X0.185000X0.135000X-0.185000X0.135000X-0.185000X-0.135000X0*%
%TD*%
%TA.AperFunction,SMDPad,CuDef*%
%ADD21RoundRect,0.135000X-0.135000X-0.185000X0.135000X-0.185000X0.135000X0.185000X-0.135000X0.185000X0*%
%TD*%
%TA.AperFunction,SMDPad,CuDef*%
%ADD22RoundRect,0.140000X-0.170000X0.140000X-0.170000X-0.140000X0.170000X-0.140000X0.170000X0.140000X0*%
%TD*%
%TA.AperFunction,SMDPad,CuDef*%
%ADD23RoundRect,0.150000X-0.150000X0.587500X-0.150000X-0.587500X0.150000X-0.587500X0.150000X0.587500X0*%
%TD*%
%TA.AperFunction,ViaPad*%
%ADD24C,0.600000*%
%TD*%
%TA.AperFunction,Conductor*%
%ADD25C,0.250000*%
%TD*%
G04 APERTURE END LIST*
D10*
%TO.P,M1,~*%
%TO.N,N/C*%
X52540000Y-52540000D03*
%TD*%
%TO.P,M2,~*%
%TO.N,N/C*%
X72860000Y-52540000D03*
%TD*%
%TO.P,M3,~*%
%TO.N,N/C*%
X72860000Y-67460000D03*
%TD*%
%TO.P,M4,~*%
%TO.N,N/C*%
X52540000Y-67460000D03*
%TD*%
D11*
%TO.P,D1,1,K*%
%TO.N,Net-(D1-K)*%
X62700000Y-59212500D03*
%TO.P,D1,2,A*%
%TO.N,Net-(D1-A)*%
X62700000Y-60787500D03*
%TD*%
D12*
%TO.P,J1,*%
%TO.N,*%
X52300000Y-62650000D03*
X52300000Y-57350000D03*
D13*
%TO.P,J1,1,Pin_1*%
%TO.N,GND*%
X54625000Y-58500000D03*
%TO.P,J1,2,Pin_2*%
%TO.N,/VIN*%
X54625000Y-59500000D03*
%TO.P,J1,3,Pin_3*%
%TO.N,/SDA*%
X54625000Y-60500000D03*
%TO.P,J1,4,Pin_4*%
%TO.N,/SCL*%
X54625000Y-61500000D03*
%TD*%
D12*
%TO.P,J2,*%
%TO.N,*%
X73100000Y-57350000D03*
X73100000Y-62650000D03*
D13*
%TO.P,J2,1,Pin_1*%
%TO.N,GND*%
X70775000Y-61500000D03*
%TO.P,J2,2,Pin_2*%
%TO.N,/VIN*%
X70775000Y-60500000D03*
%TO.P,J2,3,Pin_3*%
%TO.N,/SDA*%
X70775000Y-59500000D03*
%TO.P,J2,4,Pin_4*%
%TO.N,/SCL*%
X70775000Y-58500000D03*
%TD*%
D14*
%TO.P,R1,1*%
%TO.N,Net-(D1-K)*%
X68870000Y-62540000D03*
%TO.P,R1,2*%
%TO.N,GND*%
X68870000Y-63560000D03*
%TD*%
D15*
%TO.P,U2,1,+*%
%TO.N,/Vset*%
X67100000Y-65375000D03*
%TO.P,U2,2,V-*%
%TO.N,GND*%
X67100000Y-64425000D03*
%TO.P,U2,3,-*%
%TO.N,Net-(D1-K)*%
X67100000Y-63475000D03*
%TO.P,U2,4*%
%TO.N,Net-(Q1-B)*%
X64825000Y-63475000D03*
%TO.P,U2,5,V+*%
%TO.N,/5V*%
X64825000Y-65375000D03*
%TD*%
D16*
%TO.P,C4,1*%
%TO.N,/5V*%
X63150000Y-65430000D03*
%TO.P,C4,2*%
%TO.N,GND*%
X63150000Y-64470000D03*
%TD*%
D17*
%TO.P,U1,1,PFM*%
%TO.N,GND*%
X61875000Y-53990000D03*
%TO.P,U1,2,C1-*%
%TO.N,Net-(U1-C1-)*%
X61875000Y-54490000D03*
%TO.P,U1,3,C1+*%
%TO.N,Net-(U1-C1+)*%
X61875000Y-54990000D03*
%TO.P,U1,4,OUTDIS*%
%TO.N,/VIN*%
X61875000Y-55490000D03*
%TO.P,U1,5,EN*%
X63775000Y-55490000D03*
%TO.P,U1,6,VOUT*%
%TO.N,/5V*%
X63775000Y-54990000D03*
%TO.P,U1,7,VIN*%
%TO.N,/VIN*%
X63775000Y-54490000D03*
%TO.P,U1,8,GND*%
%TO.N,GND*%
X63775000Y-53990000D03*
D18*
%TO.P,U1,9,GND*%
X62825000Y-54240000D03*
D19*
X62825000Y-54740000D03*
D18*
X62825000Y-55240000D03*
%TD*%
D16*
%TO.P,C3,1*%
%TO.N,/5V*%
X67140000Y-54130000D03*
%TO.P,C3,2*%
%TO.N,GND*%
X67140000Y-53170000D03*
%TD*%
D20*
%TO.P,R3,1*%
%TO.N,/Vset*%
X68880000Y-66630000D03*
%TO.P,R3,2*%
%TO.N,GND*%
X68880000Y-65610000D03*
%TD*%
D21*
%TO.P,R2,1*%
%TO.N,/5V*%
X65455000Y-66975000D03*
%TO.P,R2,2*%
%TO.N,/Vset*%
X66475000Y-66975000D03*
%TD*%
D22*
%TO.P,C1,1*%
%TO.N,GND*%
X65200000Y-53185000D03*
%TO.P,C1,2*%
%TO.N,/VIN*%
X65200000Y-54145000D03*
%TD*%
D16*
%TO.P,C5,1*%
%TO.N,/5V*%
X61925000Y-65435000D03*
%TO.P,C5,2*%
%TO.N,GND*%
X61925000Y-64475000D03*
%TD*%
D23*
%TO.P,Q1,1,B*%
%TO.N,Net-(Q1-B)*%
X59500000Y-63225000D03*
%TO.P,Q1,2,E*%
%TO.N,Net-(D1-A)*%
X57600000Y-63225000D03*
%TO.P,Q1,3,C*%
%TO.N,/5V*%
X58550000Y-65100000D03*
%TD*%
D16*
%TO.P,C2,1*%
%TO.N,Net-(U1-C1+)*%
X60330000Y-55110000D03*
%TO.P,C2,2*%
%TO.N,Net-(U1-C1-)*%
X60330000Y-54150000D03*
%TD*%
D24*
%TO.N,GND*%
X68880000Y-64435000D03*
X62850000Y-53100000D03*
X69110000Y-61500000D03*
X56100000Y-58500000D03*
X64250000Y-64470000D03*
%TO.N,/VIN*%
X65040000Y-55614500D03*
X66100000Y-54145000D03*
%TO.N,/SCL*%
X69330000Y-58490000D03*
X66440000Y-58490000D03*
%TO.N,/SDA*%
X56400000Y-60500000D03*
X69350000Y-59525000D03*
%TO.N,/5V*%
X70741589Y-63701589D03*
X66800000Y-54990000D03*
%TD*%
D25*
%TO.N,GND*%
X68880000Y-65610000D02*
X68880000Y-64435000D01*
X69135000Y-64425000D02*
X70775000Y-62785000D01*
X62825000Y-53125000D02*
X62850000Y-53100000D01*
X64765000Y-53185000D02*
X65200000Y-53185000D01*
X63775000Y-53990000D02*
X63960000Y-53990000D01*
X62825000Y-54240000D02*
X63075000Y-53990000D01*
X65200000Y-53185000D02*
X67125000Y-53185000D01*
X68425000Y-64425000D02*
X68890000Y-64425000D01*
X68870000Y-64405000D02*
X68890000Y-64425000D01*
X63150000Y-64470000D02*
X61930000Y-64470000D01*
X63150000Y-64470000D02*
X64250000Y-64470000D01*
X62575000Y-53990000D02*
X62825000Y-54240000D01*
X63075000Y-53990000D02*
X63775000Y-53990000D01*
X67100000Y-64425000D02*
X68425000Y-64425000D01*
X68890000Y-64425000D02*
X69135000Y-64425000D01*
X70775000Y-62785000D02*
X70775000Y-61500000D01*
X67055000Y-64470000D02*
X67100000Y-64425000D01*
X62825000Y-54240000D02*
X62825000Y-53125000D01*
X63960000Y-53990000D02*
X64765000Y-53185000D01*
X68880000Y-64435000D02*
X68890000Y-64425000D01*
X68870000Y-63560000D02*
X68870000Y-64405000D01*
X64250000Y-64470000D02*
X67055000Y-64470000D01*
X69110000Y-61500000D02*
X70775000Y-61500000D01*
X67125000Y-53185000D02*
X67140000Y-53170000D01*
X54625000Y-58500000D02*
X55950000Y-58500000D01*
X61875000Y-53990000D02*
X62575000Y-53990000D01*
X61930000Y-64470000D02*
X61925000Y-64475000D01*
%TO.N,/VIN*%
X54625000Y-59500000D02*
X57275000Y-59500000D01*
X65040000Y-55614500D02*
X64594500Y-55614500D01*
X61285000Y-55490000D02*
X61875000Y-55490000D01*
X69350000Y-60500000D02*
X65177500Y-56327500D01*
X65177500Y-56327500D02*
X64190000Y-56327500D01*
X65040000Y-55614500D02*
X64327000Y-56327500D01*
X64190000Y-56327500D02*
X60447500Y-56327500D01*
X70775000Y-60500000D02*
X69350000Y-60500000D01*
X64655000Y-54145000D02*
X65200000Y-54145000D01*
X57275000Y-59500000D02*
X60447500Y-56327500D01*
X64594500Y-55614500D02*
X64470000Y-55490000D01*
X64310000Y-54490000D02*
X64655000Y-54145000D01*
X60447500Y-56327500D02*
X61285000Y-55490000D01*
X63775000Y-54490000D02*
X64310000Y-54490000D01*
X64470000Y-55490000D02*
X63775000Y-55490000D01*
X64327000Y-56327500D02*
X64190000Y-56327500D01*
X66100000Y-54145000D02*
X65200000Y-54145000D01*
%TO.N,Net-(U1-C1+)*%
X60330000Y-55110000D02*
X60930000Y-55110000D01*
X61050000Y-54990000D02*
X61875000Y-54990000D01*
X60930000Y-55110000D02*
X61050000Y-54990000D01*
%TO.N,/SCL*%
X65840000Y-57890000D02*
X61840000Y-57890000D01*
X58230000Y-61500000D02*
X54625000Y-61500000D01*
X69330000Y-58490000D02*
X70765000Y-58490000D01*
X66440000Y-58490000D02*
X65840000Y-57890000D01*
X61840000Y-57890000D02*
X58230000Y-61500000D01*
%TO.N,/SDA*%
X69350000Y-59525000D02*
X70750000Y-59525000D01*
X56400000Y-60500000D02*
X54625000Y-60500000D01*
X70750000Y-59525000D02*
X70775000Y-59500000D01*
%TO.N,Net-(U1-C1-)*%
X60720000Y-54150000D02*
X61060000Y-54490000D01*
X60330000Y-54150000D02*
X60720000Y-54150000D01*
X61060000Y-54490000D02*
X61875000Y-54490000D01*
%TO.N,/5V*%
X64825000Y-65375000D02*
X64825000Y-65575000D01*
X63145000Y-65435000D02*
X63150000Y-65430000D01*
X67140000Y-54650000D02*
X67140000Y-54130000D01*
X58550000Y-65100000D02*
X58885000Y-65435000D01*
X63850000Y-65430000D02*
X64770000Y-65430000D01*
X63150000Y-65430000D02*
X63850000Y-65430000D01*
X58885000Y-65435000D02*
X61925000Y-65435000D01*
X65455000Y-66205000D02*
X65455000Y-66975000D01*
X63775000Y-54990000D02*
X66800000Y-54990000D01*
X66010000Y-68000000D02*
X65455000Y-67445000D01*
X69850000Y-67200000D02*
X69050000Y-68000000D01*
X65455000Y-67445000D02*
X65455000Y-66975000D01*
X64825000Y-65575000D02*
X65455000Y-66205000D01*
X66800000Y-54990000D02*
X67140000Y-54650000D01*
X70741589Y-63701589D02*
X69850000Y-64593178D01*
X61925000Y-65435000D02*
X63145000Y-65435000D01*
X69050000Y-68000000D02*
X66010000Y-68000000D01*
X69850000Y-64593178D02*
X69850000Y-67200000D01*
X64770000Y-65430000D02*
X64825000Y-65375000D01*
%TO.N,Net-(D1-K)*%
X68450000Y-62540000D02*
X68870000Y-62540000D01*
X65412500Y-59212500D02*
X67100000Y-60900000D01*
X67100000Y-60900000D02*
X67100000Y-63475000D01*
X62700000Y-59212500D02*
X65412500Y-59212500D01*
X67515000Y-63475000D02*
X68450000Y-62540000D01*
X67100000Y-63475000D02*
X67515000Y-63475000D01*
%TO.N,Net-(D1-A)*%
X62080000Y-61990000D02*
X57920000Y-61990000D01*
X57600000Y-62310000D02*
X57600000Y-63225000D01*
X57920000Y-61990000D02*
X57600000Y-62310000D01*
X62700000Y-60787500D02*
X62700000Y-61370000D01*
X62700000Y-61370000D02*
X62080000Y-61990000D01*
%TO.N,Net-(Q1-B)*%
X64825000Y-63475000D02*
X62555000Y-63475000D01*
X59545000Y-63180000D02*
X59500000Y-63225000D01*
X62260000Y-63180000D02*
X59545000Y-63180000D01*
X62555000Y-63475000D02*
X62260000Y-63180000D01*
%TO.N,/Vset*%
X67100000Y-66840000D02*
X66965000Y-66975000D01*
X67100000Y-65375000D02*
X67100000Y-66690000D01*
X67100000Y-66690000D02*
X67100000Y-66840000D01*
X68820000Y-66690000D02*
X68880000Y-66630000D01*
X66965000Y-66975000D02*
X66475000Y-66975000D01*
X67100000Y-66690000D02*
X68820000Y-66690000D01*
%TD*%
M02*
