%TF.GenerationSoftware,KiCad,Pcbnew,9.0.4-9.0.4-0~ubuntu22.04.1*%
%TF.CreationDate,2026-02-19T12:30:54-08:00*%
%TF.ProjectId,SMD1414_16mA,534d4431-3431-4345-9f31-366d412e6b69,rev?*%
%TF.SameCoordinates,Original*%
%TF.FileFunction,Legend,Bot*%
%TF.FilePolarity,Positive*%
%FSLAX46Y46*%
G04 Gerber Fmt 4.6, Leading zero omitted, Abs format (unit mm)*
G04 Created by KiCad (PCBNEW 9.0.4-9.0.4-0~ubuntu22.04.1) date 2026-02-19 12:30:54*
%MOMM*%
%LPD*%
G01*
G04 APERTURE LIST*
%ADD10C,0.120000*%
%ADD11C,0.150000*%
G04 APERTURE END LIST*
D10*
X54700000Y-55600000D02*
X70700000Y-55600000D01*
X70700000Y-65000000D01*
X54700000Y-65000000D01*
X54700000Y-55600000D01*
G36*
X54700000Y-55600000D02*
G01*
X70700000Y-55600000D01*
X70700000Y-65000000D01*
X54700000Y-65000000D01*
X54700000Y-55600000D01*
G37*
D11*
X69435713Y-67057200D02*
X69292856Y-67104819D01*
X69292856Y-67104819D02*
X69054761Y-67104819D01*
X69054761Y-67104819D02*
X68959523Y-67057200D01*
X68959523Y-67057200D02*
X68911904Y-67009580D01*
X68911904Y-67009580D02*
X68864285Y-66914342D01*
X68864285Y-66914342D02*
X68864285Y-66819104D01*
X68864285Y-66819104D02*
X68911904Y-66723866D01*
X68911904Y-66723866D02*
X68959523Y-66676247D01*
X68959523Y-66676247D02*
X69054761Y-66628628D01*
X69054761Y-66628628D02*
X69245237Y-66581009D01*
X69245237Y-66581009D02*
X69340475Y-66533390D01*
X69340475Y-66533390D02*
X69388094Y-66485771D01*
X69388094Y-66485771D02*
X69435713Y-66390533D01*
X69435713Y-66390533D02*
X69435713Y-66295295D01*
X69435713Y-66295295D02*
X69388094Y-66200057D01*
X69388094Y-66200057D02*
X69340475Y-66152438D01*
X69340475Y-66152438D02*
X69245237Y-66104819D01*
X69245237Y-66104819D02*
X69007142Y-66104819D01*
X69007142Y-66104819D02*
X68864285Y-66152438D01*
X68435713Y-67104819D02*
X68435713Y-66104819D01*
X68435713Y-66104819D02*
X68102380Y-66819104D01*
X68102380Y-66819104D02*
X67769047Y-66104819D01*
X67769047Y-66104819D02*
X67769047Y-67104819D01*
X67292856Y-67104819D02*
X67292856Y-66104819D01*
X67292856Y-66104819D02*
X67054761Y-66104819D01*
X67054761Y-66104819D02*
X66911904Y-66152438D01*
X66911904Y-66152438D02*
X66816666Y-66247676D01*
X66816666Y-66247676D02*
X66769047Y-66342914D01*
X66769047Y-66342914D02*
X66721428Y-66533390D01*
X66721428Y-66533390D02*
X66721428Y-66676247D01*
X66721428Y-66676247D02*
X66769047Y-66866723D01*
X66769047Y-66866723D02*
X66816666Y-66961961D01*
X66816666Y-66961961D02*
X66911904Y-67057200D01*
X66911904Y-67057200D02*
X67054761Y-67104819D01*
X67054761Y-67104819D02*
X67292856Y-67104819D01*
X65769047Y-67104819D02*
X66340475Y-67104819D01*
X66054761Y-67104819D02*
X66054761Y-66104819D01*
X66054761Y-66104819D02*
X66149999Y-66247676D01*
X66149999Y-66247676D02*
X66245237Y-66342914D01*
X66245237Y-66342914D02*
X66340475Y-66390533D01*
X64911904Y-66438152D02*
X64911904Y-67104819D01*
X65149999Y-66057200D02*
X65388094Y-66771485D01*
X65388094Y-66771485D02*
X64769047Y-66771485D01*
X63864285Y-67104819D02*
X64435713Y-67104819D01*
X64149999Y-67104819D02*
X64149999Y-66104819D01*
X64149999Y-66104819D02*
X64245237Y-66247676D01*
X64245237Y-66247676D02*
X64340475Y-66342914D01*
X64340475Y-66342914D02*
X64435713Y-66390533D01*
X63007142Y-66438152D02*
X63007142Y-67104819D01*
X63245237Y-66057200D02*
X63483332Y-66771485D01*
X63483332Y-66771485D02*
X62864285Y-66771485D01*
X62435713Y-67057200D02*
X62435713Y-67104819D01*
X62435713Y-67104819D02*
X62483332Y-67200057D01*
X62483332Y-67200057D02*
X62530951Y-67247676D01*
X61245237Y-67104819D02*
X61245237Y-66104819D01*
X60769047Y-66581009D02*
X60007143Y-66581009D01*
X60007143Y-66866723D02*
X60769047Y-66866723D01*
X59007143Y-67104819D02*
X59578571Y-67104819D01*
X59292857Y-67104819D02*
X59292857Y-66104819D01*
X59292857Y-66104819D02*
X59388095Y-66247676D01*
X59388095Y-66247676D02*
X59483333Y-66342914D01*
X59483333Y-66342914D02*
X59578571Y-66390533D01*
X58150000Y-66104819D02*
X58340476Y-66104819D01*
X58340476Y-66104819D02*
X58435714Y-66152438D01*
X58435714Y-66152438D02*
X58483333Y-66200057D01*
X58483333Y-66200057D02*
X58578571Y-66342914D01*
X58578571Y-66342914D02*
X58626190Y-66533390D01*
X58626190Y-66533390D02*
X58626190Y-66914342D01*
X58626190Y-66914342D02*
X58578571Y-67009580D01*
X58578571Y-67009580D02*
X58530952Y-67057200D01*
X58530952Y-67057200D02*
X58435714Y-67104819D01*
X58435714Y-67104819D02*
X58245238Y-67104819D01*
X58245238Y-67104819D02*
X58150000Y-67057200D01*
X58150000Y-67057200D02*
X58102381Y-67009580D01*
X58102381Y-67009580D02*
X58054762Y-66914342D01*
X58054762Y-66914342D02*
X58054762Y-66676247D01*
X58054762Y-66676247D02*
X58102381Y-66581009D01*
X58102381Y-66581009D02*
X58150000Y-66533390D01*
X58150000Y-66533390D02*
X58245238Y-66485771D01*
X58245238Y-66485771D02*
X58435714Y-66485771D01*
X58435714Y-66485771D02*
X58530952Y-66533390D01*
X58530952Y-66533390D02*
X58578571Y-66581009D01*
X58578571Y-66581009D02*
X58626190Y-66676247D01*
X57626190Y-67104819D02*
X57626190Y-66438152D01*
X57626190Y-66533390D02*
X57578571Y-66485771D01*
X57578571Y-66485771D02*
X57483333Y-66438152D01*
X57483333Y-66438152D02*
X57340476Y-66438152D01*
X57340476Y-66438152D02*
X57245238Y-66485771D01*
X57245238Y-66485771D02*
X57197619Y-66581009D01*
X57197619Y-66581009D02*
X57197619Y-67104819D01*
X57197619Y-66581009D02*
X57150000Y-66485771D01*
X57150000Y-66485771D02*
X57054762Y-66438152D01*
X57054762Y-66438152D02*
X56911905Y-66438152D01*
X56911905Y-66438152D02*
X56816666Y-66485771D01*
X56816666Y-66485771D02*
X56769047Y-66581009D01*
X56769047Y-66581009D02*
X56769047Y-67104819D01*
X56340476Y-66819104D02*
X55864286Y-66819104D01*
X56435714Y-67104819D02*
X56102381Y-66104819D01*
X56102381Y-66104819D02*
X55769048Y-67104819D01*
X67721427Y-67714763D02*
X67388094Y-68714763D01*
X67388094Y-68714763D02*
X67054761Y-67714763D01*
X66721427Y-68714763D02*
X66721427Y-68048096D01*
X66721427Y-67714763D02*
X66769046Y-67762382D01*
X66769046Y-67762382D02*
X66721427Y-67810001D01*
X66721427Y-67810001D02*
X66673808Y-67762382D01*
X66673808Y-67762382D02*
X66721427Y-67714763D01*
X66721427Y-67714763D02*
X66721427Y-67810001D01*
X66245237Y-68048096D02*
X66245237Y-68714763D01*
X66245237Y-68143334D02*
X66197618Y-68095715D01*
X66197618Y-68095715D02*
X66102380Y-68048096D01*
X66102380Y-68048096D02*
X65959523Y-68048096D01*
X65959523Y-68048096D02*
X65864285Y-68095715D01*
X65864285Y-68095715D02*
X65816666Y-68190953D01*
X65816666Y-68190953D02*
X65816666Y-68714763D01*
X65340475Y-68190953D02*
X64578571Y-68190953D01*
X64578571Y-68476667D02*
X65340475Y-68476667D01*
X64197618Y-67714763D02*
X63578571Y-67714763D01*
X63578571Y-67714763D02*
X63911904Y-68095715D01*
X63911904Y-68095715D02*
X63769047Y-68095715D01*
X63769047Y-68095715D02*
X63673809Y-68143334D01*
X63673809Y-68143334D02*
X63626190Y-68190953D01*
X63626190Y-68190953D02*
X63578571Y-68286191D01*
X63578571Y-68286191D02*
X63578571Y-68524286D01*
X63578571Y-68524286D02*
X63626190Y-68619524D01*
X63626190Y-68619524D02*
X63673809Y-68667144D01*
X63673809Y-68667144D02*
X63769047Y-68714763D01*
X63769047Y-68714763D02*
X64054761Y-68714763D01*
X64054761Y-68714763D02*
X64149999Y-68667144D01*
X64149999Y-68667144D02*
X64197618Y-68619524D01*
X63149999Y-68619524D02*
X63102380Y-68667144D01*
X63102380Y-68667144D02*
X63149999Y-68714763D01*
X63149999Y-68714763D02*
X63197618Y-68667144D01*
X63197618Y-68667144D02*
X63149999Y-68619524D01*
X63149999Y-68619524D02*
X63149999Y-68714763D01*
X62769047Y-67714763D02*
X62150000Y-67714763D01*
X62150000Y-67714763D02*
X62483333Y-68095715D01*
X62483333Y-68095715D02*
X62340476Y-68095715D01*
X62340476Y-68095715D02*
X62245238Y-68143334D01*
X62245238Y-68143334D02*
X62197619Y-68190953D01*
X62197619Y-68190953D02*
X62150000Y-68286191D01*
X62150000Y-68286191D02*
X62150000Y-68524286D01*
X62150000Y-68524286D02*
X62197619Y-68619524D01*
X62197619Y-68619524D02*
X62245238Y-68667144D01*
X62245238Y-68667144D02*
X62340476Y-68714763D01*
X62340476Y-68714763D02*
X62626190Y-68714763D01*
X62626190Y-68714763D02*
X62721428Y-68667144D01*
X62721428Y-68667144D02*
X62769047Y-68619524D01*
X61721428Y-68333810D02*
X60959524Y-68333810D01*
X60007143Y-67714763D02*
X60483333Y-67714763D01*
X60483333Y-67714763D02*
X60530952Y-68190953D01*
X60530952Y-68190953D02*
X60483333Y-68143334D01*
X60483333Y-68143334D02*
X60388095Y-68095715D01*
X60388095Y-68095715D02*
X60150000Y-68095715D01*
X60150000Y-68095715D02*
X60054762Y-68143334D01*
X60054762Y-68143334D02*
X60007143Y-68190953D01*
X60007143Y-68190953D02*
X59959524Y-68286191D01*
X59959524Y-68286191D02*
X59959524Y-68524286D01*
X59959524Y-68524286D02*
X60007143Y-68619524D01*
X60007143Y-68619524D02*
X60054762Y-68667144D01*
X60054762Y-68667144D02*
X60150000Y-68714763D01*
X60150000Y-68714763D02*
X60388095Y-68714763D01*
X60388095Y-68714763D02*
X60483333Y-68667144D01*
X60483333Y-68667144D02*
X60530952Y-68619524D01*
X59530952Y-68619524D02*
X59483333Y-68667144D01*
X59483333Y-68667144D02*
X59530952Y-68714763D01*
X59530952Y-68714763D02*
X59578571Y-68667144D01*
X59578571Y-68667144D02*
X59530952Y-68619524D01*
X59530952Y-68619524D02*
X59530952Y-68714763D01*
X58864286Y-67714763D02*
X58769048Y-67714763D01*
X58769048Y-67714763D02*
X58673810Y-67762382D01*
X58673810Y-67762382D02*
X58626191Y-67810001D01*
X58626191Y-67810001D02*
X58578572Y-67905239D01*
X58578572Y-67905239D02*
X58530953Y-68095715D01*
X58530953Y-68095715D02*
X58530953Y-68333810D01*
X58530953Y-68333810D02*
X58578572Y-68524286D01*
X58578572Y-68524286D02*
X58626191Y-68619524D01*
X58626191Y-68619524D02*
X58673810Y-68667144D01*
X58673810Y-68667144D02*
X58769048Y-68714763D01*
X58769048Y-68714763D02*
X58864286Y-68714763D01*
X58864286Y-68714763D02*
X58959524Y-68667144D01*
X58959524Y-68667144D02*
X59007143Y-68619524D01*
X59007143Y-68619524D02*
X59054762Y-68524286D01*
X59054762Y-68524286D02*
X59102381Y-68333810D01*
X59102381Y-68333810D02*
X59102381Y-68095715D01*
X59102381Y-68095715D02*
X59054762Y-67905239D01*
X59054762Y-67905239D02*
X59007143Y-67810001D01*
X59007143Y-67810001D02*
X58959524Y-67762382D01*
X58959524Y-67762382D02*
X58864286Y-67714763D01*
X58245238Y-67714763D02*
X57911905Y-68714763D01*
X57911905Y-68714763D02*
X57578572Y-67714763D01*
X68366667Y-51544875D02*
X68366667Y-50544875D01*
X67319049Y-51449636D02*
X67366668Y-51497256D01*
X67366668Y-51497256D02*
X67509525Y-51544875D01*
X67509525Y-51544875D02*
X67604763Y-51544875D01*
X67604763Y-51544875D02*
X67747620Y-51497256D01*
X67747620Y-51497256D02*
X67842858Y-51402017D01*
X67842858Y-51402017D02*
X67890477Y-51306779D01*
X67890477Y-51306779D02*
X67938096Y-51116303D01*
X67938096Y-51116303D02*
X67938096Y-50973446D01*
X67938096Y-50973446D02*
X67890477Y-50782970D01*
X67890477Y-50782970D02*
X67842858Y-50687732D01*
X67842858Y-50687732D02*
X67747620Y-50592494D01*
X67747620Y-50592494D02*
X67604763Y-50544875D01*
X67604763Y-50544875D02*
X67509525Y-50544875D01*
X67509525Y-50544875D02*
X67366668Y-50592494D01*
X67366668Y-50592494D02*
X67319049Y-50640113D01*
X66747620Y-51544875D02*
X66842858Y-51497256D01*
X66842858Y-51497256D02*
X66890477Y-51449636D01*
X66890477Y-51449636D02*
X66938096Y-51354398D01*
X66938096Y-51354398D02*
X66938096Y-51068684D01*
X66938096Y-51068684D02*
X66890477Y-50973446D01*
X66890477Y-50973446D02*
X66842858Y-50925827D01*
X66842858Y-50925827D02*
X66747620Y-50878208D01*
X66747620Y-50878208D02*
X66604763Y-50878208D01*
X66604763Y-50878208D02*
X66509525Y-50925827D01*
X66509525Y-50925827D02*
X66461906Y-50973446D01*
X66461906Y-50973446D02*
X66414287Y-51068684D01*
X66414287Y-51068684D02*
X66414287Y-51354398D01*
X66414287Y-51354398D02*
X66461906Y-51449636D01*
X66461906Y-51449636D02*
X66509525Y-51497256D01*
X66509525Y-51497256D02*
X66604763Y-51544875D01*
X66604763Y-51544875D02*
X66747620Y-51544875D01*
X65985715Y-50878208D02*
X65985715Y-51544875D01*
X65985715Y-50973446D02*
X65938096Y-50925827D01*
X65938096Y-50925827D02*
X65842858Y-50878208D01*
X65842858Y-50878208D02*
X65700001Y-50878208D01*
X65700001Y-50878208D02*
X65604763Y-50925827D01*
X65604763Y-50925827D02*
X65557144Y-51021065D01*
X65557144Y-51021065D02*
X65557144Y-51544875D01*
X65223810Y-50878208D02*
X64842858Y-50878208D01*
X65080953Y-50544875D02*
X65080953Y-51402017D01*
X65080953Y-51402017D02*
X65033334Y-51497256D01*
X65033334Y-51497256D02*
X64938096Y-51544875D01*
X64938096Y-51544875D02*
X64842858Y-51544875D01*
X64509524Y-51544875D02*
X64509524Y-50878208D01*
X64509524Y-51068684D02*
X64461905Y-50973446D01*
X64461905Y-50973446D02*
X64414286Y-50925827D01*
X64414286Y-50925827D02*
X64319048Y-50878208D01*
X64319048Y-50878208D02*
X64223810Y-50878208D01*
X63747619Y-51544875D02*
X63842857Y-51497256D01*
X63842857Y-51497256D02*
X63890476Y-51449636D01*
X63890476Y-51449636D02*
X63938095Y-51354398D01*
X63938095Y-51354398D02*
X63938095Y-51068684D01*
X63938095Y-51068684D02*
X63890476Y-50973446D01*
X63890476Y-50973446D02*
X63842857Y-50925827D01*
X63842857Y-50925827D02*
X63747619Y-50878208D01*
X63747619Y-50878208D02*
X63604762Y-50878208D01*
X63604762Y-50878208D02*
X63509524Y-50925827D01*
X63509524Y-50925827D02*
X63461905Y-50973446D01*
X63461905Y-50973446D02*
X63414286Y-51068684D01*
X63414286Y-51068684D02*
X63414286Y-51354398D01*
X63414286Y-51354398D02*
X63461905Y-51449636D01*
X63461905Y-51449636D02*
X63509524Y-51497256D01*
X63509524Y-51497256D02*
X63604762Y-51544875D01*
X63604762Y-51544875D02*
X63747619Y-51544875D01*
X62842857Y-51544875D02*
X62938095Y-51497256D01*
X62938095Y-51497256D02*
X62985714Y-51402017D01*
X62985714Y-51402017D02*
X62985714Y-50544875D01*
X61699999Y-51544875D02*
X61699999Y-50544875D01*
X61699999Y-51021065D02*
X61128571Y-51021065D01*
X61128571Y-51544875D02*
X61128571Y-50544875D01*
X60795237Y-50544875D02*
X60461904Y-51544875D01*
X60461904Y-51544875D02*
X60128571Y-50544875D01*
X58557142Y-51544875D02*
X59033332Y-51544875D01*
X59033332Y-51544875D02*
X59033332Y-50544875D01*
X58223808Y-51021065D02*
X57890475Y-51021065D01*
X57747618Y-51544875D02*
X58223808Y-51544875D01*
X58223808Y-51544875D02*
X58223808Y-50544875D01*
X58223808Y-50544875D02*
X57747618Y-50544875D01*
X57319046Y-51544875D02*
X57319046Y-50544875D01*
X57319046Y-50544875D02*
X57080951Y-50544875D01*
X57080951Y-50544875D02*
X56938094Y-50592494D01*
X56938094Y-50592494D02*
X56842856Y-50687732D01*
X56842856Y-50687732D02*
X56795237Y-50782970D01*
X56795237Y-50782970D02*
X56747618Y-50973446D01*
X56747618Y-50973446D02*
X56747618Y-51116303D01*
X56747618Y-51116303D02*
X56795237Y-51306779D01*
X56795237Y-51306779D02*
X56842856Y-51402017D01*
X56842856Y-51402017D02*
X56938094Y-51497256D01*
X56938094Y-51497256D02*
X57080951Y-51544875D01*
X57080951Y-51544875D02*
X57319046Y-51544875D01*
X65080951Y-52154819D02*
X64747618Y-53154819D01*
X64747618Y-53154819D02*
X64414285Y-52154819D01*
X63890475Y-52154819D02*
X63795237Y-52154819D01*
X63795237Y-52154819D02*
X63699999Y-52202438D01*
X63699999Y-52202438D02*
X63652380Y-52250057D01*
X63652380Y-52250057D02*
X63604761Y-52345295D01*
X63604761Y-52345295D02*
X63557142Y-52535771D01*
X63557142Y-52535771D02*
X63557142Y-52773866D01*
X63557142Y-52773866D02*
X63604761Y-52964342D01*
X63604761Y-52964342D02*
X63652380Y-53059580D01*
X63652380Y-53059580D02*
X63699999Y-53107200D01*
X63699999Y-53107200D02*
X63795237Y-53154819D01*
X63795237Y-53154819D02*
X63890475Y-53154819D01*
X63890475Y-53154819D02*
X63985713Y-53107200D01*
X63985713Y-53107200D02*
X64033332Y-53059580D01*
X64033332Y-53059580D02*
X64080951Y-52964342D01*
X64080951Y-52964342D02*
X64128570Y-52773866D01*
X64128570Y-52773866D02*
X64128570Y-52535771D01*
X64128570Y-52535771D02*
X64080951Y-52345295D01*
X64080951Y-52345295D02*
X64033332Y-52250057D01*
X64033332Y-52250057D02*
X63985713Y-52202438D01*
X63985713Y-52202438D02*
X63890475Y-52154819D01*
X63128570Y-53059580D02*
X63080951Y-53107200D01*
X63080951Y-53107200D02*
X63128570Y-53154819D01*
X63128570Y-53154819D02*
X63176189Y-53107200D01*
X63176189Y-53107200D02*
X63128570Y-53059580D01*
X63128570Y-53059580D02*
X63128570Y-53154819D01*
X62128571Y-53154819D02*
X62699999Y-53154819D01*
X62414285Y-53154819D02*
X62414285Y-52154819D01*
X62414285Y-52154819D02*
X62509523Y-52297676D01*
X62509523Y-52297676D02*
X62604761Y-52392914D01*
X62604761Y-52392914D02*
X62699999Y-52440533D01*
X60366666Y-53154819D02*
X60699999Y-52678628D01*
X60938094Y-53154819D02*
X60938094Y-52154819D01*
X60938094Y-52154819D02*
X60557142Y-52154819D01*
X60557142Y-52154819D02*
X60461904Y-52202438D01*
X60461904Y-52202438D02*
X60414285Y-52250057D01*
X60414285Y-52250057D02*
X60366666Y-52345295D01*
X60366666Y-52345295D02*
X60366666Y-52488152D01*
X60366666Y-52488152D02*
X60414285Y-52583390D01*
X60414285Y-52583390D02*
X60461904Y-52631009D01*
X60461904Y-52631009D02*
X60557142Y-52678628D01*
X60557142Y-52678628D02*
X60938094Y-52678628D01*
X59414285Y-53154819D02*
X59985713Y-53154819D01*
X59699999Y-53154819D02*
X59699999Y-52154819D01*
X59699999Y-52154819D02*
X59795237Y-52297676D01*
X59795237Y-52297676D02*
X59890475Y-52392914D01*
X59890475Y-52392914D02*
X59985713Y-52440533D01*
X68438094Y-54098096D02*
X68247618Y-54764763D01*
X68247618Y-54764763D02*
X68057142Y-54288572D01*
X68057142Y-54288572D02*
X67866666Y-54764763D01*
X67866666Y-54764763D02*
X67676190Y-54098096D01*
X67390475Y-54098096D02*
X67199999Y-54764763D01*
X67199999Y-54764763D02*
X67009523Y-54288572D01*
X67009523Y-54288572D02*
X66819047Y-54764763D01*
X66819047Y-54764763D02*
X66628571Y-54098096D01*
X66342856Y-54098096D02*
X66152380Y-54764763D01*
X66152380Y-54764763D02*
X65961904Y-54288572D01*
X65961904Y-54288572D02*
X65771428Y-54764763D01*
X65771428Y-54764763D02*
X65580952Y-54098096D01*
X65199999Y-54669524D02*
X65152380Y-54717144D01*
X65152380Y-54717144D02*
X65199999Y-54764763D01*
X65199999Y-54764763D02*
X65247618Y-54717144D01*
X65247618Y-54717144D02*
X65199999Y-54669524D01*
X65199999Y-54669524D02*
X65199999Y-54764763D01*
X64723809Y-54764763D02*
X64723809Y-54098096D01*
X64723809Y-53764763D02*
X64771428Y-53812382D01*
X64771428Y-53812382D02*
X64723809Y-53860001D01*
X64723809Y-53860001D02*
X64676190Y-53812382D01*
X64676190Y-53812382D02*
X64723809Y-53764763D01*
X64723809Y-53764763D02*
X64723809Y-53860001D01*
X64104762Y-54764763D02*
X64200000Y-54717144D01*
X64200000Y-54717144D02*
X64247619Y-54669524D01*
X64247619Y-54669524D02*
X64295238Y-54574286D01*
X64295238Y-54574286D02*
X64295238Y-54288572D01*
X64295238Y-54288572D02*
X64247619Y-54193334D01*
X64247619Y-54193334D02*
X64200000Y-54145715D01*
X64200000Y-54145715D02*
X64104762Y-54098096D01*
X64104762Y-54098096D02*
X63961905Y-54098096D01*
X63961905Y-54098096D02*
X63866667Y-54145715D01*
X63866667Y-54145715D02*
X63819048Y-54193334D01*
X63819048Y-54193334D02*
X63771429Y-54288572D01*
X63771429Y-54288572D02*
X63771429Y-54574286D01*
X63771429Y-54574286D02*
X63819048Y-54669524D01*
X63819048Y-54669524D02*
X63866667Y-54717144D01*
X63866667Y-54717144D02*
X63961905Y-54764763D01*
X63961905Y-54764763D02*
X64104762Y-54764763D01*
X63342857Y-54764763D02*
X63342857Y-54098096D01*
X63342857Y-54288572D02*
X63295238Y-54193334D01*
X63295238Y-54193334D02*
X63247619Y-54145715D01*
X63247619Y-54145715D02*
X63152381Y-54098096D01*
X63152381Y-54098096D02*
X63057143Y-54098096D01*
X62580952Y-54764763D02*
X62676190Y-54717144D01*
X62676190Y-54717144D02*
X62723809Y-54669524D01*
X62723809Y-54669524D02*
X62771428Y-54574286D01*
X62771428Y-54574286D02*
X62771428Y-54288572D01*
X62771428Y-54288572D02*
X62723809Y-54193334D01*
X62723809Y-54193334D02*
X62676190Y-54145715D01*
X62676190Y-54145715D02*
X62580952Y-54098096D01*
X62580952Y-54098096D02*
X62438095Y-54098096D01*
X62438095Y-54098096D02*
X62342857Y-54145715D01*
X62342857Y-54145715D02*
X62295238Y-54193334D01*
X62295238Y-54193334D02*
X62247619Y-54288572D01*
X62247619Y-54288572D02*
X62247619Y-54574286D01*
X62247619Y-54574286D02*
X62295238Y-54669524D01*
X62295238Y-54669524D02*
X62342857Y-54717144D01*
X62342857Y-54717144D02*
X62438095Y-54764763D01*
X62438095Y-54764763D02*
X62580952Y-54764763D01*
X61390476Y-54764763D02*
X61390476Y-53764763D01*
X61390476Y-54717144D02*
X61485714Y-54764763D01*
X61485714Y-54764763D02*
X61676190Y-54764763D01*
X61676190Y-54764763D02*
X61771428Y-54717144D01*
X61771428Y-54717144D02*
X61819047Y-54669524D01*
X61819047Y-54669524D02*
X61866666Y-54574286D01*
X61866666Y-54574286D02*
X61866666Y-54288572D01*
X61866666Y-54288572D02*
X61819047Y-54193334D01*
X61819047Y-54193334D02*
X61771428Y-54145715D01*
X61771428Y-54145715D02*
X61676190Y-54098096D01*
X61676190Y-54098096D02*
X61485714Y-54098096D01*
X61485714Y-54098096D02*
X61390476Y-54145715D01*
X60533333Y-54717144D02*
X60628571Y-54764763D01*
X60628571Y-54764763D02*
X60819047Y-54764763D01*
X60819047Y-54764763D02*
X60914285Y-54717144D01*
X60914285Y-54717144D02*
X60961904Y-54621905D01*
X60961904Y-54621905D02*
X60961904Y-54240953D01*
X60961904Y-54240953D02*
X60914285Y-54145715D01*
X60914285Y-54145715D02*
X60819047Y-54098096D01*
X60819047Y-54098096D02*
X60628571Y-54098096D01*
X60628571Y-54098096D02*
X60533333Y-54145715D01*
X60533333Y-54145715D02*
X60485714Y-54240953D01*
X60485714Y-54240953D02*
X60485714Y-54336191D01*
X60485714Y-54336191D02*
X60961904Y-54431429D01*
X59914285Y-54764763D02*
X60009523Y-54717144D01*
X60009523Y-54717144D02*
X60057142Y-54669524D01*
X60057142Y-54669524D02*
X60104761Y-54574286D01*
X60104761Y-54574286D02*
X60104761Y-54288572D01*
X60104761Y-54288572D02*
X60057142Y-54193334D01*
X60057142Y-54193334D02*
X60009523Y-54145715D01*
X60009523Y-54145715D02*
X59914285Y-54098096D01*
X59914285Y-54098096D02*
X59771428Y-54098096D01*
X59771428Y-54098096D02*
X59676190Y-54145715D01*
X59676190Y-54145715D02*
X59628571Y-54193334D01*
X59628571Y-54193334D02*
X59580952Y-54288572D01*
X59580952Y-54288572D02*
X59580952Y-54574286D01*
X59580952Y-54574286D02*
X59628571Y-54669524D01*
X59628571Y-54669524D02*
X59676190Y-54717144D01*
X59676190Y-54717144D02*
X59771428Y-54764763D01*
X59771428Y-54764763D02*
X59914285Y-54764763D01*
X59152380Y-54669524D02*
X59104761Y-54717144D01*
X59104761Y-54717144D02*
X59152380Y-54764763D01*
X59152380Y-54764763D02*
X59199999Y-54717144D01*
X59199999Y-54717144D02*
X59152380Y-54669524D01*
X59152380Y-54669524D02*
X59152380Y-54764763D01*
X58247619Y-54717144D02*
X58342857Y-54764763D01*
X58342857Y-54764763D02*
X58533333Y-54764763D01*
X58533333Y-54764763D02*
X58628571Y-54717144D01*
X58628571Y-54717144D02*
X58676190Y-54669524D01*
X58676190Y-54669524D02*
X58723809Y-54574286D01*
X58723809Y-54574286D02*
X58723809Y-54288572D01*
X58723809Y-54288572D02*
X58676190Y-54193334D01*
X58676190Y-54193334D02*
X58628571Y-54145715D01*
X58628571Y-54145715D02*
X58533333Y-54098096D01*
X58533333Y-54098096D02*
X58342857Y-54098096D01*
X58342857Y-54098096D02*
X58247619Y-54145715D01*
X57676190Y-54764763D02*
X57771428Y-54717144D01*
X57771428Y-54717144D02*
X57819047Y-54669524D01*
X57819047Y-54669524D02*
X57866666Y-54574286D01*
X57866666Y-54574286D02*
X57866666Y-54288572D01*
X57866666Y-54288572D02*
X57819047Y-54193334D01*
X57819047Y-54193334D02*
X57771428Y-54145715D01*
X57771428Y-54145715D02*
X57676190Y-54098096D01*
X57676190Y-54098096D02*
X57533333Y-54098096D01*
X57533333Y-54098096D02*
X57438095Y-54145715D01*
X57438095Y-54145715D02*
X57390476Y-54193334D01*
X57390476Y-54193334D02*
X57342857Y-54288572D01*
X57342857Y-54288572D02*
X57342857Y-54574286D01*
X57342857Y-54574286D02*
X57390476Y-54669524D01*
X57390476Y-54669524D02*
X57438095Y-54717144D01*
X57438095Y-54717144D02*
X57533333Y-54764763D01*
X57533333Y-54764763D02*
X57676190Y-54764763D01*
X56914285Y-54764763D02*
X56914285Y-54098096D01*
X56914285Y-54193334D02*
X56866666Y-54145715D01*
X56866666Y-54145715D02*
X56771428Y-54098096D01*
X56771428Y-54098096D02*
X56628571Y-54098096D01*
X56628571Y-54098096D02*
X56533333Y-54145715D01*
X56533333Y-54145715D02*
X56485714Y-54240953D01*
X56485714Y-54240953D02*
X56485714Y-54764763D01*
X56485714Y-54240953D02*
X56438095Y-54145715D01*
X56438095Y-54145715D02*
X56342857Y-54098096D01*
X56342857Y-54098096D02*
X56200000Y-54098096D01*
X56200000Y-54098096D02*
X56104761Y-54145715D01*
X56104761Y-54145715D02*
X56057142Y-54240953D01*
X56057142Y-54240953D02*
X56057142Y-54764763D01*
%TO.C,M1*%
X54990000Y-52540000D02*
G75*
G02*
X50090000Y-52540000I-2450000J0D01*
G01*
X50090000Y-52540000D02*
G75*
G02*
X54990000Y-52540000I2450000J0D01*
G01*
%TO.C,M2*%
X75310000Y-52540000D02*
G75*
G02*
X70410000Y-52540000I-2450000J0D01*
G01*
X70410000Y-52540000D02*
G75*
G02*
X75310000Y-52540000I2450000J0D01*
G01*
%TO.C,M3*%
X75310000Y-67460000D02*
G75*
G02*
X70410000Y-67460000I-2450000J0D01*
G01*
X70410000Y-67460000D02*
G75*
G02*
X75310000Y-67460000I2450000J0D01*
G01*
%TO.C,M4*%
X54990000Y-67460000D02*
G75*
G02*
X50090000Y-67460000I-2450000J0D01*
G01*
X50090000Y-67460000D02*
G75*
G02*
X54990000Y-67460000I2450000J0D01*
G01*
%TD*%
M02*
