%TF.GenerationSoftware,KiCad,Pcbnew,7.0.10-7.0.10~ubuntu22.04.1*%
%TF.CreationDate,2024-03-15T17:51:27-07:00*%
%TF.ProjectId,570nm_16mA,3537306e-6d5f-4313-966d-412e6b696361,rev?*%
%TF.SameCoordinates,Original*%
%TF.FileFunction,Copper,L1,Top*%
%TF.FilePolarity,Positive*%
%FSLAX46Y46*%
G04 Gerber Fmt 4.6, Leading zero omitted, Abs format (unit mm)*
G04 Created by KiCad (PCBNEW 7.0.10-7.0.10~ubuntu22.04.1) date 2024-03-15 17:51:27*
%MOMM*%
%LPD*%
G01*
G04 APERTURE LIST*
G04 Aperture macros list*
%AMRoundRect*
0 Rectangle with rounded corners*
0 $1 Rounding radius*
0 $2 $3 $4 $5 $6 $7 $8 $9 X,Y pos of 4 corners*
0 Add a 4 corners polygon primitive as box body*
4,1,4,$2,$3,$4,$5,$6,$7,$8,$9,$2,$3,0*
0 Add four circle primitives for the rounded corners*
1,1,$1+$1,$2,$3*
1,1,$1+$1,$4,$5*
1,1,$1+$1,$6,$7*
1,1,$1+$1,$8,$9*
0 Add four rect primitives between the rounded corners*
20,1,$1+$1,$2,$3,$4,$5,0*
20,1,$1+$1,$4,$5,$6,$7,0*
20,1,$1+$1,$6,$7,$8,$9,0*
20,1,$1+$1,$8,$9,$2,$3,0*%
G04 Aperture macros list end*
%TA.AperFunction,ComponentPad*%
%ADD10C,3.570000*%
%TD*%
%TA.AperFunction,SMDPad,CuDef*%
%ADD11RoundRect,0.218750X-0.256250X0.218750X-0.256250X-0.218750X0.256250X-0.218750X0.256250X0.218750X0*%
%TD*%
%TA.AperFunction,SMDPad,CuDef*%
%ADD12RoundRect,0.150000X-0.625000X0.150000X-0.625000X-0.150000X0.625000X-0.150000X0.625000X0.150000X0*%
%TD*%
%TA.AperFunction,SMDPad,CuDef*%
%ADD13RoundRect,0.250000X-0.650000X0.350000X-0.650000X-0.350000X0.650000X-0.350000X0.650000X0.350000X0*%
%TD*%
%TA.AperFunction,SMDPad,CuDef*%
%ADD14RoundRect,0.150000X0.625000X-0.150000X0.625000X0.150000X-0.625000X0.150000X-0.625000X-0.150000X0*%
%TD*%
%TA.AperFunction,SMDPad,CuDef*%
%ADD15RoundRect,0.250000X0.650000X-0.350000X0.650000X0.350000X-0.650000X0.350000X-0.650000X-0.350000X0*%
%TD*%
%TA.AperFunction,SMDPad,CuDef*%
%ADD16RoundRect,0.135000X-0.185000X0.135000X-0.185000X-0.135000X0.185000X-0.135000X0.185000X0.135000X0*%
%TD*%
%TA.AperFunction,SMDPad,CuDef*%
%ADD17RoundRect,0.150000X0.512500X0.150000X-0.512500X0.150000X-0.512500X-0.150000X0.512500X-0.150000X0*%
%TD*%
%TA.AperFunction,SMDPad,CuDef*%
%ADD18RoundRect,0.140000X0.170000X-0.140000X0.170000X0.140000X-0.170000X0.140000X-0.170000X-0.140000X0*%
%TD*%
%TA.AperFunction,SMDPad,CuDef*%
%ADD19RoundRect,0.135000X0.185000X-0.135000X0.185000X0.135000X-0.185000X0.135000X-0.185000X-0.135000X0*%
%TD*%
%TA.AperFunction,SMDPad,CuDef*%
%ADD20RoundRect,0.135000X-0.135000X-0.185000X0.135000X-0.185000X0.135000X0.185000X-0.135000X0.185000X0*%
%TD*%
%TA.AperFunction,SMDPad,CuDef*%
%ADD21R,0.650000X0.400000*%
%TD*%
%TA.AperFunction,SMDPad,CuDef*%
%ADD22RoundRect,0.150000X-0.150000X0.587500X-0.150000X-0.587500X0.150000X-0.587500X0.150000X0.587500X0*%
%TD*%
%TA.AperFunction,SMDPad,CuDef*%
%ADD23RoundRect,0.140000X-0.140000X-0.170000X0.140000X-0.170000X0.140000X0.170000X-0.140000X0.170000X0*%
%TD*%
%TA.AperFunction,ViaPad*%
%ADD24C,0.600000*%
%TD*%
%TA.AperFunction,Conductor*%
%ADD25C,0.250000*%
%TD*%
G04 APERTURE END LIST*
D10*
%TO.P,M1,~*%
%TO.N,N/C*%
X52540000Y-52540000D03*
%TD*%
%TO.P,M2,~*%
%TO.N,N/C*%
X72860000Y-52540000D03*
%TD*%
%TO.P,M3,~*%
%TO.N,N/C*%
X72860000Y-67460000D03*
%TD*%
%TO.P,M4,~*%
%TO.N,N/C*%
X52540000Y-67460000D03*
%TD*%
D11*
%TO.P,D1,1,K*%
%TO.N,Net-(D1-K)*%
X62700000Y-59212500D03*
%TO.P,D1,2,A*%
%TO.N,Net-(D1-A)*%
X62700000Y-60787500D03*
%TD*%
D12*
%TO.P,J1,1,Pin_1*%
%TO.N,GND*%
X54880000Y-58500000D03*
%TO.P,J1,2,Pin_2*%
%TO.N,/VIN*%
X54880000Y-59500000D03*
%TO.P,J1,3,Pin_3*%
%TO.N,/SDA*%
X54880000Y-60500000D03*
%TO.P,J1,4,Pin_4*%
%TO.N,/SCL*%
X54880000Y-61500000D03*
D13*
%TO.P,J1,MP*%
%TO.N,N/C*%
X51005000Y-57200000D03*
X51005000Y-62800000D03*
%TD*%
D14*
%TO.P,J2,1,Pin_1*%
%TO.N,GND*%
X70520000Y-61500000D03*
%TO.P,J2,2,Pin_2*%
%TO.N,/VIN*%
X70520000Y-60500000D03*
%TO.P,J2,3,Pin_3*%
%TO.N,/SDA*%
X70520000Y-59500000D03*
%TO.P,J2,4,Pin_4*%
%TO.N,/SCL*%
X70520000Y-58500000D03*
D15*
%TO.P,J2,MP*%
%TO.N,N/C*%
X74395000Y-62800000D03*
X74395000Y-57200000D03*
%TD*%
D16*
%TO.P,R1,1*%
%TO.N,Net-(D1-K)*%
X68427600Y-63982600D03*
%TO.P,R1,2*%
%TO.N,GND*%
X68427600Y-65002600D03*
%TD*%
D17*
%TO.P,U2,1,+*%
%TO.N,/Vset*%
X66795200Y-65881000D03*
%TO.P,U2,2,V-*%
%TO.N,GND*%
X66795200Y-64931000D03*
%TO.P,U2,3,-*%
%TO.N,Net-(D1-K)*%
X66795200Y-63981000D03*
%TO.P,U2,4*%
%TO.N,Net-(Q1-B)*%
X64520200Y-63981000D03*
%TO.P,U2,5,V+*%
%TO.N,/5V*%
X64520200Y-65881000D03*
%TD*%
D18*
%TO.P,C3,1*%
%TO.N,/5V*%
X62845200Y-65936000D03*
%TO.P,C3,2*%
%TO.N,GND*%
X62845200Y-64976000D03*
%TD*%
D19*
%TO.P,R3,1*%
%TO.N,/Vset*%
X68427600Y-67360800D03*
%TO.P,R3,2*%
%TO.N,GND*%
X68427600Y-66340800D03*
%TD*%
D11*
%TO.P,L1,1,1*%
%TO.N,/VIN*%
X65862200Y-51739700D03*
%TO.P,L1,2,2*%
%TO.N,/VL*%
X65862200Y-53314700D03*
%TD*%
D20*
%TO.P,R2,1*%
%TO.N,/5V*%
X65150200Y-67481000D03*
%TO.P,R2,2*%
%TO.N,/Vset*%
X66170200Y-67481000D03*
%TD*%
D18*
%TO.P,C1,1*%
%TO.N,GND*%
X60071000Y-53312000D03*
%TO.P,C1,2*%
%TO.N,/VIN*%
X60071000Y-52352000D03*
%TD*%
D21*
%TO.P,U1,1,VIN*%
%TO.N,/VIN*%
X61727000Y-52197000D03*
%TO.P,U1,2,FB*%
%TO.N,/5V*%
X61727000Y-52847000D03*
%TO.P,U1,3,GND*%
%TO.N,GND*%
X61727000Y-53497000D03*
%TO.P,U1,4,VOUT*%
%TO.N,/5V*%
X63627000Y-53497000D03*
%TO.P,U1,5,L*%
%TO.N,/VL*%
X63627000Y-52847000D03*
%TO.P,U1,6,EN*%
%TO.N,/VIN*%
X63627000Y-52197000D03*
%TD*%
D18*
%TO.P,C4,1*%
%TO.N,/5V*%
X61620200Y-65941000D03*
%TO.P,C4,2*%
%TO.N,GND*%
X61620200Y-64981000D03*
%TD*%
D22*
%TO.P,Q1,1,B*%
%TO.N,Net-(Q1-B)*%
X59500000Y-63225000D03*
%TO.P,Q1,2,E*%
%TO.N,Net-(D1-A)*%
X57600000Y-63225000D03*
%TO.P,Q1,3,C*%
%TO.N,/5V*%
X58550000Y-65100000D03*
%TD*%
D23*
%TO.P,C2,1*%
%TO.N,GND*%
X62209800Y-54864000D03*
%TO.P,C2,2*%
%TO.N,/5V*%
X63169800Y-54864000D03*
%TD*%
D24*
%TO.N,GND*%
X60680600Y-64439800D03*
X56718200Y-58166000D03*
X59080400Y-53314600D03*
X68453000Y-61493400D03*
%TO.N,/SCL*%
X68453000Y-58490000D03*
X65659000Y-58470800D03*
%TO.N,/SDA*%
X59791600Y-57200800D03*
X68472931Y-59517669D03*
%TO.N,/5V*%
X69900800Y-63881000D03*
X68830000Y-54990000D03*
%TD*%
D25*
%TO.N,GND*%
X61221800Y-64981000D02*
X60680600Y-64439800D01*
X68427600Y-65002600D02*
X68427600Y-66340800D01*
X60071000Y-53312000D02*
X60703400Y-53312000D01*
X60703400Y-53312000D02*
X60888400Y-53497000D01*
X62845200Y-64976000D02*
X61625200Y-64976000D01*
X68427600Y-65002600D02*
X67949000Y-65002600D01*
X70313400Y-61493400D02*
X70320000Y-61500000D01*
X62845200Y-64976000D02*
X63945200Y-64976000D01*
X67949000Y-65002600D02*
X67877400Y-64931000D01*
X68453000Y-61493400D02*
X70413400Y-61493400D01*
X59083000Y-53312000D02*
X59080400Y-53314600D01*
X56384200Y-58500000D02*
X54980000Y-58500000D01*
X70413400Y-61493400D02*
X70420000Y-61500000D01*
X56384200Y-58500000D02*
X56718200Y-58166000D01*
X70768400Y-61493400D02*
X70775000Y-61500000D01*
X70363400Y-61493400D02*
X70370000Y-61500000D01*
X61727000Y-54381200D02*
X62209800Y-54864000D01*
X61620200Y-64981000D02*
X61221800Y-64981000D01*
X66750200Y-64976000D02*
X66795200Y-64931000D01*
X60888400Y-53497000D02*
X61727000Y-53497000D01*
X67877400Y-64931000D02*
X66795200Y-64931000D01*
X60071000Y-53312000D02*
X59083000Y-53312000D01*
X61727000Y-53497000D02*
X61727000Y-54381200D01*
X63945200Y-64976000D02*
X66750200Y-64976000D01*
X61625200Y-64976000D02*
X61620200Y-64981000D01*
%TO.N,/VIN*%
X60652600Y-52352000D02*
X60807600Y-52197000D01*
X60071000Y-52352000D02*
X60652600Y-52352000D01*
X57556400Y-53162200D02*
X58366600Y-52352000D01*
X56324000Y-59500000D02*
X57556400Y-58267600D01*
X64871700Y-51739700D02*
X65862200Y-51739700D01*
X64414400Y-52197000D02*
X64871700Y-51739700D01*
X57556400Y-56337200D02*
X57556400Y-53162200D01*
X57566100Y-56327500D02*
X64399584Y-56327500D01*
X57556400Y-58267600D02*
X57556400Y-56337200D01*
X63627000Y-52197000D02*
X64414400Y-52197000D01*
X57556400Y-56337200D02*
X57566100Y-56327500D01*
X56324000Y-59500000D02*
X54980000Y-59500000D01*
X58366600Y-52352000D02*
X60071000Y-52352000D01*
X64399584Y-56327500D02*
X68572084Y-60500000D01*
X68572084Y-60500000D02*
X70420000Y-60500000D01*
X61727000Y-52197000D02*
X63627000Y-52197000D01*
X60807600Y-52197000D02*
X61727000Y-52197000D01*
%TO.N,/VL*%
X64531000Y-52847000D02*
X63627000Y-52847000D01*
X65862200Y-53314700D02*
X64998700Y-53314700D01*
X64998700Y-53314700D02*
X64531000Y-52847000D01*
%TO.N,/SCL*%
X57240000Y-61500000D02*
X54980000Y-61500000D01*
X61620000Y-57120000D02*
X57240000Y-61500000D01*
X68453000Y-58490000D02*
X70410000Y-58490000D01*
X70360000Y-58490000D02*
X70370000Y-58500000D01*
X70410000Y-58490000D02*
X70420000Y-58500000D01*
X65659000Y-58470800D02*
X64308200Y-57120000D01*
X70310000Y-58490000D02*
X70320000Y-58500000D01*
X64308200Y-57120000D02*
X61620000Y-57120000D01*
%TO.N,/SDA*%
X59791600Y-57200800D02*
X59740800Y-57200800D01*
X68472931Y-59517669D02*
X70402331Y-59517669D01*
X68472931Y-59517669D02*
X68490600Y-59500000D01*
X70402331Y-59517669D02*
X70420000Y-59500000D01*
X59740800Y-57200800D02*
X56441600Y-60500000D01*
X56441600Y-60500000D02*
X54980000Y-60500000D01*
X68472931Y-59517669D02*
X68455262Y-59500000D01*
X70352331Y-59517669D02*
X70370000Y-59500000D01*
%TO.N,/5V*%
X63627000Y-54406800D02*
X63169800Y-54864000D01*
X64520200Y-65881000D02*
X64520200Y-66081000D01*
X62840200Y-65941000D02*
X62845200Y-65936000D01*
X63545200Y-65936000D02*
X64465200Y-65936000D01*
X61620200Y-65941000D02*
X60403800Y-65941000D01*
X65608200Y-68554600D02*
X65150200Y-68096600D01*
X58550000Y-65100000D02*
X58550000Y-65585800D01*
X62845200Y-65936000D02*
X63545200Y-65936000D01*
X61727000Y-52847000D02*
X62194200Y-52847000D01*
X68554600Y-68529200D02*
X65633600Y-68529200D01*
X65150200Y-66711000D02*
X65150200Y-67481000D01*
X68475400Y-54635400D02*
X68830000Y-54990000D01*
X63627000Y-53497000D02*
X64139600Y-53497000D01*
X65278000Y-54635400D02*
X68475400Y-54635400D01*
X62194200Y-52847000D02*
X62844200Y-53497000D01*
X64520200Y-66081000D02*
X65150200Y-66711000D01*
X61620200Y-65941000D02*
X62840200Y-65941000D01*
X59562800Y-65100000D02*
X58550000Y-65100000D01*
X65633600Y-68529200D02*
X65608200Y-68554600D01*
X63627000Y-53497000D02*
X63627000Y-54406800D01*
X64139600Y-53497000D02*
X65278000Y-54635400D01*
X69900800Y-67183000D02*
X68554600Y-68529200D01*
X60403800Y-65941000D02*
X59562800Y-65100000D01*
X69900800Y-63881000D02*
X69900800Y-67183000D01*
X62844200Y-53497000D02*
X63627000Y-53497000D01*
X65150200Y-68096600D02*
X65150200Y-67481000D01*
X64465200Y-65936000D02*
X64520200Y-65881000D01*
%TO.N,Net-(D1-K)*%
X68426000Y-63981000D02*
X68427600Y-63982600D01*
X66802000Y-61925200D02*
X66802000Y-63347600D01*
X62700000Y-59212500D02*
X64089300Y-59212500D01*
X66795200Y-63981000D02*
X68426000Y-63981000D01*
X64089300Y-59212500D02*
X66802000Y-61925200D01*
X66795200Y-63354400D02*
X66795200Y-63981000D01*
X66802000Y-63347600D02*
X66795200Y-63354400D01*
%TO.N,Net-(D1-A)*%
X60037500Y-60787500D02*
X62700000Y-60787500D01*
X57600000Y-63225000D02*
X57600000Y-62560000D01*
X57600000Y-63225000D02*
X60037500Y-60787500D01*
%TO.N,Net-(Q1-B)*%
X62005800Y-63225000D02*
X59500000Y-63225000D01*
X59545000Y-63180000D02*
X59500000Y-63225000D01*
X64520200Y-63981000D02*
X62761800Y-63981000D01*
X62761800Y-63981000D02*
X62005800Y-63225000D01*
%TO.N,/Vset*%
X66795200Y-67346000D02*
X66660200Y-67481000D01*
X67716400Y-67360800D02*
X68427600Y-67360800D01*
X66795200Y-65881000D02*
X66795200Y-67196000D01*
X66522600Y-67481000D02*
X67596200Y-67481000D01*
X66522600Y-67481000D02*
X66170200Y-67481000D01*
X66795200Y-67196000D02*
X66795200Y-67346000D01*
X66660200Y-67481000D02*
X66522600Y-67481000D01*
X67596200Y-67481000D02*
X67716400Y-67360800D01*
%TD*%
M02*
