%TF.GenerationSoftware,KiCad,Pcbnew,7.0.10-7.0.10~ubuntu22.04.1*%
%TF.CreationDate,2024-03-15T17:45:32-07:00*%
%TF.ProjectId,496nm_16mA,3439366e-6d5f-4313-966d-412e6b696361,rev?*%
%TF.SameCoordinates,Original*%
%TF.FileFunction,Legend,Top*%
%TF.FilePolarity,Positive*%
%FSLAX46Y46*%
G04 Gerber Fmt 4.6, Leading zero omitted, Abs format (unit mm)*
G04 Created by KiCad (PCBNEW 7.0.10-7.0.10~ubuntu22.04.1) date 2024-03-15 17:45:32*
%MOMM*%
%LPD*%
G01*
G04 APERTURE LIST*
%ADD10C,0.250000*%
%ADD11C,0.150000*%
%ADD12C,0.050000*%
%ADD13C,0.120000*%
G04 APERTURE END LIST*
D10*
X65100000Y-60000000D02*
G75*
G03*
X60300000Y-60000000I-2400000J0D01*
G01*
X60300000Y-60000000D02*
G75*
G03*
X65100000Y-60000000I2400000J0D01*
G01*
D11*
X59849095Y-60458275D02*
X59049095Y-60458275D01*
X59049095Y-60458275D02*
X59049095Y-60267799D01*
X59049095Y-60267799D02*
X59087190Y-60153513D01*
X59087190Y-60153513D02*
X59163380Y-60077323D01*
X59163380Y-60077323D02*
X59239571Y-60039228D01*
X59239571Y-60039228D02*
X59391952Y-60001132D01*
X59391952Y-60001132D02*
X59506238Y-60001132D01*
X59506238Y-60001132D02*
X59658619Y-60039228D01*
X59658619Y-60039228D02*
X59734809Y-60077323D01*
X59734809Y-60077323D02*
X59811000Y-60153513D01*
X59811000Y-60153513D02*
X59849095Y-60267799D01*
X59849095Y-60267799D02*
X59849095Y-60458275D01*
X59849095Y-59239228D02*
X59849095Y-59696371D01*
X59849095Y-59467799D02*
X59049095Y-59467799D01*
X59049095Y-59467799D02*
X59163380Y-59543990D01*
X59163380Y-59543990D02*
X59239571Y-59620180D01*
X59239571Y-59620180D02*
X59277666Y-59696371D01*
X52643133Y-55620095D02*
X52643133Y-56191523D01*
X52643133Y-56191523D02*
X52605038Y-56305809D01*
X52605038Y-56305809D02*
X52528847Y-56382000D01*
X52528847Y-56382000D02*
X52414562Y-56420095D01*
X52414562Y-56420095D02*
X52338371Y-56420095D01*
X53443133Y-56420095D02*
X52985990Y-56420095D01*
X53214562Y-56420095D02*
X53214562Y-55620095D01*
X53214562Y-55620095D02*
X53138371Y-55734380D01*
X53138371Y-55734380D02*
X53062181Y-55810571D01*
X53062181Y-55810571D02*
X52985990Y-55848666D01*
X72274133Y-55747095D02*
X72274133Y-56318523D01*
X72274133Y-56318523D02*
X72236038Y-56432809D01*
X72236038Y-56432809D02*
X72159847Y-56509000D01*
X72159847Y-56509000D02*
X72045562Y-56547095D01*
X72045562Y-56547095D02*
X71969371Y-56547095D01*
X72616990Y-55823285D02*
X72655086Y-55785190D01*
X72655086Y-55785190D02*
X72731276Y-55747095D01*
X72731276Y-55747095D02*
X72921752Y-55747095D01*
X72921752Y-55747095D02*
X72997943Y-55785190D01*
X72997943Y-55785190D02*
X73036038Y-55823285D01*
X73036038Y-55823285D02*
X73074133Y-55899476D01*
X73074133Y-55899476D02*
X73074133Y-55975666D01*
X73074133Y-55975666D02*
X73036038Y-56089952D01*
X73036038Y-56089952D02*
X72578895Y-56547095D01*
X72578895Y-56547095D02*
X73074133Y-56547095D01*
X65060676Y-62243295D02*
X65060676Y-62890914D01*
X65060676Y-62890914D02*
X65098771Y-62967104D01*
X65098771Y-62967104D02*
X65136866Y-63005200D01*
X65136866Y-63005200D02*
X65213057Y-63043295D01*
X65213057Y-63043295D02*
X65365438Y-63043295D01*
X65365438Y-63043295D02*
X65441628Y-63005200D01*
X65441628Y-63005200D02*
X65479723Y-62967104D01*
X65479723Y-62967104D02*
X65517819Y-62890914D01*
X65517819Y-62890914D02*
X65517819Y-62243295D01*
X65860675Y-62319485D02*
X65898771Y-62281390D01*
X65898771Y-62281390D02*
X65974961Y-62243295D01*
X65974961Y-62243295D02*
X66165437Y-62243295D01*
X66165437Y-62243295D02*
X66241628Y-62281390D01*
X66241628Y-62281390D02*
X66279723Y-62319485D01*
X66279723Y-62319485D02*
X66317818Y-62395676D01*
X66317818Y-62395676D02*
X66317818Y-62471866D01*
X66317818Y-62471866D02*
X66279723Y-62586152D01*
X66279723Y-62586152D02*
X65822580Y-63043295D01*
X65822580Y-63043295D02*
X66317818Y-63043295D01*
X62067476Y-50565495D02*
X62067476Y-51213114D01*
X62067476Y-51213114D02*
X62105571Y-51289304D01*
X62105571Y-51289304D02*
X62143666Y-51327400D01*
X62143666Y-51327400D02*
X62219857Y-51365495D01*
X62219857Y-51365495D02*
X62372238Y-51365495D01*
X62372238Y-51365495D02*
X62448428Y-51327400D01*
X62448428Y-51327400D02*
X62486523Y-51289304D01*
X62486523Y-51289304D02*
X62524619Y-51213114D01*
X62524619Y-51213114D02*
X62524619Y-50565495D01*
X63324618Y-51365495D02*
X62867475Y-51365495D01*
X63096047Y-51365495D02*
X63096047Y-50565495D01*
X63096047Y-50565495D02*
X63019856Y-50679780D01*
X63019856Y-50679780D02*
X62943666Y-50755971D01*
X62943666Y-50755971D02*
X62867475Y-50794066D01*
X56048809Y-64588485D02*
X55972619Y-64550390D01*
X55972619Y-64550390D02*
X55896428Y-64474200D01*
X55896428Y-64474200D02*
X55782142Y-64359914D01*
X55782142Y-64359914D02*
X55705952Y-64321819D01*
X55705952Y-64321819D02*
X55629761Y-64321819D01*
X55667857Y-64512295D02*
X55591666Y-64474200D01*
X55591666Y-64474200D02*
X55515476Y-64398009D01*
X55515476Y-64398009D02*
X55477380Y-64245628D01*
X55477380Y-64245628D02*
X55477380Y-63978961D01*
X55477380Y-63978961D02*
X55515476Y-63826580D01*
X55515476Y-63826580D02*
X55591666Y-63750390D01*
X55591666Y-63750390D02*
X55667857Y-63712295D01*
X55667857Y-63712295D02*
X55820238Y-63712295D01*
X55820238Y-63712295D02*
X55896428Y-63750390D01*
X55896428Y-63750390D02*
X55972619Y-63826580D01*
X55972619Y-63826580D02*
X56010714Y-63978961D01*
X56010714Y-63978961D02*
X56010714Y-64245628D01*
X56010714Y-64245628D02*
X55972619Y-64398009D01*
X55972619Y-64398009D02*
X55896428Y-64474200D01*
X55896428Y-64474200D02*
X55820238Y-64512295D01*
X55820238Y-64512295D02*
X55667857Y-64512295D01*
X56772618Y-64512295D02*
X56315475Y-64512295D01*
X56544047Y-64512295D02*
X56544047Y-63712295D01*
X56544047Y-63712295D02*
X56467856Y-63826580D01*
X56467856Y-63826580D02*
X56391666Y-63902771D01*
X56391666Y-63902771D02*
X56315475Y-63940866D01*
D12*
%TO.C,M1*%
X54440000Y-52540000D02*
G75*
G03*
X50640000Y-52540000I-1900000J0D01*
G01*
X50640000Y-52540000D02*
G75*
G03*
X54440000Y-52540000I1900000J0D01*
G01*
D11*
X54990000Y-52540000D02*
G75*
G03*
X50090000Y-52540000I-2450000J0D01*
G01*
X50090000Y-52540000D02*
G75*
G03*
X54990000Y-52540000I2450000J0D01*
G01*
D12*
%TO.C,M2*%
X74760000Y-52540000D02*
G75*
G03*
X70960000Y-52540000I-1900000J0D01*
G01*
X70960000Y-52540000D02*
G75*
G03*
X74760000Y-52540000I1900000J0D01*
G01*
D11*
X75310000Y-52540000D02*
G75*
G03*
X70410000Y-52540000I-2450000J0D01*
G01*
X70410000Y-52540000D02*
G75*
G03*
X75310000Y-52540000I2450000J0D01*
G01*
D12*
%TO.C,M3*%
X74760000Y-67460000D02*
G75*
G03*
X70960000Y-67460000I-1900000J0D01*
G01*
X70960000Y-67460000D02*
G75*
G03*
X74760000Y-67460000I1900000J0D01*
G01*
D11*
X75310000Y-67460000D02*
G75*
G03*
X70410000Y-67460000I-2450000J0D01*
G01*
X70410000Y-67460000D02*
G75*
G03*
X75310000Y-67460000I2450000J0D01*
G01*
D12*
%TO.C,M4*%
X54440000Y-67460000D02*
G75*
G03*
X50640000Y-67460000I-1900000J0D01*
G01*
X50640000Y-67460000D02*
G75*
G03*
X54440000Y-67460000I1900000J0D01*
G01*
D11*
X54990000Y-67460000D02*
G75*
G03*
X50090000Y-67460000I-2450000J0D01*
G01*
X50090000Y-67460000D02*
G75*
G03*
X54990000Y-67460000I2450000J0D01*
G01*
D13*
%TO.C,D1*%
X63435000Y-58515000D02*
X61965000Y-58515000D01*
X61965000Y-58515000D02*
X61965000Y-60800000D01*
X63435000Y-60800000D02*
X63435000Y-58515000D01*
%TO.C,J1*%
X54665000Y-56890000D02*
X54665000Y-57940000D01*
X52165000Y-56890000D02*
X54665000Y-56890000D01*
X54665000Y-57940000D02*
X55655000Y-57940000D01*
X50195000Y-58060000D02*
X50195000Y-61940000D01*
X54665000Y-63110000D02*
X54665000Y-62060000D01*
X52165000Y-63110000D02*
X54665000Y-63110000D01*
%TO.C,J2*%
X70735000Y-63110000D02*
X70735000Y-62060000D01*
X73235000Y-63110000D02*
X70735000Y-63110000D01*
X70735000Y-62060000D02*
X69745000Y-62060000D01*
X75205000Y-61940000D02*
X75205000Y-58060000D01*
X70735000Y-56890000D02*
X70735000Y-57940000D01*
X73235000Y-56890000D02*
X70735000Y-56890000D01*
%TO.C,R1*%
X68807600Y-64338959D02*
X68807600Y-64646241D01*
X68047600Y-64338959D02*
X68047600Y-64646241D01*
%TO.C,U2*%
X65657700Y-66491000D02*
X67457700Y-66491000D01*
X65657700Y-66491000D02*
X64857700Y-66491000D01*
X65657700Y-63371000D02*
X66457700Y-63371000D01*
X65657700Y-63371000D02*
X64857700Y-63371000D01*
%TO.C,C3*%
X62485200Y-65563836D02*
X62485200Y-65348164D01*
X63205200Y-65563836D02*
X63205200Y-65348164D01*
%TO.C,R3*%
X68047600Y-67004441D02*
X68047600Y-66697159D01*
X68807600Y-67004441D02*
X68807600Y-66697159D01*
%TO.C,L1*%
X66372200Y-52364421D02*
X66372200Y-52689979D01*
X65352200Y-52364421D02*
X65352200Y-52689979D01*
%TO.C,R2*%
X65506559Y-67101000D02*
X65813841Y-67101000D01*
X65506559Y-67861000D02*
X65813841Y-67861000D01*
%TO.C,C1*%
X59711000Y-52939836D02*
X59711000Y-52724164D01*
X60431000Y-52939836D02*
X60431000Y-52724164D01*
%TO.C,U1*%
X61977000Y-54007000D02*
X63377000Y-54007000D01*
X63377000Y-51687000D02*
X61477000Y-51687000D01*
%TO.C,C4*%
X61260200Y-65568836D02*
X61260200Y-65353164D01*
X61980200Y-65568836D02*
X61980200Y-65353164D01*
%TO.C,Q1*%
X60110000Y-64162500D02*
X60110000Y-62487500D01*
X60110000Y-64162500D02*
X60110000Y-64812500D01*
X56990000Y-64162500D02*
X56990000Y-63512500D01*
X56990000Y-64162500D02*
X56990000Y-64812500D01*
%TO.C,C2*%
X62581964Y-54504000D02*
X62797636Y-54504000D01*
X62581964Y-55224000D02*
X62797636Y-55224000D01*
%TD*%
M02*
