%TF.GenerationSoftware,KiCad,Pcbnew,7.0.2-6a45011f42~172~ubuntu22.04.1*%
%TF.CreationDate,2023-09-05T10:17:09-07:00*%
%TF.ProjectId,basic_led,62617369-635f-46c6-9564-2e6b69636164,rev?*%
%TF.SameCoordinates,Original*%
%TF.FileFunction,Legend,Top*%
%TF.FilePolarity,Positive*%
%FSLAX46Y46*%
G04 Gerber Fmt 4.6, Leading zero omitted, Abs format (unit mm)*
G04 Created by KiCad (PCBNEW 7.0.2-6a45011f42~172~ubuntu22.04.1) date 2023-09-05 10:17:09*
%MOMM*%
%LPD*%
G01*
G04 APERTURE LIST*
%ADD10C,0.250000*%
%ADD11C,0.160000*%
%ADD12C,0.050000*%
%ADD13C,0.150000*%
%ADD14C,0.120000*%
G04 APERTURE END LIST*
D10*
X65000000Y-60000000D02*
G75*
G03*
X65000000Y-60000000I-2300000J0D01*
G01*
X65700000Y-60000000D02*
G75*
G03*
X65700000Y-60000000I-3000000J0D01*
G01*
D11*
%TO.C,D1*%
X61770095Y-60590475D02*
X60970095Y-60590475D01*
X60970095Y-60590475D02*
X60970095Y-60399999D01*
X60970095Y-60399999D02*
X61008190Y-60285713D01*
X61008190Y-60285713D02*
X61084380Y-60209523D01*
X61084380Y-60209523D02*
X61160571Y-60171428D01*
X61160571Y-60171428D02*
X61312952Y-60133332D01*
X61312952Y-60133332D02*
X61427238Y-60133332D01*
X61427238Y-60133332D02*
X61579619Y-60171428D01*
X61579619Y-60171428D02*
X61655809Y-60209523D01*
X61655809Y-60209523D02*
X61732000Y-60285713D01*
X61732000Y-60285713D02*
X61770095Y-60399999D01*
X61770095Y-60399999D02*
X61770095Y-60590475D01*
X61770095Y-59371428D02*
X61770095Y-59828571D01*
X61770095Y-59599999D02*
X60970095Y-59599999D01*
X60970095Y-59599999D02*
X61084380Y-59676190D01*
X61084380Y-59676190D02*
X61160571Y-59752380D01*
X61160571Y-59752380D02*
X61198666Y-59828571D01*
%TO.C,J1*%
X50313333Y-63210095D02*
X50313333Y-63781523D01*
X50313333Y-63781523D02*
X50275238Y-63895809D01*
X50275238Y-63895809D02*
X50199047Y-63972000D01*
X50199047Y-63972000D02*
X50084762Y-64010095D01*
X50084762Y-64010095D02*
X50008571Y-64010095D01*
X51113333Y-64010095D02*
X50656190Y-64010095D01*
X50884762Y-64010095D02*
X50884762Y-63210095D01*
X50884762Y-63210095D02*
X50808571Y-63324380D01*
X50808571Y-63324380D02*
X50732381Y-63400571D01*
X50732381Y-63400571D02*
X50656190Y-63438666D01*
%TO.C,J2*%
X74553333Y-63210095D02*
X74553333Y-63781523D01*
X74553333Y-63781523D02*
X74515238Y-63895809D01*
X74515238Y-63895809D02*
X74439047Y-63972000D01*
X74439047Y-63972000D02*
X74324762Y-64010095D01*
X74324762Y-64010095D02*
X74248571Y-64010095D01*
X74896190Y-63286285D02*
X74934286Y-63248190D01*
X74934286Y-63248190D02*
X75010476Y-63210095D01*
X75010476Y-63210095D02*
X75200952Y-63210095D01*
X75200952Y-63210095D02*
X75277143Y-63248190D01*
X75277143Y-63248190D02*
X75315238Y-63286285D01*
X75315238Y-63286285D02*
X75353333Y-63362476D01*
X75353333Y-63362476D02*
X75353333Y-63438666D01*
X75353333Y-63438666D02*
X75315238Y-63552952D01*
X75315238Y-63552952D02*
X74858095Y-64010095D01*
X74858095Y-64010095D02*
X75353333Y-64010095D01*
%TO.C,R1*%
X62566667Y-52970095D02*
X62300000Y-52589142D01*
X62109524Y-52970095D02*
X62109524Y-52170095D01*
X62109524Y-52170095D02*
X62414286Y-52170095D01*
X62414286Y-52170095D02*
X62490476Y-52208190D01*
X62490476Y-52208190D02*
X62528571Y-52246285D01*
X62528571Y-52246285D02*
X62566667Y-52322476D01*
X62566667Y-52322476D02*
X62566667Y-52436761D01*
X62566667Y-52436761D02*
X62528571Y-52512952D01*
X62528571Y-52512952D02*
X62490476Y-52551047D01*
X62490476Y-52551047D02*
X62414286Y-52589142D01*
X62414286Y-52589142D02*
X62109524Y-52589142D01*
X63328571Y-52970095D02*
X62871428Y-52970095D01*
X63100000Y-52970095D02*
X63100000Y-52170095D01*
X63100000Y-52170095D02*
X63023809Y-52284380D01*
X63023809Y-52284380D02*
X62947619Y-52360571D01*
X62947619Y-52360571D02*
X62871428Y-52398666D01*
D12*
%TO.C,M1*%
X54440000Y-52540000D02*
G75*
G03*
X54440000Y-52540000I-1900000J0D01*
G01*
D13*
X54990000Y-52540000D02*
G75*
G03*
X54990000Y-52540000I-2450000J0D01*
G01*
D12*
%TO.C,M2*%
X74760000Y-52540000D02*
G75*
G03*
X74760000Y-52540000I-1900000J0D01*
G01*
D13*
X75310000Y-52540000D02*
G75*
G03*
X75310000Y-52540000I-2450000J0D01*
G01*
D12*
%TO.C,M3*%
X74760000Y-67460000D02*
G75*
G03*
X74760000Y-67460000I-1900000J0D01*
G01*
D13*
X75310000Y-67460000D02*
G75*
G03*
X75310000Y-67460000I-2450000J0D01*
G01*
D12*
%TO.C,M4*%
X54440000Y-67460000D02*
G75*
G03*
X54440000Y-67460000I-1900000J0D01*
G01*
D13*
X54990000Y-67460000D02*
G75*
G03*
X54990000Y-67460000I-2450000J0D01*
G01*
D14*
%TO.C,D1*%
X63435000Y-58515000D02*
X61965000Y-58515000D01*
X61965000Y-58515000D02*
X61965000Y-60800000D01*
X63435000Y-60800000D02*
X63435000Y-58515000D01*
D13*
%TO.C,J1*%
X54475000Y-63000000D02*
X50125000Y-63000000D01*
X50125000Y-60000000D02*
X50125000Y-63000000D01*
X50125000Y-57000000D02*
X50125000Y-60000000D01*
X50125000Y-57000000D02*
X54475000Y-57000000D01*
X54475000Y-57000000D02*
X54475000Y-63000000D01*
%TO.C,J2*%
X70925000Y-57000000D02*
X75275000Y-57000000D01*
X75275000Y-60000000D02*
X75275000Y-57000000D01*
X75275000Y-63000000D02*
X75275000Y-60000000D01*
X75275000Y-63000000D02*
X70925000Y-63000000D01*
X70925000Y-63000000D02*
X70925000Y-57000000D01*
D14*
%TO.C,R1*%
X62937258Y-54522500D02*
X62462742Y-54522500D01*
X62937258Y-53477500D02*
X62462742Y-53477500D01*
%TD*%
M02*
