%TF.GenerationSoftware,KiCad,Pcbnew,7.0.2-6a45011f42~172~ubuntu22.04.1*%
%TF.CreationDate,2023-09-05T10:17:09-07:00*%
%TF.ProjectId,basic_led,62617369-635f-46c6-9564-2e6b69636164,rev?*%
%TF.SameCoordinates,Original*%
%TF.FileFunction,Copper,L1,Top*%
%TF.FilePolarity,Positive*%
%FSLAX46Y46*%
G04 Gerber Fmt 4.6, Leading zero omitted, Abs format (unit mm)*
G04 Created by KiCad (PCBNEW 7.0.2-6a45011f42~172~ubuntu22.04.1) date 2023-09-05 10:17:09*
%MOMM*%
%LPD*%
G01*
G04 APERTURE LIST*
G04 Aperture macros list*
%AMRoundRect*
0 Rectangle with rounded corners*
0 $1 Rounding radius*
0 $2 $3 $4 $5 $6 $7 $8 $9 X,Y pos of 4 corners*
0 Add a 4 corners polygon primitive as box body*
4,1,4,$2,$3,$4,$5,$6,$7,$8,$9,$2,$3,0*
0 Add four circle primitives for the rounded corners*
1,1,$1+$1,$2,$3*
1,1,$1+$1,$4,$5*
1,1,$1+$1,$6,$7*
1,1,$1+$1,$8,$9*
0 Add four rect primitives between the rounded corners*
20,1,$1+$1,$2,$3,$4,$5,0*
20,1,$1+$1,$4,$5,$6,$7,0*
20,1,$1+$1,$6,$7,$8,$9,0*
20,1,$1+$1,$8,$9,$2,$3,0*%
G04 Aperture macros list end*
%TA.AperFunction,ComponentPad*%
%ADD10C,3.570000*%
%TD*%
%TA.AperFunction,SMDPad,CuDef*%
%ADD11RoundRect,0.218750X-0.256250X0.218750X-0.256250X-0.218750X0.256250X-0.218750X0.256250X0.218750X0*%
%TD*%
%TA.AperFunction,SMDPad,CuDef*%
%ADD12R,3.000000X0.800000*%
%TD*%
%TA.AperFunction,SMDPad,CuDef*%
%ADD13R,1.600000X0.400000*%
%TD*%
%TA.AperFunction,SMDPad,CuDef*%
%ADD14RoundRect,0.200000X0.200000X0.275000X-0.200000X0.275000X-0.200000X-0.275000X0.200000X-0.275000X0*%
%TD*%
%TA.AperFunction,ViaPad*%
%ADD15C,0.800000*%
%TD*%
%TA.AperFunction,Conductor*%
%ADD16C,0.250000*%
%TD*%
G04 APERTURE END LIST*
D10*
%TO.P,M1,~*%
%TO.N,N/C*%
X52540000Y-52540000D03*
%TD*%
%TO.P,M2,~*%
%TO.N,N/C*%
X72860000Y-52540000D03*
%TD*%
%TO.P,M3,~*%
%TO.N,N/C*%
X72860000Y-67460000D03*
%TD*%
%TO.P,M4,~*%
%TO.N,N/C*%
X52540000Y-67460000D03*
%TD*%
D11*
%TO.P,D1,1*%
%TO.N,Net-(D1-Pad1)*%
X62700000Y-59212500D03*
%TO.P,D1,2*%
%TO.N,/3V3*%
X62700000Y-60787500D03*
%TD*%
D12*
%TO.P,J1,*%
%TO.N,*%
X52300000Y-62650000D03*
X52300000Y-57350000D03*
D13*
%TO.P,J1,1*%
%TO.N,GND*%
X54625000Y-58500000D03*
%TO.P,J1,2*%
%TO.N,/3V3*%
X54625000Y-59500000D03*
%TO.P,J1,3*%
%TO.N,/SDA*%
X54625000Y-60500000D03*
%TO.P,J1,4*%
%TO.N,/SCL*%
X54625000Y-61500000D03*
%TD*%
D12*
%TO.P,J2,*%
%TO.N,*%
X73100000Y-57350000D03*
X73100000Y-62650000D03*
D13*
%TO.P,J2,1*%
%TO.N,GND*%
X70775000Y-61500000D03*
%TO.P,J2,2*%
%TO.N,/3V3*%
X70775000Y-60500000D03*
%TO.P,J2,3*%
%TO.N,/SDA*%
X70775000Y-59500000D03*
%TO.P,J2,4*%
%TO.N,/SCL*%
X70775000Y-58500000D03*
%TD*%
D14*
%TO.P,R1,1*%
%TO.N,Net-(D1-Pad1)*%
X63525000Y-54000000D03*
%TO.P,R1,2*%
%TO.N,GND*%
X61875000Y-54000000D03*
%TD*%
D15*
%TO.N,GND*%
X69000000Y-61500000D03*
X62322600Y-55554500D03*
%TO.N,/SCL*%
X65487200Y-58416600D03*
X56500000Y-61500000D03*
%TO.N,/SDA*%
X66700000Y-59500000D03*
X58850000Y-60500000D03*
%TD*%
D16*
%TO.N,GND*%
X61999500Y-55231400D02*
X61875000Y-55231400D01*
X61875000Y-55231400D02*
X59018900Y-55231400D01*
X54625000Y-58500000D02*
X55750300Y-58500000D01*
X59018900Y-55231400D02*
X55750300Y-58500000D01*
X62322600Y-55554500D02*
X61999500Y-55231400D01*
X70775000Y-61500000D02*
X69649700Y-61500000D01*
X69649700Y-61500000D02*
X69000000Y-61500000D01*
X61875000Y-55231400D02*
X61875000Y-54000000D01*
%TO.N,Net-(D1-Pad1)*%
X63525000Y-54000000D02*
X63525000Y-58387500D01*
X63525000Y-58387500D02*
X62700000Y-59212500D01*
%TO.N,/3V3*%
X61846300Y-59511900D02*
X61421500Y-59087100D01*
X62700000Y-60787500D02*
X62700000Y-60704700D01*
X56163200Y-59087100D02*
X55750300Y-59500000D01*
X54625000Y-59500000D02*
X55750300Y-59500000D01*
X61846300Y-59851000D02*
X61846300Y-59511900D01*
X62700000Y-60704700D02*
X69445000Y-60704700D01*
X62700000Y-60704700D02*
X61846300Y-59851000D01*
X69445000Y-60704700D02*
X69649700Y-60500000D01*
X70775000Y-60500000D02*
X69649700Y-60500000D01*
X61421500Y-59087100D02*
X56163200Y-59087100D01*
%TO.N,/SCL*%
X55750300Y-61500000D02*
X56500000Y-61500000D01*
X65570600Y-58500000D02*
X65487200Y-58416600D01*
X70775000Y-58500000D02*
X65570600Y-58500000D01*
X54625000Y-61500000D02*
X55750300Y-61500000D01*
%TO.N,/SDA*%
X54625000Y-60500000D02*
X58850000Y-60500000D01*
X70775000Y-59500000D02*
X69649700Y-59500000D01*
X69649700Y-59500000D02*
X66700000Y-59500000D01*
%TD*%
M02*
