%TF.GenerationSoftware,KiCad,Pcbnew,7.0.2-6a45011f42~172~ubuntu22.04.1*%
%TF.CreationDate,2023-09-16T18:58:55-07:00*%
%TF.ProjectId,i_control_led,695f636f-6e74-4726-9f6c-5f6c65642e6b,rev?*%
%TF.SameCoordinates,Original*%
%TF.FileFunction,Legend,Top*%
%TF.FilePolarity,Positive*%
%FSLAX46Y46*%
G04 Gerber Fmt 4.6, Leading zero omitted, Abs format (unit mm)*
G04 Created by KiCad (PCBNEW 7.0.2-6a45011f42~172~ubuntu22.04.1) date 2023-09-16 18:58:55*
%MOMM*%
%LPD*%
G01*
G04 APERTURE LIST*
%ADD10C,0.250000*%
%ADD11C,0.150000*%
%ADD12C,0.160000*%
%ADD13C,0.050000*%
%ADD14C,0.120000*%
G04 APERTURE END LIST*
D10*
X65000000Y-60000000D02*
G75*
G03*
X65000000Y-60000000I-2300000J0D01*
G01*
D11*
%TO.C,D1*%
X59892619Y-60608094D02*
X58892619Y-60608094D01*
X58892619Y-60608094D02*
X58892619Y-60369999D01*
X58892619Y-60369999D02*
X58940238Y-60227142D01*
X58940238Y-60227142D02*
X59035476Y-60131904D01*
X59035476Y-60131904D02*
X59130714Y-60084285D01*
X59130714Y-60084285D02*
X59321190Y-60036666D01*
X59321190Y-60036666D02*
X59464047Y-60036666D01*
X59464047Y-60036666D02*
X59654523Y-60084285D01*
X59654523Y-60084285D02*
X59749761Y-60131904D01*
X59749761Y-60131904D02*
X59845000Y-60227142D01*
X59845000Y-60227142D02*
X59892619Y-60369999D01*
X59892619Y-60369999D02*
X59892619Y-60608094D01*
X59892619Y-59084285D02*
X59892619Y-59655713D01*
X59892619Y-59369999D02*
X58892619Y-59369999D01*
X58892619Y-59369999D02*
X59035476Y-59465237D01*
X59035476Y-59465237D02*
X59130714Y-59560475D01*
X59130714Y-59560475D02*
X59178333Y-59655713D01*
D12*
%TO.C,J1*%
X50713333Y-63210095D02*
X50713333Y-63781523D01*
X50713333Y-63781523D02*
X50675238Y-63895809D01*
X50675238Y-63895809D02*
X50599047Y-63972000D01*
X50599047Y-63972000D02*
X50484762Y-64010095D01*
X50484762Y-64010095D02*
X50408571Y-64010095D01*
X51513333Y-64010095D02*
X51056190Y-64010095D01*
X51284762Y-64010095D02*
X51284762Y-63210095D01*
X51284762Y-63210095D02*
X51208571Y-63324380D01*
X51208571Y-63324380D02*
X51132381Y-63400571D01*
X51132381Y-63400571D02*
X51056190Y-63438666D01*
%TO.C,J2*%
X74253333Y-63210095D02*
X74253333Y-63781523D01*
X74253333Y-63781523D02*
X74215238Y-63895809D01*
X74215238Y-63895809D02*
X74139047Y-63972000D01*
X74139047Y-63972000D02*
X74024762Y-64010095D01*
X74024762Y-64010095D02*
X73948571Y-64010095D01*
X74596190Y-63286285D02*
X74634286Y-63248190D01*
X74634286Y-63248190D02*
X74710476Y-63210095D01*
X74710476Y-63210095D02*
X74900952Y-63210095D01*
X74900952Y-63210095D02*
X74977143Y-63248190D01*
X74977143Y-63248190D02*
X75015238Y-63286285D01*
X75015238Y-63286285D02*
X75053333Y-63362476D01*
X75053333Y-63362476D02*
X75053333Y-63438666D01*
X75053333Y-63438666D02*
X75015238Y-63552952D01*
X75015238Y-63552952D02*
X74558095Y-64010095D01*
X74558095Y-64010095D02*
X75053333Y-64010095D01*
%TO.C,U2*%
X65365476Y-61745095D02*
X65365476Y-62392714D01*
X65365476Y-62392714D02*
X65403571Y-62468904D01*
X65403571Y-62468904D02*
X65441666Y-62507000D01*
X65441666Y-62507000D02*
X65517857Y-62545095D01*
X65517857Y-62545095D02*
X65670238Y-62545095D01*
X65670238Y-62545095D02*
X65746428Y-62507000D01*
X65746428Y-62507000D02*
X65784523Y-62468904D01*
X65784523Y-62468904D02*
X65822619Y-62392714D01*
X65822619Y-62392714D02*
X65822619Y-61745095D01*
X66165475Y-61821285D02*
X66203571Y-61783190D01*
X66203571Y-61783190D02*
X66279761Y-61745095D01*
X66279761Y-61745095D02*
X66470237Y-61745095D01*
X66470237Y-61745095D02*
X66546428Y-61783190D01*
X66546428Y-61783190D02*
X66584523Y-61821285D01*
X66584523Y-61821285D02*
X66622618Y-61897476D01*
X66622618Y-61897476D02*
X66622618Y-61973666D01*
X66622618Y-61973666D02*
X66584523Y-62087952D01*
X66584523Y-62087952D02*
X66127380Y-62545095D01*
X66127380Y-62545095D02*
X66622618Y-62545095D01*
%TO.C,U1*%
X62215476Y-52410095D02*
X62215476Y-53057714D01*
X62215476Y-53057714D02*
X62253571Y-53133904D01*
X62253571Y-53133904D02*
X62291666Y-53172000D01*
X62291666Y-53172000D02*
X62367857Y-53210095D01*
X62367857Y-53210095D02*
X62520238Y-53210095D01*
X62520238Y-53210095D02*
X62596428Y-53172000D01*
X62596428Y-53172000D02*
X62634523Y-53133904D01*
X62634523Y-53133904D02*
X62672619Y-53057714D01*
X62672619Y-53057714D02*
X62672619Y-52410095D01*
X63472618Y-53210095D02*
X63015475Y-53210095D01*
X63244047Y-53210095D02*
X63244047Y-52410095D01*
X63244047Y-52410095D02*
X63167856Y-52524380D01*
X63167856Y-52524380D02*
X63091666Y-52600571D01*
X63091666Y-52600571D02*
X63015475Y-52638666D01*
%TO.C,Q1*%
X56571285Y-64226190D02*
X56533190Y-64302380D01*
X56533190Y-64302380D02*
X56457000Y-64378571D01*
X56457000Y-64378571D02*
X56342714Y-64492857D01*
X56342714Y-64492857D02*
X56304619Y-64569047D01*
X56304619Y-64569047D02*
X56304619Y-64645238D01*
X56495095Y-64607142D02*
X56457000Y-64683333D01*
X56457000Y-64683333D02*
X56380809Y-64759523D01*
X56380809Y-64759523D02*
X56228428Y-64797619D01*
X56228428Y-64797619D02*
X55961761Y-64797619D01*
X55961761Y-64797619D02*
X55809380Y-64759523D01*
X55809380Y-64759523D02*
X55733190Y-64683333D01*
X55733190Y-64683333D02*
X55695095Y-64607142D01*
X55695095Y-64607142D02*
X55695095Y-64454761D01*
X55695095Y-64454761D02*
X55733190Y-64378571D01*
X55733190Y-64378571D02*
X55809380Y-64302380D01*
X55809380Y-64302380D02*
X55961761Y-64264285D01*
X55961761Y-64264285D02*
X56228428Y-64264285D01*
X56228428Y-64264285D02*
X56380809Y-64302380D01*
X56380809Y-64302380D02*
X56457000Y-64378571D01*
X56457000Y-64378571D02*
X56495095Y-64454761D01*
X56495095Y-64454761D02*
X56495095Y-64607142D01*
X56495095Y-63502381D02*
X56495095Y-63959524D01*
X56495095Y-63730952D02*
X55695095Y-63730952D01*
X55695095Y-63730952D02*
X55809380Y-63807143D01*
X55809380Y-63807143D02*
X55885571Y-63883333D01*
X55885571Y-63883333D02*
X55923666Y-63959524D01*
D13*
%TO.C,M1*%
X54440000Y-52540000D02*
G75*
G03*
X54440000Y-52540000I-1900000J0D01*
G01*
D11*
X54990000Y-52540000D02*
G75*
G03*
X54990000Y-52540000I-2450000J0D01*
G01*
D13*
%TO.C,M2*%
X74760000Y-52540000D02*
G75*
G03*
X74760000Y-52540000I-1900000J0D01*
G01*
D11*
X75310000Y-52540000D02*
G75*
G03*
X75310000Y-52540000I-2450000J0D01*
G01*
D13*
%TO.C,M3*%
X74760000Y-67460000D02*
G75*
G03*
X74760000Y-67460000I-1900000J0D01*
G01*
D11*
X75310000Y-67460000D02*
G75*
G03*
X75310000Y-67460000I-2450000J0D01*
G01*
D13*
%TO.C,M4*%
X54440000Y-67460000D02*
G75*
G03*
X54440000Y-67460000I-1900000J0D01*
G01*
D11*
X54990000Y-67460000D02*
G75*
G03*
X54990000Y-67460000I-2450000J0D01*
G01*
D14*
%TO.C,D1*%
X63936000Y-58440000D02*
X63780000Y-58440000D01*
X61620000Y-58440000D02*
X61464000Y-58440000D01*
X63778608Y-61672334D02*
G75*
G03*
X63935515Y-58440001I-1078608J1672334D01*
G01*
X63779836Y-61041129D02*
G75*
G03*
X63779999Y-58959040I-1079836J1041129D01*
G01*
X61620001Y-58959040D02*
G75*
G03*
X61620164Y-61041129I1079999J-1040960D01*
G01*
X61464485Y-58440001D02*
G75*
G03*
X61621392Y-61672334I1235515J-1559999D01*
G01*
D11*
%TO.C,J1*%
X54475000Y-63000000D02*
X50125000Y-63000000D01*
X50125000Y-60000000D02*
X50125000Y-63000000D01*
X50125000Y-57000000D02*
X50125000Y-60000000D01*
X50125000Y-57000000D02*
X54475000Y-57000000D01*
X54475000Y-57000000D02*
X54475000Y-63000000D01*
%TO.C,J2*%
X70925000Y-57000000D02*
X75275000Y-57000000D01*
X75275000Y-60000000D02*
X75275000Y-57000000D01*
X75275000Y-63000000D02*
X75275000Y-60000000D01*
X75275000Y-63000000D02*
X70925000Y-63000000D01*
X70925000Y-63000000D02*
X70925000Y-57000000D01*
D14*
%TO.C,R1*%
X69250000Y-62896359D02*
X69250000Y-63203641D01*
X68490000Y-62896359D02*
X68490000Y-63203641D01*
%TO.C,U2*%
X65962500Y-65985000D02*
X67762500Y-65985000D01*
X65962500Y-65985000D02*
X65162500Y-65985000D01*
X65962500Y-62865000D02*
X66762500Y-62865000D01*
X65962500Y-62865000D02*
X65162500Y-62865000D01*
%TO.C,C4*%
X62790000Y-65057836D02*
X62790000Y-64842164D01*
X63510000Y-65057836D02*
X63510000Y-64842164D01*
%TO.C,U1*%
X61325000Y-53620000D02*
X63325000Y-53620000D01*
X63325000Y-55860000D02*
X62325000Y-55860000D01*
%TO.C,C3*%
X66780000Y-53757836D02*
X66780000Y-53542164D01*
X67500000Y-53757836D02*
X67500000Y-53542164D01*
%TO.C,R3*%
X68500000Y-66273641D02*
X68500000Y-65966359D01*
X69260000Y-66273641D02*
X69260000Y-65966359D01*
%TO.C,R2*%
X65811359Y-66595000D02*
X66118641Y-66595000D01*
X65811359Y-67355000D02*
X66118641Y-67355000D01*
%TO.C,C1*%
X65560000Y-53557164D02*
X65560000Y-53772836D01*
X64840000Y-53557164D02*
X64840000Y-53772836D01*
%TO.C,C5*%
X61565000Y-65062836D02*
X61565000Y-64847164D01*
X62285000Y-65062836D02*
X62285000Y-64847164D01*
%TO.C,Q1*%
X60110000Y-64162500D02*
X60110000Y-62487500D01*
X60110000Y-64162500D02*
X60110000Y-64812500D01*
X56990000Y-64162500D02*
X56990000Y-63512500D01*
X56990000Y-64162500D02*
X56990000Y-64812500D01*
%TO.C,C2*%
X59970000Y-54737836D02*
X59970000Y-54522164D01*
X60690000Y-54737836D02*
X60690000Y-54522164D01*
%TD*%
M02*
