%TF.GenerationSoftware,KiCad,Pcbnew,7.0.2-6a45011f42~172~ubuntu22.04.1*%
%TF.CreationDate,2023-09-16T18:58:55-07:00*%
%TF.ProjectId,i_control_led,695f636f-6e74-4726-9f6c-5f6c65642e6b,rev?*%
%TF.SameCoordinates,Original*%
%TF.FileFunction,Legend,Bot*%
%TF.FilePolarity,Positive*%
%FSLAX46Y46*%
G04 Gerber Fmt 4.6, Leading zero omitted, Abs format (unit mm)*
G04 Created by KiCad (PCBNEW 7.0.2-6a45011f42~172~ubuntu22.04.1) date 2023-09-16 18:58:55*
%MOMM*%
%LPD*%
G01*
G04 APERTURE LIST*
%ADD10C,0.150000*%
G04 APERTURE END LIST*
D10*
X70509524Y-55632619D02*
X70509524Y-54632619D01*
X69461906Y-55537380D02*
X69509525Y-55585000D01*
X69509525Y-55585000D02*
X69652382Y-55632619D01*
X69652382Y-55632619D02*
X69747620Y-55632619D01*
X69747620Y-55632619D02*
X69890477Y-55585000D01*
X69890477Y-55585000D02*
X69985715Y-55489761D01*
X69985715Y-55489761D02*
X70033334Y-55394523D01*
X70033334Y-55394523D02*
X70080953Y-55204047D01*
X70080953Y-55204047D02*
X70080953Y-55061190D01*
X70080953Y-55061190D02*
X70033334Y-54870714D01*
X70033334Y-54870714D02*
X69985715Y-54775476D01*
X69985715Y-54775476D02*
X69890477Y-54680238D01*
X69890477Y-54680238D02*
X69747620Y-54632619D01*
X69747620Y-54632619D02*
X69652382Y-54632619D01*
X69652382Y-54632619D02*
X69509525Y-54680238D01*
X69509525Y-54680238D02*
X69461906Y-54727857D01*
X68890477Y-55632619D02*
X68985715Y-55585000D01*
X68985715Y-55585000D02*
X69033334Y-55537380D01*
X69033334Y-55537380D02*
X69080953Y-55442142D01*
X69080953Y-55442142D02*
X69080953Y-55156428D01*
X69080953Y-55156428D02*
X69033334Y-55061190D01*
X69033334Y-55061190D02*
X68985715Y-55013571D01*
X68985715Y-55013571D02*
X68890477Y-54965952D01*
X68890477Y-54965952D02*
X68747620Y-54965952D01*
X68747620Y-54965952D02*
X68652382Y-55013571D01*
X68652382Y-55013571D02*
X68604763Y-55061190D01*
X68604763Y-55061190D02*
X68557144Y-55156428D01*
X68557144Y-55156428D02*
X68557144Y-55442142D01*
X68557144Y-55442142D02*
X68604763Y-55537380D01*
X68604763Y-55537380D02*
X68652382Y-55585000D01*
X68652382Y-55585000D02*
X68747620Y-55632619D01*
X68747620Y-55632619D02*
X68890477Y-55632619D01*
X68128572Y-54965952D02*
X68128572Y-55632619D01*
X68128572Y-55061190D02*
X68080953Y-55013571D01*
X68080953Y-55013571D02*
X67985715Y-54965952D01*
X67985715Y-54965952D02*
X67842858Y-54965952D01*
X67842858Y-54965952D02*
X67747620Y-55013571D01*
X67747620Y-55013571D02*
X67700001Y-55108809D01*
X67700001Y-55108809D02*
X67700001Y-55632619D01*
X67366667Y-54965952D02*
X66985715Y-54965952D01*
X67223810Y-54632619D02*
X67223810Y-55489761D01*
X67223810Y-55489761D02*
X67176191Y-55585000D01*
X67176191Y-55585000D02*
X67080953Y-55632619D01*
X67080953Y-55632619D02*
X66985715Y-55632619D01*
X66652381Y-55632619D02*
X66652381Y-54965952D01*
X66652381Y-55156428D02*
X66604762Y-55061190D01*
X66604762Y-55061190D02*
X66557143Y-55013571D01*
X66557143Y-55013571D02*
X66461905Y-54965952D01*
X66461905Y-54965952D02*
X66366667Y-54965952D01*
X65890476Y-55632619D02*
X65985714Y-55585000D01*
X65985714Y-55585000D02*
X66033333Y-55537380D01*
X66033333Y-55537380D02*
X66080952Y-55442142D01*
X66080952Y-55442142D02*
X66080952Y-55156428D01*
X66080952Y-55156428D02*
X66033333Y-55061190D01*
X66033333Y-55061190D02*
X65985714Y-55013571D01*
X65985714Y-55013571D02*
X65890476Y-54965952D01*
X65890476Y-54965952D02*
X65747619Y-54965952D01*
X65747619Y-54965952D02*
X65652381Y-55013571D01*
X65652381Y-55013571D02*
X65604762Y-55061190D01*
X65604762Y-55061190D02*
X65557143Y-55156428D01*
X65557143Y-55156428D02*
X65557143Y-55442142D01*
X65557143Y-55442142D02*
X65604762Y-55537380D01*
X65604762Y-55537380D02*
X65652381Y-55585000D01*
X65652381Y-55585000D02*
X65747619Y-55632619D01*
X65747619Y-55632619D02*
X65890476Y-55632619D01*
X64985714Y-55632619D02*
X65080952Y-55585000D01*
X65080952Y-55585000D02*
X65128571Y-55489761D01*
X65128571Y-55489761D02*
X65128571Y-54632619D01*
X63366666Y-55632619D02*
X63842856Y-55632619D01*
X63842856Y-55632619D02*
X63842856Y-54632619D01*
X63033332Y-55108809D02*
X62699999Y-55108809D01*
X62557142Y-55632619D02*
X63033332Y-55632619D01*
X63033332Y-55632619D02*
X63033332Y-54632619D01*
X63033332Y-54632619D02*
X62557142Y-54632619D01*
X62128570Y-55632619D02*
X62128570Y-54632619D01*
X62128570Y-54632619D02*
X61890475Y-54632619D01*
X61890475Y-54632619D02*
X61747618Y-54680238D01*
X61747618Y-54680238D02*
X61652380Y-54775476D01*
X61652380Y-54775476D02*
X61604761Y-54870714D01*
X61604761Y-54870714D02*
X61557142Y-55061190D01*
X61557142Y-55061190D02*
X61557142Y-55204047D01*
X61557142Y-55204047D02*
X61604761Y-55394523D01*
X61604761Y-55394523D02*
X61652380Y-55489761D01*
X61652380Y-55489761D02*
X61747618Y-55585000D01*
X61747618Y-55585000D02*
X61890475Y-55632619D01*
X61890475Y-55632619D02*
X62128570Y-55632619D01*
X60509522Y-54632619D02*
X60176189Y-55632619D01*
X60176189Y-55632619D02*
X59842856Y-54632619D01*
X59319046Y-54632619D02*
X59223808Y-54632619D01*
X59223808Y-54632619D02*
X59128570Y-54680238D01*
X59128570Y-54680238D02*
X59080951Y-54727857D01*
X59080951Y-54727857D02*
X59033332Y-54823095D01*
X59033332Y-54823095D02*
X58985713Y-55013571D01*
X58985713Y-55013571D02*
X58985713Y-55251666D01*
X58985713Y-55251666D02*
X59033332Y-55442142D01*
X59033332Y-55442142D02*
X59080951Y-55537380D01*
X59080951Y-55537380D02*
X59128570Y-55585000D01*
X59128570Y-55585000D02*
X59223808Y-55632619D01*
X59223808Y-55632619D02*
X59319046Y-55632619D01*
X59319046Y-55632619D02*
X59414284Y-55585000D01*
X59414284Y-55585000D02*
X59461903Y-55537380D01*
X59461903Y-55537380D02*
X59509522Y-55442142D01*
X59509522Y-55442142D02*
X59557141Y-55251666D01*
X59557141Y-55251666D02*
X59557141Y-55013571D01*
X59557141Y-55013571D02*
X59509522Y-54823095D01*
X59509522Y-54823095D02*
X59461903Y-54727857D01*
X59461903Y-54727857D02*
X59414284Y-54680238D01*
X59414284Y-54680238D02*
X59319046Y-54632619D01*
X58557141Y-55537380D02*
X58509522Y-55585000D01*
X58509522Y-55585000D02*
X58557141Y-55632619D01*
X58557141Y-55632619D02*
X58604760Y-55585000D01*
X58604760Y-55585000D02*
X58557141Y-55537380D01*
X58557141Y-55537380D02*
X58557141Y-55632619D01*
X57557142Y-55632619D02*
X58128570Y-55632619D01*
X57842856Y-55632619D02*
X57842856Y-54632619D01*
X57842856Y-54632619D02*
X57938094Y-54775476D01*
X57938094Y-54775476D02*
X58033332Y-54870714D01*
X58033332Y-54870714D02*
X58128570Y-54918333D01*
X55795237Y-55632619D02*
X56128570Y-55156428D01*
X56366665Y-55632619D02*
X56366665Y-54632619D01*
X56366665Y-54632619D02*
X55985713Y-54632619D01*
X55985713Y-54632619D02*
X55890475Y-54680238D01*
X55890475Y-54680238D02*
X55842856Y-54727857D01*
X55842856Y-54727857D02*
X55795237Y-54823095D01*
X55795237Y-54823095D02*
X55795237Y-54965952D01*
X55795237Y-54965952D02*
X55842856Y-55061190D01*
X55842856Y-55061190D02*
X55890475Y-55108809D01*
X55890475Y-55108809D02*
X55985713Y-55156428D01*
X55985713Y-55156428D02*
X56366665Y-55156428D01*
X54842856Y-55632619D02*
X55414284Y-55632619D01*
X55128570Y-55632619D02*
X55128570Y-54632619D01*
X55128570Y-54632619D02*
X55223808Y-54775476D01*
X55223808Y-54775476D02*
X55319046Y-54870714D01*
X55319046Y-54870714D02*
X55414284Y-54918333D01*
X68938094Y-56585952D02*
X68747618Y-57252619D01*
X68747618Y-57252619D02*
X68557142Y-56776428D01*
X68557142Y-56776428D02*
X68366666Y-57252619D01*
X68366666Y-57252619D02*
X68176190Y-56585952D01*
X67890475Y-56585952D02*
X67699999Y-57252619D01*
X67699999Y-57252619D02*
X67509523Y-56776428D01*
X67509523Y-56776428D02*
X67319047Y-57252619D01*
X67319047Y-57252619D02*
X67128571Y-56585952D01*
X66842856Y-56585952D02*
X66652380Y-57252619D01*
X66652380Y-57252619D02*
X66461904Y-56776428D01*
X66461904Y-56776428D02*
X66271428Y-57252619D01*
X66271428Y-57252619D02*
X66080952Y-56585952D01*
X65699999Y-57157380D02*
X65652380Y-57205000D01*
X65652380Y-57205000D02*
X65699999Y-57252619D01*
X65699999Y-57252619D02*
X65747618Y-57205000D01*
X65747618Y-57205000D02*
X65699999Y-57157380D01*
X65699999Y-57157380D02*
X65699999Y-57252619D01*
X65223809Y-57252619D02*
X65223809Y-56585952D01*
X65223809Y-56252619D02*
X65271428Y-56300238D01*
X65271428Y-56300238D02*
X65223809Y-56347857D01*
X65223809Y-56347857D02*
X65176190Y-56300238D01*
X65176190Y-56300238D02*
X65223809Y-56252619D01*
X65223809Y-56252619D02*
X65223809Y-56347857D01*
X64604762Y-57252619D02*
X64700000Y-57205000D01*
X64700000Y-57205000D02*
X64747619Y-57157380D01*
X64747619Y-57157380D02*
X64795238Y-57062142D01*
X64795238Y-57062142D02*
X64795238Y-56776428D01*
X64795238Y-56776428D02*
X64747619Y-56681190D01*
X64747619Y-56681190D02*
X64700000Y-56633571D01*
X64700000Y-56633571D02*
X64604762Y-56585952D01*
X64604762Y-56585952D02*
X64461905Y-56585952D01*
X64461905Y-56585952D02*
X64366667Y-56633571D01*
X64366667Y-56633571D02*
X64319048Y-56681190D01*
X64319048Y-56681190D02*
X64271429Y-56776428D01*
X64271429Y-56776428D02*
X64271429Y-57062142D01*
X64271429Y-57062142D02*
X64319048Y-57157380D01*
X64319048Y-57157380D02*
X64366667Y-57205000D01*
X64366667Y-57205000D02*
X64461905Y-57252619D01*
X64461905Y-57252619D02*
X64604762Y-57252619D01*
X63842857Y-57252619D02*
X63842857Y-56585952D01*
X63842857Y-56776428D02*
X63795238Y-56681190D01*
X63795238Y-56681190D02*
X63747619Y-56633571D01*
X63747619Y-56633571D02*
X63652381Y-56585952D01*
X63652381Y-56585952D02*
X63557143Y-56585952D01*
X63080952Y-57252619D02*
X63176190Y-57205000D01*
X63176190Y-57205000D02*
X63223809Y-57157380D01*
X63223809Y-57157380D02*
X63271428Y-57062142D01*
X63271428Y-57062142D02*
X63271428Y-56776428D01*
X63271428Y-56776428D02*
X63223809Y-56681190D01*
X63223809Y-56681190D02*
X63176190Y-56633571D01*
X63176190Y-56633571D02*
X63080952Y-56585952D01*
X63080952Y-56585952D02*
X62938095Y-56585952D01*
X62938095Y-56585952D02*
X62842857Y-56633571D01*
X62842857Y-56633571D02*
X62795238Y-56681190D01*
X62795238Y-56681190D02*
X62747619Y-56776428D01*
X62747619Y-56776428D02*
X62747619Y-57062142D01*
X62747619Y-57062142D02*
X62795238Y-57157380D01*
X62795238Y-57157380D02*
X62842857Y-57205000D01*
X62842857Y-57205000D02*
X62938095Y-57252619D01*
X62938095Y-57252619D02*
X63080952Y-57252619D01*
X61890476Y-57252619D02*
X61890476Y-56252619D01*
X61890476Y-57205000D02*
X61985714Y-57252619D01*
X61985714Y-57252619D02*
X62176190Y-57252619D01*
X62176190Y-57252619D02*
X62271428Y-57205000D01*
X62271428Y-57205000D02*
X62319047Y-57157380D01*
X62319047Y-57157380D02*
X62366666Y-57062142D01*
X62366666Y-57062142D02*
X62366666Y-56776428D01*
X62366666Y-56776428D02*
X62319047Y-56681190D01*
X62319047Y-56681190D02*
X62271428Y-56633571D01*
X62271428Y-56633571D02*
X62176190Y-56585952D01*
X62176190Y-56585952D02*
X61985714Y-56585952D01*
X61985714Y-56585952D02*
X61890476Y-56633571D01*
X61033333Y-57205000D02*
X61128571Y-57252619D01*
X61128571Y-57252619D02*
X61319047Y-57252619D01*
X61319047Y-57252619D02*
X61414285Y-57205000D01*
X61414285Y-57205000D02*
X61461904Y-57109761D01*
X61461904Y-57109761D02*
X61461904Y-56728809D01*
X61461904Y-56728809D02*
X61414285Y-56633571D01*
X61414285Y-56633571D02*
X61319047Y-56585952D01*
X61319047Y-56585952D02*
X61128571Y-56585952D01*
X61128571Y-56585952D02*
X61033333Y-56633571D01*
X61033333Y-56633571D02*
X60985714Y-56728809D01*
X60985714Y-56728809D02*
X60985714Y-56824047D01*
X60985714Y-56824047D02*
X61461904Y-56919285D01*
X60414285Y-57252619D02*
X60509523Y-57205000D01*
X60509523Y-57205000D02*
X60557142Y-57157380D01*
X60557142Y-57157380D02*
X60604761Y-57062142D01*
X60604761Y-57062142D02*
X60604761Y-56776428D01*
X60604761Y-56776428D02*
X60557142Y-56681190D01*
X60557142Y-56681190D02*
X60509523Y-56633571D01*
X60509523Y-56633571D02*
X60414285Y-56585952D01*
X60414285Y-56585952D02*
X60271428Y-56585952D01*
X60271428Y-56585952D02*
X60176190Y-56633571D01*
X60176190Y-56633571D02*
X60128571Y-56681190D01*
X60128571Y-56681190D02*
X60080952Y-56776428D01*
X60080952Y-56776428D02*
X60080952Y-57062142D01*
X60080952Y-57062142D02*
X60128571Y-57157380D01*
X60128571Y-57157380D02*
X60176190Y-57205000D01*
X60176190Y-57205000D02*
X60271428Y-57252619D01*
X60271428Y-57252619D02*
X60414285Y-57252619D01*
X59652380Y-57157380D02*
X59604761Y-57205000D01*
X59604761Y-57205000D02*
X59652380Y-57252619D01*
X59652380Y-57252619D02*
X59699999Y-57205000D01*
X59699999Y-57205000D02*
X59652380Y-57157380D01*
X59652380Y-57157380D02*
X59652380Y-57252619D01*
X58747619Y-57205000D02*
X58842857Y-57252619D01*
X58842857Y-57252619D02*
X59033333Y-57252619D01*
X59033333Y-57252619D02*
X59128571Y-57205000D01*
X59128571Y-57205000D02*
X59176190Y-57157380D01*
X59176190Y-57157380D02*
X59223809Y-57062142D01*
X59223809Y-57062142D02*
X59223809Y-56776428D01*
X59223809Y-56776428D02*
X59176190Y-56681190D01*
X59176190Y-56681190D02*
X59128571Y-56633571D01*
X59128571Y-56633571D02*
X59033333Y-56585952D01*
X59033333Y-56585952D02*
X58842857Y-56585952D01*
X58842857Y-56585952D02*
X58747619Y-56633571D01*
X58176190Y-57252619D02*
X58271428Y-57205000D01*
X58271428Y-57205000D02*
X58319047Y-57157380D01*
X58319047Y-57157380D02*
X58366666Y-57062142D01*
X58366666Y-57062142D02*
X58366666Y-56776428D01*
X58366666Y-56776428D02*
X58319047Y-56681190D01*
X58319047Y-56681190D02*
X58271428Y-56633571D01*
X58271428Y-56633571D02*
X58176190Y-56585952D01*
X58176190Y-56585952D02*
X58033333Y-56585952D01*
X58033333Y-56585952D02*
X57938095Y-56633571D01*
X57938095Y-56633571D02*
X57890476Y-56681190D01*
X57890476Y-56681190D02*
X57842857Y-56776428D01*
X57842857Y-56776428D02*
X57842857Y-57062142D01*
X57842857Y-57062142D02*
X57890476Y-57157380D01*
X57890476Y-57157380D02*
X57938095Y-57205000D01*
X57938095Y-57205000D02*
X58033333Y-57252619D01*
X58033333Y-57252619D02*
X58176190Y-57252619D01*
X57414285Y-57252619D02*
X57414285Y-56585952D01*
X57414285Y-56681190D02*
X57366666Y-56633571D01*
X57366666Y-56633571D02*
X57271428Y-56585952D01*
X57271428Y-56585952D02*
X57128571Y-56585952D01*
X57128571Y-56585952D02*
X57033333Y-56633571D01*
X57033333Y-56633571D02*
X56985714Y-56728809D01*
X56985714Y-56728809D02*
X56985714Y-57252619D01*
X56985714Y-56728809D02*
X56938095Y-56633571D01*
X56938095Y-56633571D02*
X56842857Y-56585952D01*
X56842857Y-56585952D02*
X56700000Y-56585952D01*
X56700000Y-56585952D02*
X56604761Y-56633571D01*
X56604761Y-56633571D02*
X56557142Y-56728809D01*
X56557142Y-56728809D02*
X56557142Y-57252619D01*
X67771428Y-63732619D02*
X68104761Y-63256428D01*
X68342856Y-63732619D02*
X68342856Y-62732619D01*
X68342856Y-62732619D02*
X67961904Y-62732619D01*
X67961904Y-62732619D02*
X67866666Y-62780238D01*
X67866666Y-62780238D02*
X67819047Y-62827857D01*
X67819047Y-62827857D02*
X67771428Y-62923095D01*
X67771428Y-62923095D02*
X67771428Y-63065952D01*
X67771428Y-63065952D02*
X67819047Y-63161190D01*
X67819047Y-63161190D02*
X67866666Y-63208809D01*
X67866666Y-63208809D02*
X67961904Y-63256428D01*
X67961904Y-63256428D02*
X68342856Y-63256428D01*
X66914285Y-63732619D02*
X66914285Y-63208809D01*
X66914285Y-63208809D02*
X66961904Y-63113571D01*
X66961904Y-63113571D02*
X67057142Y-63065952D01*
X67057142Y-63065952D02*
X67247618Y-63065952D01*
X67247618Y-63065952D02*
X67342856Y-63113571D01*
X66914285Y-63685000D02*
X67009523Y-63732619D01*
X67009523Y-63732619D02*
X67247618Y-63732619D01*
X67247618Y-63732619D02*
X67342856Y-63685000D01*
X67342856Y-63685000D02*
X67390475Y-63589761D01*
X67390475Y-63589761D02*
X67390475Y-63494523D01*
X67390475Y-63494523D02*
X67342856Y-63399285D01*
X67342856Y-63399285D02*
X67247618Y-63351666D01*
X67247618Y-63351666D02*
X67009523Y-63351666D01*
X67009523Y-63351666D02*
X66914285Y-63304047D01*
X66009523Y-63732619D02*
X66009523Y-62732619D01*
X66009523Y-63685000D02*
X66104761Y-63732619D01*
X66104761Y-63732619D02*
X66295237Y-63732619D01*
X66295237Y-63732619D02*
X66390475Y-63685000D01*
X66390475Y-63685000D02*
X66438094Y-63637380D01*
X66438094Y-63637380D02*
X66485713Y-63542142D01*
X66485713Y-63542142D02*
X66485713Y-63256428D01*
X66485713Y-63256428D02*
X66438094Y-63161190D01*
X66438094Y-63161190D02*
X66390475Y-63113571D01*
X66390475Y-63113571D02*
X66295237Y-63065952D01*
X66295237Y-63065952D02*
X66104761Y-63065952D01*
X66104761Y-63065952D02*
X66009523Y-63113571D01*
X65533332Y-63732619D02*
X65533332Y-63065952D01*
X65533332Y-62732619D02*
X65580951Y-62780238D01*
X65580951Y-62780238D02*
X65533332Y-62827857D01*
X65533332Y-62827857D02*
X65485713Y-62780238D01*
X65485713Y-62780238D02*
X65533332Y-62732619D01*
X65533332Y-62732619D02*
X65533332Y-62827857D01*
X64628571Y-63732619D02*
X64628571Y-63208809D01*
X64628571Y-63208809D02*
X64676190Y-63113571D01*
X64676190Y-63113571D02*
X64771428Y-63065952D01*
X64771428Y-63065952D02*
X64961904Y-63065952D01*
X64961904Y-63065952D02*
X65057142Y-63113571D01*
X64628571Y-63685000D02*
X64723809Y-63732619D01*
X64723809Y-63732619D02*
X64961904Y-63732619D01*
X64961904Y-63732619D02*
X65057142Y-63685000D01*
X65057142Y-63685000D02*
X65104761Y-63589761D01*
X65104761Y-63589761D02*
X65104761Y-63494523D01*
X65104761Y-63494523D02*
X65057142Y-63399285D01*
X65057142Y-63399285D02*
X64961904Y-63351666D01*
X64961904Y-63351666D02*
X64723809Y-63351666D01*
X64723809Y-63351666D02*
X64628571Y-63304047D01*
X64009523Y-63732619D02*
X64104761Y-63685000D01*
X64104761Y-63685000D02*
X64152380Y-63589761D01*
X64152380Y-63589761D02*
X64152380Y-62732619D01*
X63580951Y-63685000D02*
X63580951Y-63732619D01*
X63580951Y-63732619D02*
X63628570Y-63827857D01*
X63628570Y-63827857D02*
X63676189Y-63875476D01*
X62390475Y-63732619D02*
X62390475Y-62732619D01*
X61914285Y-63208809D02*
X61152381Y-63208809D01*
X61152381Y-63494523D02*
X61914285Y-63494523D01*
X60723809Y-62827857D02*
X60676190Y-62780238D01*
X60676190Y-62780238D02*
X60580952Y-62732619D01*
X60580952Y-62732619D02*
X60342857Y-62732619D01*
X60342857Y-62732619D02*
X60247619Y-62780238D01*
X60247619Y-62780238D02*
X60200000Y-62827857D01*
X60200000Y-62827857D02*
X60152381Y-62923095D01*
X60152381Y-62923095D02*
X60152381Y-63018333D01*
X60152381Y-63018333D02*
X60200000Y-63161190D01*
X60200000Y-63161190D02*
X60771428Y-63732619D01*
X60771428Y-63732619D02*
X60152381Y-63732619D01*
X59247619Y-62732619D02*
X59723809Y-62732619D01*
X59723809Y-62732619D02*
X59771428Y-63208809D01*
X59771428Y-63208809D02*
X59723809Y-63161190D01*
X59723809Y-63161190D02*
X59628571Y-63113571D01*
X59628571Y-63113571D02*
X59390476Y-63113571D01*
X59390476Y-63113571D02*
X59295238Y-63161190D01*
X59295238Y-63161190D02*
X59247619Y-63208809D01*
X59247619Y-63208809D02*
X59200000Y-63304047D01*
X59200000Y-63304047D02*
X59200000Y-63542142D01*
X59200000Y-63542142D02*
X59247619Y-63637380D01*
X59247619Y-63637380D02*
X59295238Y-63685000D01*
X59295238Y-63685000D02*
X59390476Y-63732619D01*
X59390476Y-63732619D02*
X59628571Y-63732619D01*
X59628571Y-63732619D02*
X59723809Y-63685000D01*
X59723809Y-63685000D02*
X59771428Y-63637380D01*
X58771428Y-63732619D02*
X58771428Y-63065952D01*
X58771428Y-63161190D02*
X58723809Y-63113571D01*
X58723809Y-63113571D02*
X58628571Y-63065952D01*
X58628571Y-63065952D02*
X58485714Y-63065952D01*
X58485714Y-63065952D02*
X58390476Y-63113571D01*
X58390476Y-63113571D02*
X58342857Y-63208809D01*
X58342857Y-63208809D02*
X58342857Y-63732619D01*
X58342857Y-63208809D02*
X58295238Y-63113571D01*
X58295238Y-63113571D02*
X58200000Y-63065952D01*
X58200000Y-63065952D02*
X58057143Y-63065952D01*
X58057143Y-63065952D02*
X57961904Y-63113571D01*
X57961904Y-63113571D02*
X57914285Y-63208809D01*
X57914285Y-63208809D02*
X57914285Y-63732619D01*
X57485714Y-63446904D02*
X57009524Y-63446904D01*
X57580952Y-63732619D02*
X57247619Y-62732619D01*
X57247619Y-62732619D02*
X56914286Y-63732619D01*
X67057141Y-64352619D02*
X66723808Y-65352619D01*
X66723808Y-65352619D02*
X66390475Y-64352619D01*
X66057141Y-65352619D02*
X66057141Y-64685952D01*
X66057141Y-64352619D02*
X66104760Y-64400238D01*
X66104760Y-64400238D02*
X66057141Y-64447857D01*
X66057141Y-64447857D02*
X66009522Y-64400238D01*
X66009522Y-64400238D02*
X66057141Y-64352619D01*
X66057141Y-64352619D02*
X66057141Y-64447857D01*
X65580951Y-64685952D02*
X65580951Y-65352619D01*
X65580951Y-64781190D02*
X65533332Y-64733571D01*
X65533332Y-64733571D02*
X65438094Y-64685952D01*
X65438094Y-64685952D02*
X65295237Y-64685952D01*
X65295237Y-64685952D02*
X65199999Y-64733571D01*
X65199999Y-64733571D02*
X65152380Y-64828809D01*
X65152380Y-64828809D02*
X65152380Y-65352619D01*
X64676189Y-64828809D02*
X63914285Y-64828809D01*
X63914285Y-65114523D02*
X64676189Y-65114523D01*
X63533332Y-64352619D02*
X62914285Y-64352619D01*
X62914285Y-64352619D02*
X63247618Y-64733571D01*
X63247618Y-64733571D02*
X63104761Y-64733571D01*
X63104761Y-64733571D02*
X63009523Y-64781190D01*
X63009523Y-64781190D02*
X62961904Y-64828809D01*
X62961904Y-64828809D02*
X62914285Y-64924047D01*
X62914285Y-64924047D02*
X62914285Y-65162142D01*
X62914285Y-65162142D02*
X62961904Y-65257380D01*
X62961904Y-65257380D02*
X63009523Y-65305000D01*
X63009523Y-65305000D02*
X63104761Y-65352619D01*
X63104761Y-65352619D02*
X63390475Y-65352619D01*
X63390475Y-65352619D02*
X63485713Y-65305000D01*
X63485713Y-65305000D02*
X63533332Y-65257380D01*
X62485713Y-65257380D02*
X62438094Y-65305000D01*
X62438094Y-65305000D02*
X62485713Y-65352619D01*
X62485713Y-65352619D02*
X62533332Y-65305000D01*
X62533332Y-65305000D02*
X62485713Y-65257380D01*
X62485713Y-65257380D02*
X62485713Y-65352619D01*
X62104761Y-64352619D02*
X61485714Y-64352619D01*
X61485714Y-64352619D02*
X61819047Y-64733571D01*
X61819047Y-64733571D02*
X61676190Y-64733571D01*
X61676190Y-64733571D02*
X61580952Y-64781190D01*
X61580952Y-64781190D02*
X61533333Y-64828809D01*
X61533333Y-64828809D02*
X61485714Y-64924047D01*
X61485714Y-64924047D02*
X61485714Y-65162142D01*
X61485714Y-65162142D02*
X61533333Y-65257380D01*
X61533333Y-65257380D02*
X61580952Y-65305000D01*
X61580952Y-65305000D02*
X61676190Y-65352619D01*
X61676190Y-65352619D02*
X61961904Y-65352619D01*
X61961904Y-65352619D02*
X62057142Y-65305000D01*
X62057142Y-65305000D02*
X62104761Y-65257380D01*
X61057142Y-64971666D02*
X60295238Y-64971666D01*
X59342857Y-64352619D02*
X59819047Y-64352619D01*
X59819047Y-64352619D02*
X59866666Y-64828809D01*
X59866666Y-64828809D02*
X59819047Y-64781190D01*
X59819047Y-64781190D02*
X59723809Y-64733571D01*
X59723809Y-64733571D02*
X59485714Y-64733571D01*
X59485714Y-64733571D02*
X59390476Y-64781190D01*
X59390476Y-64781190D02*
X59342857Y-64828809D01*
X59342857Y-64828809D02*
X59295238Y-64924047D01*
X59295238Y-64924047D02*
X59295238Y-65162142D01*
X59295238Y-65162142D02*
X59342857Y-65257380D01*
X59342857Y-65257380D02*
X59390476Y-65305000D01*
X59390476Y-65305000D02*
X59485714Y-65352619D01*
X59485714Y-65352619D02*
X59723809Y-65352619D01*
X59723809Y-65352619D02*
X59819047Y-65305000D01*
X59819047Y-65305000D02*
X59866666Y-65257380D01*
X59009523Y-64352619D02*
X58676190Y-65352619D01*
X58676190Y-65352619D02*
X58342857Y-64352619D01*
%TO.C,M1*%
X54990000Y-52540000D02*
G75*
G03*
X54990000Y-52540000I-2450000J0D01*
G01*
%TO.C,M2*%
X75310000Y-52540000D02*
G75*
G03*
X75310000Y-52540000I-2450000J0D01*
G01*
%TO.C,M3*%
X75310000Y-67460000D02*
G75*
G03*
X75310000Y-67460000I-2450000J0D01*
G01*
%TO.C,M4*%
X54990000Y-67460000D02*
G75*
G03*
X54990000Y-67460000I-2450000J0D01*
G01*
%TD*%
M02*
