%TF.GenerationSoftware,KiCad,Pcbnew,7.0.2-6a45011f42~172~ubuntu22.04.1*%
%TF.CreationDate,2023-09-16T19:02:56-07:00*%
%TF.ProjectId,i_control_led,695f636f-6e74-4726-9f6c-5f6c65642e6b,rev?*%
%TF.SameCoordinates,Original*%
%TF.FileFunction,Copper,L2,Bot*%
%TF.FilePolarity,Positive*%
%FSLAX46Y46*%
G04 Gerber Fmt 4.6, Leading zero omitted, Abs format (unit mm)*
G04 Created by KiCad (PCBNEW 7.0.2-6a45011f42~172~ubuntu22.04.1) date 2023-09-16 19:02:56*
%MOMM*%
%LPD*%
G01*
G04 APERTURE LIST*
%TA.AperFunction,ComponentPad*%
%ADD10C,3.570000*%
%TD*%
%TA.AperFunction,ComponentPad*%
%ADD11C,0.600000*%
%TD*%
%TA.AperFunction,SMDPad,CuDef*%
%ADD12R,0.900000X1.600000*%
%TD*%
%TA.AperFunction,ViaPad*%
%ADD13C,0.600000*%
%TD*%
%TA.AperFunction,Conductor*%
%ADD14C,0.250000*%
%TD*%
G04 APERTURE END LIST*
D10*
%TO.P,M1,~*%
%TO.N,N/C*%
X52540000Y-52540000D03*
%TD*%
%TO.P,M2,~*%
%TO.N,N/C*%
X72860000Y-52540000D03*
%TD*%
%TO.P,M3,~*%
%TO.N,N/C*%
X72860000Y-67460000D03*
%TD*%
%TO.P,M4,~*%
%TO.N,N/C*%
X52540000Y-67460000D03*
%TD*%
D11*
%TO.P,U1,9,GND*%
%TO.N,GND*%
X62825000Y-54240000D03*
D12*
X62825000Y-54740000D03*
D11*
X62825000Y-55240000D03*
%TD*%
D13*
%TO.N,GND*%
X68880000Y-64435000D03*
X62850000Y-53100000D03*
X69110000Y-61500000D03*
X56100000Y-58500000D03*
X64250000Y-64470000D03*
%TO.N,/VIN*%
X65040000Y-55614500D03*
X66100000Y-54145000D03*
%TO.N,/SCL*%
X69330000Y-58490000D03*
X66440000Y-58490000D03*
%TO.N,/SDA*%
X56400000Y-60500000D03*
X69350000Y-59525000D03*
%TO.N,/5V*%
X70741589Y-63701589D03*
X66800000Y-54990000D03*
%TD*%
D14*
%TO.N,/VIN*%
X66100000Y-54554500D02*
X66100000Y-54145000D01*
X65040000Y-55614500D02*
X66100000Y-54554500D01*
%TO.N,/SCL*%
X66440000Y-58490000D02*
X69330000Y-58490000D01*
%TO.N,/SDA*%
X56420000Y-60480000D02*
X68395000Y-60480000D01*
X56400000Y-60500000D02*
X56420000Y-60480000D01*
X68395000Y-60480000D02*
X69350000Y-59525000D01*
%TO.N,/5V*%
X68830000Y-54990000D02*
X66800000Y-54990000D01*
X71650000Y-57810000D02*
X68830000Y-54990000D01*
X70741589Y-63701589D02*
X71650000Y-62793178D01*
X71650000Y-62793178D02*
X71650000Y-57810000D01*
%TD*%
%TA.AperFunction,Conductor*%
%TO.N,GND*%
G36*
X70806570Y-51269685D02*
G01*
X70852325Y-51322489D01*
X70862269Y-51391647D01*
X70850743Y-51428844D01*
X70738331Y-51656790D01*
X70738325Y-51656803D01*
X70736536Y-51660432D01*
X70735230Y-51664277D01*
X70735230Y-51664279D01*
X70641204Y-51941270D01*
X70641201Y-51941278D01*
X70639896Y-51945125D01*
X70639104Y-51949103D01*
X70639101Y-51949117D01*
X70582033Y-52236016D01*
X70582031Y-52236026D01*
X70581242Y-52239996D01*
X70561579Y-52540000D01*
X70581242Y-52840004D01*
X70582032Y-52843975D01*
X70582033Y-52843983D01*
X70639101Y-53130882D01*
X70639103Y-53130892D01*
X70639896Y-53134875D01*
X70736536Y-53419568D01*
X70738328Y-53423202D01*
X70738331Y-53423209D01*
X70817038Y-53582811D01*
X70869509Y-53689211D01*
X70871760Y-53692580D01*
X70871763Y-53692585D01*
X71034280Y-53935808D01*
X71036540Y-53939190D01*
X71039215Y-53942240D01*
X71039221Y-53942248D01*
X71232097Y-54162180D01*
X71234771Y-54165229D01*
X71237819Y-54167902D01*
X71457751Y-54360778D01*
X71457757Y-54360782D01*
X71460810Y-54363460D01*
X71502369Y-54391229D01*
X71690032Y-54516622D01*
X71710789Y-54530491D01*
X71980432Y-54663464D01*
X72265125Y-54760104D01*
X72559996Y-54818758D01*
X72860000Y-54838421D01*
X73160004Y-54818758D01*
X73454875Y-54760104D01*
X73739568Y-54663464D01*
X74009211Y-54530491D01*
X74057111Y-54498484D01*
X74123786Y-54477608D01*
X74191166Y-54496092D01*
X74237857Y-54548071D01*
X74250000Y-54601588D01*
X74250000Y-65398411D01*
X74230315Y-65465450D01*
X74177511Y-65511205D01*
X74108353Y-65521149D01*
X74057110Y-65501514D01*
X74012582Y-65471761D01*
X74012577Y-65471758D01*
X74009211Y-65469509D01*
X74005575Y-65467716D01*
X74005570Y-65467713D01*
X73743209Y-65338331D01*
X73743202Y-65338328D01*
X73739568Y-65336536D01*
X73608047Y-65291890D01*
X73458729Y-65241204D01*
X73458725Y-65241203D01*
X73454875Y-65239896D01*
X73450892Y-65239103D01*
X73450882Y-65239101D01*
X73163983Y-65182033D01*
X73163975Y-65182032D01*
X73160004Y-65181242D01*
X72860000Y-65161579D01*
X72855957Y-65161844D01*
X72564038Y-65180977D01*
X72564036Y-65180977D01*
X72559996Y-65181242D01*
X72556026Y-65182031D01*
X72556016Y-65182033D01*
X72269117Y-65239101D01*
X72269103Y-65239104D01*
X72265125Y-65239896D01*
X72261278Y-65241201D01*
X72261270Y-65241204D01*
X71984279Y-65335230D01*
X71980432Y-65336536D01*
X71976803Y-65338325D01*
X71976790Y-65338331D01*
X71714430Y-65467713D01*
X71714418Y-65467719D01*
X71710790Y-65469509D01*
X71707427Y-65471756D01*
X71707415Y-65471763D01*
X71464191Y-65634280D01*
X71464181Y-65634286D01*
X71460810Y-65636540D01*
X71457766Y-65639209D01*
X71457751Y-65639221D01*
X71237819Y-65832097D01*
X71237811Y-65832104D01*
X71234771Y-65834771D01*
X71232104Y-65837811D01*
X71232097Y-65837819D01*
X71039221Y-66057751D01*
X71039209Y-66057766D01*
X71036540Y-66060810D01*
X71034286Y-66064181D01*
X71034280Y-66064191D01*
X70871763Y-66307415D01*
X70871756Y-66307427D01*
X70869509Y-66310790D01*
X70867719Y-66314418D01*
X70867713Y-66314430D01*
X70738331Y-66576790D01*
X70738325Y-66576803D01*
X70736536Y-66580432D01*
X70735230Y-66584277D01*
X70735230Y-66584279D01*
X70641204Y-66861270D01*
X70641201Y-66861278D01*
X70639896Y-66865125D01*
X70639104Y-66869103D01*
X70639101Y-66869117D01*
X70582033Y-67156016D01*
X70582031Y-67156026D01*
X70581242Y-67159996D01*
X70561579Y-67460000D01*
X70581242Y-67760004D01*
X70582032Y-67763975D01*
X70582033Y-67763983D01*
X70639101Y-68050882D01*
X70639103Y-68050892D01*
X70639896Y-68054875D01*
X70736536Y-68339568D01*
X70738328Y-68343202D01*
X70738331Y-68343209D01*
X70850742Y-68571156D01*
X70862738Y-68639989D01*
X70835617Y-68704379D01*
X70777988Y-68743885D01*
X70739530Y-68750000D01*
X54660470Y-68750000D01*
X54593431Y-68730315D01*
X54547676Y-68677511D01*
X54537732Y-68608353D01*
X54549258Y-68571156D01*
X54600142Y-68467971D01*
X54663464Y-68339568D01*
X54760104Y-68054875D01*
X54818758Y-67760004D01*
X54838421Y-67460000D01*
X54818758Y-67159996D01*
X54760104Y-66865125D01*
X54663464Y-66580432D01*
X54530491Y-66310790D01*
X54363460Y-66060810D01*
X54360782Y-66057757D01*
X54360778Y-66057751D01*
X54167902Y-65837819D01*
X54165229Y-65834771D01*
X54162180Y-65832097D01*
X53942248Y-65639221D01*
X53942240Y-65639215D01*
X53939190Y-65636540D01*
X53935808Y-65634280D01*
X53692585Y-65471763D01*
X53692580Y-65471760D01*
X53689211Y-65469509D01*
X53685575Y-65467716D01*
X53685570Y-65467713D01*
X53423209Y-65338331D01*
X53423202Y-65338328D01*
X53419568Y-65336536D01*
X53288047Y-65291890D01*
X53138729Y-65241204D01*
X53138725Y-65241203D01*
X53134875Y-65239896D01*
X53130892Y-65239103D01*
X53130882Y-65239101D01*
X52843983Y-65182033D01*
X52843975Y-65182032D01*
X52840004Y-65181242D01*
X52540000Y-65161579D01*
X52535957Y-65161844D01*
X52244038Y-65180977D01*
X52244036Y-65180977D01*
X52239996Y-65181242D01*
X52236026Y-65182031D01*
X52236016Y-65182033D01*
X51949117Y-65239101D01*
X51949103Y-65239104D01*
X51945125Y-65239896D01*
X51941278Y-65241201D01*
X51941270Y-65241204D01*
X51664279Y-65335230D01*
X51660432Y-65336536D01*
X51656803Y-65338325D01*
X51656790Y-65338331D01*
X51394430Y-65467713D01*
X51394418Y-65467719D01*
X51390790Y-65469509D01*
X51387420Y-65471761D01*
X51387408Y-65471768D01*
X51192890Y-65601740D01*
X51126213Y-65622618D01*
X51058833Y-65604133D01*
X51012143Y-65552154D01*
X51000000Y-65498638D01*
X51000000Y-60499999D01*
X55586383Y-60499999D01*
X55606782Y-60681044D01*
X55606782Y-60681046D01*
X55606783Y-60681047D01*
X55666957Y-60853015D01*
X55763889Y-61007281D01*
X55892719Y-61136111D01*
X56046985Y-61233043D01*
X56218953Y-61293217D01*
X56400000Y-61313616D01*
X56581047Y-61293217D01*
X56753015Y-61233043D01*
X56907281Y-61136111D01*
X56907283Y-61136108D01*
X56913017Y-61132506D01*
X56978989Y-61113500D01*
X68311367Y-61113500D01*
X68332108Y-61115789D01*
X68334905Y-61115701D01*
X68334909Y-61115702D01*
X68403017Y-61113560D01*
X68406913Y-61113500D01*
X68430958Y-61113500D01*
X68434856Y-61113500D01*
X68438724Y-61113011D01*
X68438947Y-61112983D01*
X68450608Y-61112064D01*
X68494889Y-61110673D01*
X68514498Y-61104975D01*
X68533531Y-61101033D01*
X68553797Y-61098474D01*
X68595006Y-61082157D01*
X68606037Y-61078380D01*
X68648593Y-61066018D01*
X68666160Y-61055628D01*
X68683632Y-61047068D01*
X68702617Y-61039552D01*
X68738475Y-61013498D01*
X68748223Y-61007096D01*
X68786362Y-60984542D01*
X68800800Y-60970103D01*
X68815588Y-60957472D01*
X68832107Y-60945472D01*
X68860359Y-60911319D01*
X68868203Y-60902699D01*
X69412057Y-60358846D01*
X69473378Y-60325363D01*
X69485851Y-60323309D01*
X69531047Y-60318217D01*
X69703015Y-60258043D01*
X69857281Y-60161111D01*
X69986111Y-60032281D01*
X70083043Y-59878015D01*
X70143217Y-59706047D01*
X70163616Y-59525000D01*
X70143217Y-59343953D01*
X70083043Y-59171985D01*
X70083041Y-59171982D01*
X70083041Y-59171981D01*
X70011143Y-59057557D01*
X69992142Y-58990321D01*
X70011142Y-58925614D01*
X70063043Y-58843015D01*
X70123217Y-58671047D01*
X70143616Y-58490000D01*
X70123217Y-58308953D01*
X70063043Y-58136985D01*
X69966111Y-57982719D01*
X69837281Y-57853889D01*
X69683015Y-57756957D01*
X69511047Y-57696783D01*
X69511046Y-57696782D01*
X69511044Y-57696782D01*
X69330000Y-57676383D01*
X69148955Y-57696782D01*
X68976984Y-57756957D01*
X68949794Y-57774042D01*
X68848810Y-57837494D01*
X68782840Y-57856500D01*
X66987160Y-57856500D01*
X66921189Y-57837494D01*
X66793015Y-57756957D01*
X66621047Y-57696783D01*
X66621046Y-57696782D01*
X66621044Y-57696782D01*
X66440000Y-57676383D01*
X66258955Y-57696782D01*
X66086984Y-57756957D01*
X65932717Y-57853890D01*
X65803890Y-57982717D01*
X65706957Y-58136984D01*
X65646782Y-58308955D01*
X65626383Y-58490000D01*
X65646782Y-58671044D01*
X65646782Y-58671046D01*
X65646783Y-58671047D01*
X65706957Y-58843015D01*
X65803889Y-58997281D01*
X65932719Y-59126111D01*
X66086985Y-59223043D01*
X66258953Y-59283217D01*
X66440000Y-59303616D01*
X66621047Y-59283217D01*
X66793015Y-59223043D01*
X66921189Y-59142505D01*
X66987160Y-59123500D01*
X68459161Y-59123500D01*
X68526200Y-59143185D01*
X68571955Y-59195989D01*
X68581899Y-59265147D01*
X68576202Y-59288455D01*
X68556782Y-59343951D01*
X68551690Y-59389146D01*
X68524623Y-59453560D01*
X68516151Y-59462942D01*
X68168914Y-59810181D01*
X68107591Y-59843666D01*
X68081233Y-59846500D01*
X56915331Y-59846500D01*
X56849359Y-59827494D01*
X56753015Y-59766957D01*
X56581044Y-59706782D01*
X56400000Y-59686383D01*
X56218955Y-59706782D01*
X56046984Y-59766957D01*
X55892717Y-59863890D01*
X55763890Y-59992717D01*
X55666957Y-60146984D01*
X55606782Y-60318955D01*
X55586383Y-60499999D01*
X51000000Y-60499999D01*
X51000000Y-54990000D01*
X61875000Y-54990000D01*
X61875000Y-55584518D01*
X61875354Y-55591132D01*
X61881400Y-55647371D01*
X61931647Y-55782089D01*
X62017811Y-55897188D01*
X62132910Y-55983352D01*
X62267628Y-56033599D01*
X62323867Y-56039645D01*
X62330482Y-56040000D01*
X62575000Y-56040000D01*
X63075000Y-56040000D01*
X63319518Y-56040000D01*
X63326132Y-56039645D01*
X63382371Y-56033599D01*
X63517089Y-55983352D01*
X63632188Y-55897188D01*
X63718352Y-55782089D01*
X63768599Y-55647371D01*
X63772133Y-55614500D01*
X64226383Y-55614500D01*
X64246782Y-55795544D01*
X64246782Y-55795546D01*
X64246783Y-55795547D01*
X64306957Y-55967515D01*
X64403889Y-56121781D01*
X64532719Y-56250611D01*
X64686985Y-56347543D01*
X64858953Y-56407717D01*
X64979650Y-56421316D01*
X65039999Y-56428116D01*
X65039999Y-56428115D01*
X65040000Y-56428116D01*
X65221047Y-56407717D01*
X65393015Y-56347543D01*
X65547281Y-56250611D01*
X65676111Y-56121781D01*
X65773043Y-55967515D01*
X65833217Y-55795547D01*
X65838309Y-55750352D01*
X65865375Y-55685938D01*
X65873838Y-55676564D01*
X66020826Y-55529576D01*
X66082147Y-55496093D01*
X66151839Y-55501077D01*
X66196185Y-55529577D01*
X66292719Y-55626111D01*
X66446985Y-55723043D01*
X66618953Y-55783217D01*
X66800000Y-55803616D01*
X66981047Y-55783217D01*
X67153015Y-55723043D01*
X67281189Y-55642505D01*
X67347160Y-55623500D01*
X68516234Y-55623500D01*
X68583273Y-55643185D01*
X68603915Y-55659819D01*
X70980181Y-58036085D01*
X71013666Y-58097408D01*
X71016500Y-58123766D01*
X71016500Y-62479410D01*
X70996815Y-62546449D01*
X70980181Y-62567091D01*
X70679531Y-62867740D01*
X70618208Y-62901225D01*
X70605735Y-62903279D01*
X70560544Y-62908371D01*
X70388573Y-62968546D01*
X70234306Y-63065479D01*
X70105479Y-63194306D01*
X70008546Y-63348573D01*
X69948371Y-63520544D01*
X69927972Y-63701588D01*
X69948371Y-63882633D01*
X69948371Y-63882635D01*
X69948372Y-63882636D01*
X70008546Y-64054604D01*
X70105478Y-64208870D01*
X70234308Y-64337700D01*
X70388574Y-64434632D01*
X70560542Y-64494806D01*
X70741589Y-64515205D01*
X70922636Y-64494806D01*
X71094604Y-64434632D01*
X71248870Y-64337700D01*
X71377700Y-64208870D01*
X71474632Y-64054604D01*
X71534806Y-63882636D01*
X71539898Y-63837441D01*
X71566964Y-63773027D01*
X71575427Y-63763653D01*
X72038816Y-63300264D01*
X72055097Y-63287222D01*
X72057014Y-63285180D01*
X72057018Y-63285178D01*
X72103706Y-63235457D01*
X72106324Y-63232756D01*
X72126134Y-63212948D01*
X72128664Y-63209686D01*
X72136243Y-63200810D01*
X72166586Y-63168499D01*
X72176422Y-63150605D01*
X72187102Y-63134346D01*
X72199613Y-63118219D01*
X72217211Y-63077550D01*
X72222341Y-63067078D01*
X72243695Y-63028238D01*
X72248772Y-63008460D01*
X72255072Y-62990060D01*
X72263181Y-62971323D01*
X72270112Y-62927554D01*
X72272478Y-62916131D01*
X72283500Y-62873208D01*
X72283500Y-62852792D01*
X72285027Y-62833392D01*
X72288220Y-62813235D01*
X72284050Y-62769120D01*
X72283500Y-62757451D01*
X72283500Y-57893632D01*
X72285789Y-57872892D01*
X72285701Y-57870094D01*
X72285702Y-57870091D01*
X72283561Y-57801981D01*
X72283500Y-57798085D01*
X72283500Y-57774042D01*
X72283500Y-57770144D01*
X72282981Y-57766041D01*
X72282064Y-57754389D01*
X72280673Y-57710110D01*
X72274978Y-57690511D01*
X72271033Y-57671462D01*
X72268474Y-57651203D01*
X72252162Y-57610004D01*
X72248377Y-57598950D01*
X72236018Y-57556407D01*
X72233007Y-57551316D01*
X72225624Y-57538831D01*
X72217064Y-57521357D01*
X72209552Y-57502384D01*
X72209552Y-57502383D01*
X72183510Y-57466540D01*
X72177095Y-57456773D01*
X72154544Y-57418639D01*
X72154542Y-57418637D01*
X72140101Y-57404196D01*
X72127469Y-57389405D01*
X72115474Y-57372895D01*
X72115472Y-57372893D01*
X72081324Y-57344643D01*
X72072696Y-57336791D01*
X69337088Y-54601183D01*
X69324044Y-54584902D01*
X69322000Y-54582983D01*
X69322000Y-54582982D01*
X69272315Y-54536325D01*
X69269550Y-54533645D01*
X69252527Y-54516622D01*
X69249770Y-54513865D01*
X69246486Y-54511317D01*
X69237623Y-54503746D01*
X69205321Y-54473414D01*
X69187433Y-54463580D01*
X69171169Y-54452896D01*
X69155040Y-54440385D01*
X69114377Y-54422789D01*
X69103883Y-54417648D01*
X69065062Y-54396305D01*
X69053386Y-54393307D01*
X69045284Y-54391227D01*
X69026879Y-54384926D01*
X69008145Y-54376819D01*
X69008143Y-54376818D01*
X69008142Y-54376818D01*
X68964383Y-54369887D01*
X68952943Y-54367518D01*
X68910031Y-54356500D01*
X68910030Y-54356500D01*
X68889616Y-54356500D01*
X68870217Y-54354973D01*
X68850058Y-54351780D01*
X68850057Y-54351780D01*
X68817318Y-54354874D01*
X68805943Y-54355950D01*
X68794274Y-54356500D01*
X67347160Y-54356500D01*
X67281189Y-54337494D01*
X67153015Y-54256957D01*
X67153012Y-54256955D01*
X66990464Y-54200077D01*
X66933688Y-54159356D01*
X66908199Y-54096920D01*
X66893217Y-53963955D01*
X66893217Y-53963953D01*
X66833043Y-53791985D01*
X66736111Y-53637719D01*
X66607281Y-53508889D01*
X66453015Y-53411957D01*
X66281047Y-53351783D01*
X66281046Y-53351782D01*
X66281044Y-53351782D01*
X66100000Y-53331383D01*
X65918955Y-53351782D01*
X65746984Y-53411957D01*
X65592717Y-53508890D01*
X65463890Y-53637717D01*
X65366957Y-53791984D01*
X65306782Y-53963955D01*
X65286383Y-54144999D01*
X65306782Y-54326048D01*
X65313649Y-54345672D01*
X65317210Y-54415451D01*
X65284288Y-54474305D01*
X64977942Y-54780651D01*
X64916619Y-54814136D01*
X64904146Y-54816190D01*
X64858955Y-54821282D01*
X64686984Y-54881457D01*
X64532717Y-54978390D01*
X64403890Y-55107217D01*
X64306957Y-55261484D01*
X64246782Y-55433455D01*
X64226383Y-55614500D01*
X63772133Y-55614500D01*
X63774645Y-55591132D01*
X63775000Y-55584518D01*
X63775000Y-54990000D01*
X63428552Y-54990000D01*
X63075000Y-55343551D01*
X63075000Y-56040000D01*
X62575000Y-56040000D01*
X62575000Y-55343553D01*
X62489987Y-55258540D01*
X62696049Y-55258540D01*
X62726543Y-55325313D01*
X62788297Y-55365000D01*
X62842972Y-55365000D01*
X62895433Y-55349596D01*
X62943504Y-55294119D01*
X62953951Y-55221460D01*
X62923457Y-55154687D01*
X62861703Y-55115000D01*
X62807028Y-55115000D01*
X62754567Y-55130404D01*
X62706496Y-55185881D01*
X62696049Y-55258540D01*
X62489987Y-55258540D01*
X62221447Y-54990000D01*
X61875000Y-54990000D01*
X51000000Y-54990000D01*
X51000000Y-54501361D01*
X51019685Y-54434322D01*
X51072489Y-54388567D01*
X51141647Y-54378623D01*
X51192889Y-54398258D01*
X51390789Y-54530491D01*
X51660432Y-54663464D01*
X51945125Y-54760104D01*
X52239996Y-54818758D01*
X52540000Y-54838421D01*
X52840004Y-54818758D01*
X53134875Y-54760104D01*
X53419568Y-54663464D01*
X53689211Y-54530491D01*
X53749810Y-54490000D01*
X61875000Y-54490000D01*
X62221447Y-54490000D01*
X62221447Y-54489999D01*
X62452906Y-54258540D01*
X62696049Y-54258540D01*
X62726543Y-54325313D01*
X62788297Y-54365000D01*
X62842972Y-54365000D01*
X62895433Y-54349596D01*
X62943504Y-54294119D01*
X62953951Y-54221460D01*
X62923457Y-54154687D01*
X62861703Y-54115000D01*
X62807028Y-54115000D01*
X62754567Y-54130404D01*
X62706496Y-54185881D01*
X62696049Y-54258540D01*
X62452906Y-54258540D01*
X62575000Y-54136446D01*
X62575000Y-53440000D01*
X63075000Y-53440000D01*
X63075000Y-54136447D01*
X63428553Y-54490000D01*
X63774999Y-54490000D01*
X63775000Y-53895481D01*
X63774645Y-53888867D01*
X63768599Y-53832628D01*
X63718352Y-53697910D01*
X63632188Y-53582811D01*
X63517089Y-53496647D01*
X63382371Y-53446400D01*
X63326132Y-53440354D01*
X63319518Y-53440000D01*
X63075000Y-53440000D01*
X62575000Y-53440000D01*
X62330482Y-53440000D01*
X62323867Y-53440354D01*
X62267628Y-53446400D01*
X62132910Y-53496647D01*
X62017811Y-53582811D01*
X61931647Y-53697910D01*
X61881400Y-53832628D01*
X61875354Y-53888867D01*
X61875000Y-53895481D01*
X61875000Y-54490000D01*
X53749810Y-54490000D01*
X53939190Y-54363460D01*
X54165229Y-54165229D01*
X54363460Y-53939190D01*
X54530491Y-53689211D01*
X54663464Y-53419568D01*
X54760104Y-53134875D01*
X54818758Y-52840004D01*
X54838421Y-52540000D01*
X54818758Y-52239996D01*
X54760104Y-51945125D01*
X54663464Y-51660432D01*
X54657888Y-51649126D01*
X54549257Y-51428844D01*
X54537261Y-51360012D01*
X54564382Y-51295621D01*
X54622010Y-51256115D01*
X54660469Y-51250000D01*
X70739531Y-51250000D01*
X70806570Y-51269685D01*
G37*
%TD.AperFunction*%
%TD*%
M02*
